Klei-Regular.ufo
<glyph name="exclam" format="1">
  <advance width="237"/>
  <unicode hex="0021"/>
  <outline>
    <contour>
      <point x="119" y="203" type="curve" smooth="yes"/>
      <point x="136" y="203"/>
      <point x="147" y="217"/>
      <point x="148" y="234" type="curve"/>
      <point x="169" y="701" type="line"/>
      <point x="169" y="709"/>
      <point x="168" y="716"/>
      <point x="165" y="722" type="curve" smooth="yes"/>
      <point x="157" y="741"/>
      <point x="138" y="751"/>
      <point x="118" y="751" type="curve" smooth="yes"/>
      <point x="99" y="751"/>
      <point x="79" y="741"/>
      <point x="71" y="722" type="curve" smooth="yes"/>
      <point x="69" y="716"/>
      <point x="67" y="709"/>
      <point x="67" y="701" type="curve"/>
      <point x="90" y="234" type="line"/>
      <point x="91" y="217"/>
      <point x="101" y="203"/>
    </contour>
    <contour>
      <point x="119" y="-18" type="curve" smooth="yes"/>
      <point x="150" y="-18"/>
      <point x="177" y="8"/>
      <point x="177" y="40" type="curve" smooth="yes"/>
      <point x="177" y="72"/>
      <point x="150" y="98"/>
      <point x="119" y="98" type="curve" smooth="yes"/>
      <point x="86" y="98"/>
      <point x="60" y="72"/>
      <point x="60" y="40" type="curve" smooth="yes"/>
      <point x="60" y="8"/>
      <point x="86" y="-18"/>
    </contour>
  </outline>
</glyph>
<glyph name="numbersign" format="1">
  <advance width="695"/>
  <unicode hex="0023"/>
  <outline>
    <contour>
      <point x="338" y="9" type="curve" smooth="yes"/>
      <point x="367" y="9" type="line" smooth="yes"/>
      <point x="376" y="9"/>
      <point x="382" y="15"/>
      <point x="384" y="25" type="curve" smooth="yes"/>
      <point x="431" y="219"/>
      <point x="550" y="711"/>
      <point x="550" y="717" type="curve" smooth="yes"/>
      <point x="550" y="729"/>
      <point x="538" y="731"/>
      <point x="533" y="731" type="curve" smooth="yes"/>
      <point x="506" y="731" type="line" smooth="yes"/>
      <point x="496" y="731"/>
      <point x="489" y="722"/>
      <point x="487" y="716" type="curve" smooth="yes"/>
      <point x="481" y="694"/>
      <point x="321" y="33"/>
      <point x="321" y="26" type="curve" smooth="yes"/>
      <point x="321" y="16"/>
      <point x="328" y="9"/>
    </contour>
    <contour>
      <point x="62" y="217" type="curve" smooth="yes"/>
      <point x="192" y="217" type="line"/>
      <point x="208" y="286" type="line"/>
      <point x="76" y="286" type="line" smooth="yes"/>
      <point x="67" y="286"/>
      <point x="59" y="280"/>
      <point x="56" y="271" type="curve" smooth="yes"/>
      <point x="50" y="251"/>
      <point x="45" y="234"/>
      <point x="45" y="232" type="curve" smooth="yes"/>
      <point x="45" y="221"/>
      <point x="55" y="217"/>
    </contour>
    <contour>
      <point x="224" y="217" type="line"/>
      <point x="382" y="217" type="line"/>
      <point x="398" y="286" type="line"/>
      <point x="240" y="286" type="line"/>
    </contour>
    <contour>
      <point x="147" y="9" type="curve" smooth="yes"/>
      <point x="176" y="9" type="line" smooth="yes"/>
      <point x="185" y="9"/>
      <point x="191" y="15"/>
      <point x="193" y="25" type="curve" smooth="yes"/>
      <point x="306" y="492" type="line"/>
      <point x="316" y="533"/>
      <point x="359" y="714"/>
      <point x="359" y="717" type="curve" smooth="yes"/>
      <point x="359" y="730"/>
      <point x="347" y="731"/>
      <point x="342" y="731" type="curve" smooth="yes"/>
      <point x="315" y="731" type="line" smooth="yes"/>
      <point x="306" y="731"/>
      <point x="298" y="724"/>
      <point x="296" y="716" type="curve" smooth="yes"/>
      <point x="293" y="704"/>
      <point x="130" y="31"/>
      <point x="130" y="26" type="curve" smooth="yes"/>
      <point x="130" y="16"/>
      <point x="137" y="9"/>
    </contour>
    <contour>
      <point x="113" y="476" type="curve" smooth="yes"/>
      <point x="254" y="476" type="line"/>
      <point x="270" y="545" type="line"/>
      <point x="127" y="545" type="line" smooth="yes"/>
      <point x="118" y="545"/>
      <point x="110" y="539"/>
      <point x="107" y="530" type="curve" smooth="yes"/>
      <point x="100" y="508"/>
      <point x="96" y="494"/>
      <point x="96" y="491" type="curve" smooth="yes"/>
      <point x="96" y="480"/>
      <point x="106" y="476"/>
    </contour>
    <contour>
      <point x="414" y="217" type="line"/>
      <point x="571" y="217" type="line" smooth="yes"/>
      <point x="580" y="217"/>
      <point x="588" y="223"/>
      <point x="591" y="232" type="curve" smooth="yes"/>
      <point x="595" y="243"/>
      <point x="603" y="269"/>
      <point x="603" y="272" type="curve" smooth="yes"/>
      <point x="603" y="283"/>
      <point x="592" y="286"/>
      <point x="586" y="286" type="curve" smooth="yes"/>
      <point x="430" y="286" type="line"/>
    </contour>
    <contour>
      <point x="286" y="476" type="line"/>
      <point x="444" y="476" type="line"/>
      <point x="460" y="545" type="line"/>
      <point x="302" y="545" type="line"/>
    </contour>
    <contour>
      <point x="476" y="476" type="line"/>
      <point x="622" y="476" type="line" smooth="yes"/>
      <point x="633" y="476"/>
      <point x="639" y="486"/>
      <point x="642" y="493" type="curve" smooth="yes"/>
      <point x="644" y="497"/>
      <point x="654" y="527"/>
      <point x="654" y="531" type="curve" smooth="yes"/>
      <point x="654" y="542"/>
      <point x="643" y="545"/>
      <point x="637" y="545" type="curve" smooth="yes"/>
      <point x="492" y="545" type="line"/>
    </contour>
  </outline>
</glyph>
<glyph name="dollar" format="1">
  <advance width="583"/>
  <unicode hex="0024"/>
  <outline>
    <contour>
      <point x="331.959" y="274.724" type="curve"/>
      <point x="323.092" y="196.916"/>
      <point x="310.905" y="113.516"/>
      <point x="305" y="59" type="curve"/>
      <point x="375.719" y="64.2959"/>
      <point x="419.642" y="117.545"/>
      <point x="419.642" y="173" type="curve" smooth="yes"/>
      <point x="419.642" y="222.631"/>
      <point x="386.613" y="245.025"/>
    </contour>
    <contour>
      <point x="378.24" y="649.138" type="line" smooth="yes"/>
      <point x="376.396" y="635.106"/>
      <point x="374.279" y="618.464"/>
      <point x="372.488" y="604.06" type="curve"/>
      <point x="424.533" y="597.352"/>
      <point x="476.94" y="581.022"/>
      <point x="476.94" y="560.219" type="curve" smooth="yes"/>
      <point x="476.94" y="550.434"/>
      <point x="464.562" y="501.087"/>
      <point x="447" y="501.087" type="curve" smooth="yes"/>
      <point x="429.471" y="501.087"/>
      <point x="411.812" y="558.111"/>
      <point x="367.6" y="575.809" type="curve"/>
      <point x="359.571" y="515.013"/>
      <point x="350.423" y="431.161"/>
      <point x="342.602" y="365.797" type="curve"/>
      <point x="424.022" y="318.961"/>
      <point x="489.283" y="284.062"/>
      <point x="489.283" y="211.976" type="curve" smooth="yes"/>
      <point x="489.283" y="143.288"/>
      <point x="458.562" y="97.8906"/>
      <point x="417.31" y="64.9912" type="curve" smooth="yes"/>
      <point x="388.595" y="42.0908"/>
      <point x="344.662" y="28.5"/>
      <point x="303.931" y="26.2539" type="curve"/>
      <point x="300.052" y="-9.35645"/>
      <point x="298.665" y="-22.4482"/>
      <point x="298.205" y="-26.7705" type="curve"/>
      <point x="287.927" y="-42.5596"/>
      <point x="272.947" y="-46.9424"/>
      <point x="258.26" y="-46.9424" type="curve" smooth="yes"/>
      <point x="247.335" y="-46.9424"/>
      <point x="236.371" y="-44.2734"/>
      <point x="228.848" y="-38.0469" type="curve" smooth="yes"/>
      <point x="225.852" y="-35.5664" type="line"/>
      <point x="226.405" y="-31.9287" type="line" smooth="yes"/>
      <point x="229.722" y="-10.1211"/>
      <point x="233.136" y="12.7266"/>
      <point x="236.066" y="32.6465" type="curve"/>
      <point x="157.164" y="48.8691"/>
      <point x="104.56" y="98.0703"/>
      <point x="104.56" y="129.079" type="curve" smooth="yes"/>
      <point x="104.56" y="148.576"/>
      <point x="128.394" y="183.2"/>
      <point x="147" y="183.2" type="curve" smooth="yes"/>
      <point x="164.431" y="183.2"/>
      <point x="183.789" y="101.536"/>
      <point x="241.783" y="73.126" type="curve"/>
      <point x="252.887" y="151.349"/>
      <point x="265.059" y="242.181"/>
      <point x="273.362" y="312.922" type="curve"/>
      <point x="201.703" y="353.013"/>
      <point x="130.485" y="398.454"/>
      <point x="130.485" y="461.93" type="curve" smooth="yes"/>
      <point x="130.485" y="534.975"/>
      <point x="185.328" y="611.011"/>
      <point x="303.695" y="619.241" type="curve"/>
      <point x="305.204" y="637.605"/>
      <point x="306.4" y="652.622"/>
      <point x="307.75" y="670" type="curve" smooth="yes"/>
      <point x="307.773" y="670" type="line"/>
      <point x="307.83" y="670" type="line" smooth="yes"/>
      <point x="310.356" y="673.526"/>
      <point x="331.482" y="674.557"/>
      <point x="342.399" y="674.557" type="curve" smooth="yes"/>
      <point x="358.089" y="674.557"/>
      <point x="377.25" y="664.998"/>
      <point x="378.281" y="650.493" type="curve" smooth="yes"/>
      <point x="378.329" y="649.813" type="line"/>
    </contour>
    <contour>
      <point x="283.823" y="399.481" type="curve"/>
      <point x="289.939" y="457.295"/>
      <point x="297.373" y="531.438"/>
      <point x="302.342" y="589.085" type="curve"/>
      <point x="224.813" y="585.771"/>
      <point x="204.819" y="522.663"/>
      <point x="204.819" y="490.696" type="curve" smooth="yes"/>
      <point x="204.819" y="454.367"/>
      <point x="236.368" y="427.202"/>
    </contour>
  </outline>
</glyph>
<glyph name="percent" format="1">
  <advance width="898"/>
  <unicode hex="0025"/>
  <outline>
    <contour>
      <point x="235" y="-71" type="curve" smooth="yes"/>
      <point x="239" y="-71"/>
      <point x="244" y="-70"/>
      <point x="248" y="-65" type="curve"/>
      <point x="693" y="671" type="line"/>
      <point x="694" y="673"/>
      <point x="695" y="677"/>
      <point x="695" y="680" type="curve" smooth="yes"/>
      <point x="695" y="687"/>
      <point x="690" y="691"/>
      <point x="686" y="694" type="curve" smooth="yes"/>
      <point x="682" y="697"/>
      <point x="672" y="704"/>
      <point x="665" y="704" type="curve" smooth="yes"/>
      <point x="659" y="704"/>
      <point x="654" y="700"/>
      <point x="651" y="696" type="curve"/>
      <point x="207" y="-40" type="line" smooth="yes"/>
      <point x="205" y="-43"/>
      <point x="204" y="-46"/>
      <point x="204" y="-49" type="curve" smooth="yes"/>
      <point x="204" y="-55"/>
      <point x="207" y="-60"/>
      <point x="212" y="-63" type="curve" smooth="yes"/>
      <point x="219" y="-67"/>
      <point x="226" y="-71"/>
    </contour>
    <contour>
      <point x="220" y="249" type="curve" smooth="yes"/>
      <point x="315" y="249"/>
      <point x="390" y="322"/>
      <point x="390" y="449" type="curve" smooth="yes"/>
      <point x="390" y="576"/>
      <point x="315" y="649"/>
      <point x="220" y="649" type="curve" smooth="yes"/>
      <point x="127" y="649"/>
      <point x="52" y="576"/>
      <point x="52" y="449" type="curve" smooth="yes"/>
      <point x="52" y="322"/>
      <point x="127" y="249"/>
    </contour>
    <contour>
      <point x="220" y="281" type="curve" smooth="yes"/>
      <point x="173" y="281"/>
      <point x="129" y="346"/>
      <point x="129" y="449" type="curve" smooth="yes"/>
      <point x="129" y="552"/>
      <point x="173" y="617"/>
      <point x="220" y="617" type="curve" smooth="yes"/>
      <point x="266" y="617"/>
      <point x="312" y="552"/>
      <point x="312" y="449" type="curve" smooth="yes"/>
      <point x="312" y="346"/>
      <point x="266" y="281"/>
    </contour>
    <contour>
      <point x="678" y="-16" type="curve" smooth="yes"/>
      <point x="771" y="-16"/>
      <point x="846" y="57"/>
      <point x="846" y="184" type="curve" smooth="yes"/>
      <point x="846" y="311"/>
      <point x="771" y="384"/>
      <point x="678" y="384" type="curve" smooth="yes"/>
      <point x="583" y="384"/>
      <point x="507" y="311"/>
      <point x="507" y="184" type="curve" smooth="yes"/>
      <point x="507" y="57"/>
      <point x="583" y="-16"/>
    </contour>
    <contour>
      <point x="678" y="16" type="curve" smooth="yes"/>
      <point x="632" y="16"/>
      <point x="586" y="81"/>
      <point x="586" y="184" type="curve" smooth="yes"/>
      <point x="586" y="287"/>
      <point x="632" y="352"/>
      <point x="678" y="352" type="curve" smooth="yes"/>
      <point x="724" y="352"/>
      <point x="769" y="287"/>
      <point x="769" y="184" type="curve" smooth="yes"/>
      <point x="769" y="81"/>
      <point x="724" y="16"/>
    </contour>
  </outline>
</glyph>
<glyph name="ampersand" format="1">
  <advance width="811"/>
  <unicode hex="0026"/>
  <outline>
    <contour>
      <point x="661" y="-23" type="curve" smooth="yes"/>
      <point x="739" y="-23"/>
      <point x="774" y="21"/>
      <point x="787" y="60" type="curve"/>
      <point x="775" y="71" type="line"/>
      <point x="767" y="59"/>
      <point x="743" y="19"/>
      <point x="676" y="19" type="curve" smooth="yes"/>
      <point x="633" y="19"/>
      <point x="578" y="104"/>
      <point x="538" y="166" type="curve" smooth="yes"/>
      <point x="530" y="178"/>
      <point x="520" y="193"/>
      <point x="514" y="204" type="curve"/>
      <point x="530" y="228"/>
      <point x="554" y="253"/>
      <point x="577" y="276" type="curve" smooth="yes"/>
      <point x="589" y="288"/>
      <point x="635" y="324"/>
      <point x="649" y="334" type="curve" smooth="yes"/>
      <point x="656" y="339"/>
      <point x="666" y="345"/>
      <point x="677" y="345" type="curve" smooth="yes"/>
      <point x="684" y="345" type="line"/>
      <point x="684" y="364" type="line"/>
      <point x="551" y="364" type="line"/>
      <point x="551" y="345" type="line"/>
      <point x="558" y="345" type="line" smooth="yes"/>
      <point x="572" y="344"/>
      <point x="586" y="339"/>
      <point x="586" y="333" type="curve" smooth="yes"/>
      <point x="586" y="324"/>
      <point x="567" y="306"/>
      <point x="554" y="294" type="curve" smooth="yes"/>
      <point x="531" y="273"/>
      <point x="512" y="253"/>
      <point x="493" y="228" type="curve"/>
      <point x="468" y="258"/>
      <point x="431" y="299"/>
      <point x="377" y="353" type="curve" smooth="yes"/>
      <point x="351" y="379"/>
      <point x="323" y="406"/>
      <point x="292" y="434" type="curve"/>
      <point x="353" y="479"/>
      <point x="420" y="534"/>
      <point x="420" y="595" type="curve" smooth="yes"/>
      <point x="420" y="641"/>
      <point x="411" y="742"/>
      <point x="262" y="742" type="curve" smooth="yes"/>
      <point x="156" y="742"/>
      <point x="103" y="645"/>
      <point x="103" y="567" type="curve" smooth="yes"/>
      <point x="103" y="513"/>
      <point x="146" y="459"/>
      <point x="197" y="407" type="curve"/>
      <point x="133" y="359"/>
      <point x="24" y="274"/>
      <point x="24" y="175" type="curve" smooth="yes"/>
      <point x="24" y="68"/>
      <point x="119" y="-17"/>
      <point x="260" y="-17" type="curve" smooth="yes"/>
      <point x="367" y="-17"/>
      <point x="415" y="52"/>
      <point x="463" y="126" type="curve"/>
      <point x="469" y="118"/>
      <point x="479" y="102"/>
      <point x="484" y="94" type="curve" smooth="yes"/>
      <point x="525" y="29"/>
      <point x="558" y="-23"/>
    </contour>
    <contour>
      <point x="261" y="23" type="curve" smooth="yes"/>
      <point x="156" y="23"/>
      <point x="106" y="100"/>
      <point x="106" y="184" type="curve" smooth="yes"/>
      <point x="106" y="260"/>
      <point x="151" y="324"/>
      <point x="223" y="382" type="curve"/>
      <point x="260" y="350"/>
      <point x="301" y="313"/>
      <point x="326" y="287" type="curve" smooth="yes"/>
      <point x="374" y="238"/>
      <point x="410" y="195"/>
      <point x="441" y="155" type="curve"/>
      <point x="397" y="93"/>
      <point x="346" y="23"/>
    </contour>
    <contour>
      <point x="265" y="460" type="curve"/>
      <point x="215" y="511"/>
      <point x="174" y="563"/>
      <point x="174" y="604" type="curve" smooth="yes"/>
      <point x="174" y="654"/>
      <point x="199" y="712"/>
      <point x="266" y="712" type="curve" smooth="yes"/>
      <point x="329" y="712"/>
      <point x="359" y="671"/>
      <point x="359" y="619" type="curve" smooth="yes"/>
      <point x="359" y="578"/>
      <point x="348" y="533"/>
    </contour>
  </outline>
</glyph>
<glyph name="quotesingle" format="1">
  <advance width="187"/>
  <unicode hex="0027"/>
  <outline>
    <contour>
      <point x="86" y="500" type="curve" smooth="yes"/>
      <point x="102" y="500" type="line" smooth="yes"/>
      <point x="109" y="500"/>
      <point x="112" y="504"/>
      <point x="113" y="510" type="curve" smooth="yes"/>
      <point x="127" y="632" type="line" smooth="yes"/>
      <point x="127" y="634"/>
      <point x="127" y="637"/>
      <point x="127" y="639" type="curve" smooth="yes"/>
      <point x="127" y="658"/>
      <point x="115" y="672"/>
      <point x="94" y="672" type="curve" smooth="yes"/>
      <point x="73" y="672"/>
      <point x="62" y="658"/>
      <point x="62" y="639" type="curve" smooth="yes"/>
      <point x="62" y="638"/>
      <point x="62" y="634"/>
      <point x="62" y="632" type="curve" smooth="yes"/>
      <point x="76" y="510" type="line" smooth="yes"/>
      <point x="77" y="504"/>
      <point x="80" y="500"/>
    </contour>
  </outline>
</glyph>
<glyph name="parenleft" format="1">
  <advance width="282"/>
  <unicode hex="0028"/>
  <outline>
    <contour>
      <point x="243.777" y="747.047" type="line" smooth="yes"/>
      <point x="216.965" y="707.86"/>
      <point x="122" y="645.89"/>
      <point x="122" y="330" type="curve" smooth="yes"/>
      <point x="122" y="35.3779"/>
      <point x="216.923" y="-27.7646"/>
      <point x="245" y="-69.8809" type="curve"/>
      <point x="245" y="-126.719" type="line"/>
      <point x="233.167" y="-115.064"/>
      <point x="50" y="50.29"/>
      <point x="50" y="331" type="curve" smooth="yes"/>
      <point x="50" y="642.025"/>
      <point x="232.945" y="783.59"/>
      <point x="245" y="793.779" type="curve"/>
      <point x="245" y="748.834" type="line"/>
    </contour>
  </outline>
</glyph>
<glyph name="parenright" format="1">
  <advance width="295"/>
  <unicode hex="0029"/>
  <outline>
    <contour>
      <point x="50" y="-97" type="line"/>
      <point x="63" y="-86"/>
      <point x="245" y="76"/>
      <point x="245" y="352" type="curve" smooth="yes"/>
      <point x="245" y="627"/>
      <point x="62" y="789"/>
      <point x="50" y="799" type="curve"/>
      <point x="50" y="749" type="line"/>
      <point x="64" y="737"/>
      <point x="115" y="685"/>
      <point x="147" y="571" type="curve" smooth="yes"/>
      <point x="162" y="517"/>
      <point x="173" y="445"/>
      <point x="173" y="352" type="curve" smooth="yes"/>
      <point x="173" y="259"/>
      <point x="162" y="187"/>
      <point x="147" y="133" type="curve" smooth="yes"/>
      <point x="115" y="19"/>
      <point x="64" y="-35"/>
      <point x="50" y="-47" type="curve"/>
    </contour>
  </outline>
</glyph>
<glyph name="asterisk" format="1">
  <advance width="346"/>
  <unicode hex="002A"/>
  <outline>
    <contour>
      <point x="170.775" y="648.875" type="curve" smooth="yes"/>
      <point x="174.225" y="648.875" type="line" smooth="yes"/>
      <point x="183.823" y="648.875"/>
      <point x="191.575" y="641.006"/>
      <point x="191.575" y="631.67" type="curve"/>
      <point x="195.721" y="531.13" type="line"/>
      <point x="286.065" y="576.822" type="line" smooth="yes"/>
      <point x="288.86" y="578.235"/>
      <point x="291.43" y="578.725"/>
      <point x="293.825" y="578.725" type="curve" smooth="yes"/>
      <point x="300.052" y="578.725"/>
      <point x="305.868" y="576.247"/>
      <point x="309.72" y="571.247" type="curve" smooth="yes"/>
      <point x="312.876" y="567.15"/>
      <point x="313.475" y="562.545"/>
      <point x="313.475" y="559.075" type="curve" smooth="yes"/>
      <point x="313.475" y="552.472"/>
      <point x="309.404" y="547.248"/>
      <point x="304.591" y="544.039" type="curve" smooth="yes"/>
      <point x="221.399" y="488.925" type="line"/>
      <point x="304.591" y="433.81" type="line" smooth="yes"/>
      <point x="308.571" y="431.173"/>
      <point x="313.475" y="426.436"/>
      <point x="313.475" y="418.775" type="curve" smooth="yes"/>
      <point x="313.475" y="413.864"/>
      <point x="311.28" y="410.432"/>
      <point x="310.435" y="408.743" type="curve" smooth="yes"/>
      <point x="310.241" y="408.354" type="line"/>
      <point x="309.999" y="407.992" type="line" smooth="yes"/>
      <point x="306.682" y="403.016"/>
      <point x="300.993" y="399.125"/>
      <point x="293.825" y="399.125" type="curve" smooth="yes"/>
      <point x="290.904" y="399.125"/>
      <point x="288.604" y="399.73"/>
      <point x="286.036" y="401.044" type="curve" smooth="yes"/>
      <point x="196.864" y="446.666" type="line"/>
      <point x="192.725" y="347.329" type="line"/>
      <point x="192.725" y="337.024"/>
      <point x="183.111" y="330.125"/>
      <point x="174.225" y="330.125" type="curve" smooth="yes"/>
      <point x="170.775" y="330.125" type="line" smooth="yes"/>
      <point x="161.889" y="330.125"/>
      <point x="152.275" y="337.024"/>
      <point x="152.275" y="347.329" type="curve"/>
      <point x="148.134" y="446.705" type="line"/>
      <point x="57.9393" y="400.919" type="line" smooth="yes"/>
      <point x="54.6519" y="399.237"/>
      <point x="51.182" y="399"/>
      <point x="49" y="399" type="curve" smooth="yes"/>
      <point x="41.0706" y="399"/>
      <point x="36.9606" y="405.308"/>
      <point x="35.1808" y="407.735" type="curve" smooth="yes"/>
      <point x="32.9511" y="410.775"/>
      <point x="31.5254" y="414.524"/>
      <point x="31.5254" y="418.775" type="curve" smooth="yes"/>
      <point x="31.5254" y="424.802"/>
      <point x="35.614" y="431.132"/>
      <point x="38.3293" y="433.202" type="curve"/>
      <point x="123.491" y="488.925" type="line"/>
      <point x="39.3856" y="543.956" type="line"/>
      <point x="33.3387" y="547.644"/>
      <point x="31.2778" y="554.524"/>
      <point x="31.2778" y="560" type="curve" smooth="yes"/>
      <point x="31.2778" y="571.375"/>
      <point x="40.8881" y="578.725"/>
      <point x="50.0254" y="578.725" type="curve" smooth="yes"/>
      <point x="52.1945" y="578.725"/>
      <point x="55.6239" y="578.476"/>
      <point x="58.9192" y="576.83" type="curve"/>
      <point x="149.279" y="531.13" type="line"/>
      <point x="153.425" y="631.67" type="line"/>
      <point x="153.425" y="639.729"/>
      <point x="160.517" y="648.875"/>
    </contour>
  </outline>
</glyph>
<glyph name="plus" format="1">
  <advance width="406"/>
  <unicode hex="002B"/>
  <outline>
    <contour>
      <point x="232" y="147" type="line"/>
      <point x="223" y="139"/>
      <point x="213" y="137"/>
      <point x="203" y="137" type="curve" smooth="yes"/>
      <point x="193" y="137"/>
      <point x="184" y="139"/>
      <point x="174" y="147" type="curve"/>
      <point x="174" y="269" type="line"/>
      <point x="67" y="269" type="line"/>
      <point x="55" y="269"/>
      <point x="52" y="288"/>
      <point x="52" y="299" type="curve" smooth="yes"/>
      <point x="52" y="310"/>
      <point x="54" y="327"/>
      <point x="68" y="327" type="curve"/>
      <point x="174" y="327" type="line"/>
      <point x="174" y="437" type="line"/>
      <point x="184" y="441"/>
      <point x="193" y="444"/>
      <point x="203" y="444" type="curve" smooth="yes"/>
      <point x="213" y="444"/>
      <point x="223" y="441"/>
      <point x="233" y="436" type="curve"/>
      <point x="233" y="327" type="line"/>
      <point x="341" y="327" type="line" smooth="yes"/>
      <point x="354" y="327"/>
      <point x="354" y="303"/>
      <point x="354" y="295" type="curve" smooth="yes"/>
      <point x="354" y="288"/>
      <point x="354" y="269"/>
      <point x="341" y="269" type="curve" smooth="yes"/>
      <point x="232" y="269" type="line"/>
    </contour>
  </outline>
</glyph>
<glyph name="comma" format="1">
  <advance width="240"/>
  <unicode hex="002C"/>
  <outline>
    <contour>
      <point x="86" y="-86" type="curve" smooth="yes"/>
      <point x="143" y="-86"/>
      <point x="185" y="-36"/>
      <point x="185" y="41" type="curve" smooth="yes"/>
      <point x="185" y="70"/>
      <point x="160" y="98"/>
      <point x="126" y="98" type="curve" smooth="yes"/>
      <point x="93" y="98"/>
      <point x="63" y="70"/>
      <point x="63" y="38" type="curve" smooth="yes"/>
      <point x="63" y="12"/>
      <point x="76" y="2"/>
      <point x="89" y="-8" type="curve" smooth="yes"/>
      <point x="95" y="-12"/>
      <point x="104" y="-21"/>
      <point x="104" y="-27" type="curve" smooth="yes"/>
      <point x="104" y="-53"/>
      <point x="67" y="-60"/>
      <point x="48" y="-60" type="curve"/>
      <point x="60" y="-82" type="line"/>
      <point x="65" y="-84"/>
      <point x="73" y="-86"/>
    </contour>
  </outline>
</glyph>
<glyph name="hyphen" format="1">
  <advance width="403"/>
  <unicode hex="002D"/>
  <outline>
    <contour>
      <point x="75" y="269" type="curve" smooth="yes"/>
      <point x="330" y="269" type="line" smooth="yes"/>
      <point x="344" y="269"/>
      <point x="345" y="290"/>
      <point x="345" y="297" type="curve" smooth="yes"/>
      <point x="345" y="305"/>
      <point x="345" y="327"/>
      <point x="330" y="327" type="curve" smooth="yes"/>
      <point x="77" y="327" type="line" smooth="yes"/>
      <point x="63" y="327"/>
      <point x="60" y="309"/>
      <point x="60" y="299" type="curve" smooth="yes"/>
      <point x="60" y="288"/>
      <point x="62" y="269"/>
    </contour>
  </outline>
</glyph>
<glyph name="period" format="1">
  <advance width="224"/>
  <unicode hex="002E"/>
  <outline>
    <contour>
      <point x="112" y="-18" type="curve" smooth="yes"/>
      <point x="144" y="-18"/>
      <point x="170" y="8"/>
      <point x="170" y="40" type="curve" smooth="yes"/>
      <point x="170" y="72"/>
      <point x="144" y="98"/>
      <point x="112" y="98" type="curve" smooth="yes"/>
      <point x="79" y="98"/>
      <point x="53" y="72"/>
      <point x="53" y="40" type="curve" smooth="yes"/>
      <point x="53" y="8"/>
      <point x="79" y="-18"/>
    </contour>
  </outline>
</glyph>
<glyph name="slash" format="1">
  <advance width="398"/>
  <unicode hex="002F"/>
  <outline>
    <contour>
      <point x="40" y="-108" type="curve"/>
      <point x="54" y="-103" type="line" smooth="yes"/>
      <point x="64" y="-99"/>
      <point x="73" y="-98"/>
      <point x="81" y="-98" type="curve" smooth="yes"/>
      <point x="99" y="-98"/>
      <point x="114" y="-94"/>
      <point x="123" y="-59" type="curve" smooth="yes"/>
      <point x="125" y="-50"/>
      <point x="172" y="107"/>
      <point x="231" y="286" type="curve" smooth="yes"/>
      <point x="278" y="429"/>
      <point x="335" y="598"/>
      <point x="362" y="676" type="curve"/>
      <point x="362" y="693"/>
      <point x="350" y="703"/>
      <point x="334" y="703" type="curve" smooth="yes"/>
      <point x="320" y="703"/>
      <point x="307" y="697"/>
      <point x="295" y="682" type="curve" smooth="yes"/>
      <point x="292" y="678" type="line" smooth="yes"/>
      <point x="255" y="545"/>
      <point x="217" y="417"/>
      <point x="175" y="286" type="curve" smooth="yes"/>
      <point x="132" y="153"/>
      <point x="90" y="30"/>
    </contour>
  </outline>
</glyph>
<glyph name="zero" format="1">
  <advance width="480"/>
  <unicode hex="0030"/>
  <outline>
    <contour>
      <point x="241" y="-7" type="curve" smooth="yes"/>
      <point x="371" y="-7"/>
      <point x="464" y="140"/>
      <point x="464" y="317" type="curve" smooth="yes"/>
      <point x="464" y="494"/>
      <point x="371" y="640"/>
      <point x="241" y="640" type="curve" smooth="yes"/>
      <point x="111" y="640"/>
      <point x="18" y="494"/>
      <point x="18" y="317" type="curve" smooth="yes"/>
      <point x="18" y="140"/>
      <point x="111" y="-7"/>
    </contour>
    <contour>
      <point x="241" y="37" type="curve" smooth="yes"/>
      <point x="172" y="37"/>
      <point x="105" y="158"/>
      <point x="105" y="317" type="curve" smooth="yes"/>
      <point x="105" y="476"/>
      <point x="172" y="597"/>
      <point x="241" y="597" type="curve" smooth="yes"/>
      <point x="310" y="597"/>
      <point x="377" y="476"/>
      <point x="377" y="317" type="curve" smooth="yes"/>
      <point x="377" y="158"/>
      <point x="310" y="37"/>
    </contour>
  </outline>
</glyph>
<glyph name="one" format="1">
  <advance width="480"/>
  <unicode hex="0031"/>
  <outline>
    <contour>
      <point x="319" y="20" type="curve" smooth="yes"/>
      <point x="326" y="20" type="line"/>
      <point x="326" y="0" type="line"/>
      <point x="166" y="0" type="line"/>
      <point x="166" y="20" type="line"/>
      <point x="173" y="20" type="line" smooth="yes"/>
      <point x="193" y="20"/>
      <point x="202" y="33"/>
      <point x="202" y="44" type="curve" smooth="yes"/>
      <point x="202" y="528" type="line" smooth="yes"/>
      <point x="202" y="546"/>
      <point x="200" y="565"/>
      <point x="192" y="565" type="curve" smooth="yes"/>
      <point x="174" y="565"/>
      <point x="166" y="562"/>
      <point x="161" y="560" type="curve"/>
      <point x="161" y="582" type="line"/>
      <point x="198" y="597"/>
      <point x="234" y="613"/>
      <point x="261" y="640" type="curve" smooth="yes"/>
      <point x="264" y="643"/>
      <point x="268" y="644"/>
      <point x="272" y="644" type="curve" smooth="yes"/>
      <point x="280" y="644"/>
      <point x="290" y="638"/>
      <point x="290" y="627" type="curve" smooth="yes"/>
      <point x="290" y="44" type="line" smooth="yes"/>
      <point x="290" y="32"/>
      <point x="300" y="20"/>
    </contour>
  </outline>
</glyph>
<glyph name="two" format="1">
  <advance width="480"/>
  <unicode hex="0032"/>
  <outline>
    <contour>
      <point x="31" y="0" type="line"/>
      <point x="391" y="0" type="line"/>
      <point x="434" y="106" type="line"/>
      <point x="415" y="110" type="line"/>
      <point x="413" y="104" type="line"/>
      <point x="403" y="75"/>
      <point x="382" y="58"/>
      <point x="334" y="58" type="curve"/>
      <point x="122" y="58" type="line"/>
      <point x="152" y="97"/>
      <point x="227" y="194"/>
      <point x="298" y="280" type="curve" smooth="yes"/>
      <point x="384" y="384"/>
      <point x="432" y="450"/>
      <point x="432" y="510" type="curve" smooth="yes"/>
      <point x="432" y="593"/>
      <point x="371" y="642"/>
      <point x="265" y="642" type="curve" smooth="yes"/>
      <point x="142" y="642"/>
      <point x="91" y="543"/>
      <point x="88" y="537" type="curve"/>
      <point x="106" y="523" type="line"/>
      <point x="138" y="564"/>
      <point x="177" y="597"/>
      <point x="241" y="597" type="curve" smooth="yes"/>
      <point x="314" y="597"/>
      <point x="351" y="566"/>
      <point x="351" y="491" type="curve" smooth="yes"/>
      <point x="351" y="451"/>
      <point x="312" y="395"/>
      <point x="273" y="344" type="curve" smooth="yes"/>
      <point x="215" y="268"/>
      <point x="134" y="162"/>
      <point x="31" y="43" type="curve"/>
    </contour>
  </outline>
</glyph>
<glyph name="three" format="1">
  <advance width="480"/>
  <unicode hex="0033"/>
  <outline>
    <contour>
      <point x="190" y="-7" type="curve" smooth="yes"/>
      <point x="345" y="-7"/>
      <point x="437" y="72"/>
      <point x="437" y="198" type="curve" smooth="yes"/>
      <point x="437" y="297"/>
      <point x="350" y="371"/>
      <point x="254" y="380" type="curve"/>
      <point x="315" y="425"/>
      <point x="385" y="478"/>
      <point x="385" y="537" type="curve" smooth="yes"/>
      <point x="385" y="600"/>
      <point x="335" y="640"/>
      <point x="234" y="640" type="curve" smooth="yes"/>
      <point x="117" y="640"/>
      <point x="48" y="533"/>
      <point x="46" y="529" type="curve"/>
      <point x="68" y="514" type="line"/>
      <point x="102" y="558"/>
      <point x="158" y="594"/>
      <point x="212" y="594" type="curve" smooth="yes"/>
      <point x="260" y="594"/>
      <point x="301" y="562"/>
      <point x="301" y="516" type="curve" smooth="yes"/>
      <point x="301" y="475"/>
      <point x="240" y="414"/>
      <point x="185" y="370" type="curve" smooth="yes"/>
      <point x="143" y="336"/>
      <point x="107" y="310"/>
      <point x="104" y="308" type="curve" smooth="yes"/>
      <point x="98" y="304"/>
      <point x="96" y="301"/>
      <point x="96" y="297" type="curve" smooth="yes"/>
      <point x="96" y="289"/>
      <point x="104" y="285"/>
      <point x="113" y="285" type="curve" smooth="yes"/>
      <point x="118" y="285"/>
      <point x="127" y="288"/>
      <point x="139" y="292" type="curve" smooth="yes"/>
      <point x="158" y="299"/>
      <point x="183" y="308"/>
      <point x="207" y="308" type="curve" smooth="yes"/>
      <point x="236" y="308"/>
      <point x="265" y="307"/>
      <point x="294" y="295" type="curve" smooth="yes"/>
      <point x="339" y="277"/>
      <point x="363" y="223"/>
      <point x="363" y="173" type="curve" smooth="yes"/>
      <point x="363" y="91"/>
      <point x="289" y="19"/>
      <point x="190" y="19" type="curve" smooth="yes"/>
      <point x="157" y="19"/>
      <point x="123" y="40"/>
      <point x="103" y="54" type="curve" smooth="yes"/>
      <point x="90" y="63"/>
      <point x="78" y="68"/>
      <point x="66" y="68" type="curve" smooth="yes"/>
      <point x="53" y="68"/>
      <point x="45" y="59"/>
      <point x="41" y="53" type="curve" smooth="yes"/>
      <point x="39" y="50"/>
      <point x="39" y="46"/>
      <point x="39" y="44" type="curve" smooth="yes"/>
      <point x="39" y="14"/>
      <point x="128" y="-7"/>
    </contour>
  </outline>
</glyph>
<glyph name="four" format="1">
  <advance width="480"/>
  <unicode hex="0034"/>
  <outline>
    <contour>
      <point x="276" y="318" type="curve"/>
      <point x="276" y="516" type="line"/>
      <point x="228" y="452"/>
      <point x="167" y="371"/>
      <point x="121" y="319" type="curve"/>
      <point x="151" y="319"/>
      <point x="189" y="319"/>
      <point x="219" y="319" type="curve" smooth="yes"/>
      <point x="243" y="319"/>
      <point x="257" y="319"/>
    </contour>
    <contour>
      <point x="36" y="301" type="curve"/>
      <point x="80" y="355"/>
      <point x="125" y="408"/>
      <point x="170" y="461" type="curve" smooth="yes"/>
      <point x="220" y="520"/>
      <point x="269" y="578"/>
      <point x="309" y="638" type="curve" smooth="yes"/>
      <point x="310" y="639"/>
      <point x="311" y="640"/>
      <point x="315" y="641" type="curve" smooth="yes"/>
      <point x="320" y="642"/>
      <point x="332" y="642"/>
      <point x="340" y="642" type="curve" smooth="yes"/>
      <point x="351" y="642"/>
      <point x="361" y="636"/>
      <point x="361" y="621" type="curve" smooth="yes"/>
      <point x="361" y="319" type="line"/>
      <point x="400" y="319"/>
      <point x="410" y="321"/>
      <point x="440" y="328" type="curve"/>
      <point x="437" y="317"/>
      <point x="436" y="308"/>
      <point x="436" y="299" type="curve" smooth="yes"/>
      <point x="436" y="288"/>
      <point x="437" y="279"/>
      <point x="439" y="271" type="curve"/>
      <point x="359" y="271" type="line"/>
      <point x="359" y="15" type="line" smooth="yes"/>
      <point x="359" y="9"/>
      <point x="356" y="0"/>
      <point x="346" y="0" type="curve" smooth="yes"/>
      <point x="294" y="0" type="line" smooth="yes"/>
      <point x="284" y="0"/>
      <point x="279" y="7"/>
      <point x="279" y="13" type="curve" smooth="yes"/>
      <point x="279" y="271" type="line"/>
      <point x="45" y="271" type="line" smooth="yes"/>
      <point x="38" y="271"/>
      <point x="30" y="276"/>
      <point x="30" y="285" type="curve" smooth="yes"/>
      <point x="30" y="291"/>
      <point x="32" y="297"/>
    </contour>
  </outline>
</glyph>
<glyph name="five" format="1">
  <advance width="480"/>
  <unicode hex="0035"/>
  <outline>
    <contour>
      <point x="410" y="618" type="curve" smooth="yes"/>
      <point x="417" y="618"/>
      <point x="429" y="616"/>
      <point x="429" y="604" type="curve" smooth="yes"/>
      <point x="429" y="595"/>
      <point x="420" y="569"/>
      <point x="414" y="554" type="curve"/>
      <point x="116" y="554" type="line"/>
      <point x="142" y="598" type="line"/>
      <point x="81" y="335" type="line"/>
      <point x="63" y="364" type="line"/>
      <point x="115" y="395"/>
      <point x="171" y="410"/>
      <point x="226" y="410" type="curve" smooth="yes"/>
      <point x="346" y="410"/>
      <point x="433" y="336"/>
      <point x="433" y="210" type="curve" smooth="yes"/>
      <point x="433" y="100"/>
      <point x="339" y="-5"/>
      <point x="205" y="-5" type="curve" smooth="yes"/>
      <point x="157" y="-5"/>
      <point x="90" y="3"/>
      <point x="39" y="55" type="curve"/>
      <point x="36" y="59"/>
      <point x="34" y="64"/>
      <point x="34" y="68" type="curve" smooth="yes"/>
      <point x="34" y="74"/>
      <point x="41" y="79"/>
      <point x="45" y="79" type="curve" smooth="yes"/>
      <point x="48" y="79"/>
      <point x="52" y="78"/>
      <point x="55" y="75" type="curve"/>
      <point x="85" y="45"/>
      <point x="156" y="33"/>
      <point x="197" y="33" type="curve" smooth="yes"/>
      <point x="306" y="33"/>
      <point x="361" y="124"/>
      <point x="361" y="190" type="curve" smooth="yes"/>
      <point x="361" y="269"/>
      <point x="311" y="337"/>
      <point x="206" y="337" type="curve" smooth="yes"/>
      <point x="156" y="337"/>
      <point x="86" y="315"/>
      <point x="29" y="279" type="curve"/>
      <point x="110" y="611" type="line"/>
      <point x="348" y="611" type="line" smooth="yes"/>
      <point x="360" y="611"/>
      <point x="372" y="613"/>
      <point x="384" y="615" type="curve" smooth="yes"/>
      <point x="390" y="616"/>
      <point x="402" y="618"/>
    </contour>
  </outline>
</glyph>
<glyph name="six" format="1">
  <advance width="480"/>
  <unicode hex="0036"/>
  <outline>
    <contour>
      <point x="243" y="-8" type="curve" smooth="yes"/>
      <point x="380" y="-8"/>
      <point x="457" y="95"/>
      <point x="457" y="207" type="curve" smooth="yes"/>
      <point x="457" y="354"/>
      <point x="354" y="399"/>
      <point x="282" y="399" type="curve" smooth="yes"/>
      <point x="204" y="399"/>
      <point x="169" y="353"/>
      <point x="149" y="326" type="curve"/>
      <point x="146" y="322"/>
      <point x="145" y="318"/>
      <point x="145" y="313" type="curve" smooth="yes"/>
      <point x="145" y="308"/>
      <point x="147" y="298"/>
      <point x="157" y="298" type="curve" smooth="yes"/>
      <point x="161" y="298"/>
      <point x="166" y="300"/>
      <point x="171" y="305" type="curve" smooth="yes"/>
      <point x="187" y="323"/>
      <point x="212" y="349"/>
      <point x="259" y="349" type="curve" smooth="yes"/>
      <point x="325" y="349"/>
      <point x="380" y="301"/>
      <point x="380" y="195" type="curve" smooth="yes"/>
      <point x="380" y="90"/>
      <point x="334" y="21"/>
      <point x="244" y="21" type="curve" smooth="yes"/>
      <point x="145" y="21"/>
      <point x="109" y="158"/>
      <point x="109" y="257" type="curve" smooth="yes"/>
      <point x="109" y="365"/>
      <point x="148" y="472"/>
      <point x="243" y="534" type="curve" smooth="yes"/>
      <point x="295" y="568"/>
      <point x="345" y="587"/>
      <point x="380" y="597" type="curve" smooth="yes"/>
      <point x="390" y="600"/>
      <point x="393" y="608"/>
      <point x="393" y="615" type="curve" smooth="yes"/>
      <point x="393" y="625"/>
      <point x="390" y="632"/>
      <point x="387" y="638" type="curve"/>
      <point x="382" y="637" type="line" smooth="yes"/>
      <point x="331" y="627"/>
      <point x="236" y="597"/>
      <point x="178" y="556" type="curve" smooth="yes"/>
      <point x="107" y="506"/>
      <point x="24" y="410"/>
      <point x="24" y="252" type="curve" smooth="yes"/>
      <point x="24" y="115"/>
      <point x="113" y="-8"/>
    </contour>
  </outline>
</glyph>
<glyph name="seven" format="1">
  <advance width="480"/>
  <unicode hex="0037"/>
  <outline>
    <contour>
      <point x="98" y="0" type="curve"/>
      <point x="174" y="0" type="line"/>
      <point x="192" y="110"/>
      <point x="250" y="249"/>
      <point x="320" y="386" type="curve" smooth="yes"/>
      <point x="358" y="460"/>
      <point x="406" y="540"/>
      <point x="443" y="600" type="curve" smooth="yes"/>
      <point x="446" y="605"/>
      <point x="446" y="610"/>
      <point x="446" y="614" type="curve" smooth="yes"/>
      <point x="446" y="619"/>
      <point x="442" y="622"/>
      <point x="434" y="622" type="curve" smooth="yes"/>
      <point x="81" y="622" type="line" smooth="yes"/>
      <point x="71" y="622"/>
      <point x="69" y="615"/>
      <point x="67" y="608" type="curve" smooth="yes"/>
      <point x="64" y="597"/>
      <point x="56" y="561"/>
      <point x="56" y="551" type="curve" smooth="yes"/>
      <point x="56" y="547"/>
      <point x="66" y="543"/>
      <point x="72" y="542" type="curve"/>
      <point x="74" y="546"/>
      <point x="80" y="558"/>
      <point x="96" y="558" type="curve" smooth="yes"/>
      <point x="364" y="558" type="line"/>
      <point x="252" y="408"/>
      <point x="123" y="165"/>
    </contour>
  </outline>
</glyph>
<glyph name="eight" format="1">
  <advance width="480"/>
  <unicode hex="0038"/>
  <outline>
    <contour>
      <point x="118" y="154" type="curve" smooth="yes"/>
      <point x="118" y="71.4863"/>
      <point x="167.716" y="20"/>
      <point x="244.272" y="20" type="curve" smooth="yes"/>
      <point x="319.126" y="20"/>
      <point x="372" y="88.7324"/>
      <point x="372" y="149" type="curve" smooth="yes"/>
      <point x="372" y="214.286"/>
      <point x="299.775" y="278.722"/>
      <point x="224.956" y="323.278" type="curve"/>
      <point x="148.992" y="261.599"/>
      <point x="118" y="226.119"/>
    </contour>
    <contour>
      <point x="144" y="514" type="curve" smooth="yes"/>
      <point x="144" y="445.163"/>
      <point x="191.346" y="428.355"/>
      <point x="249.21" y="392.05" type="curve"/>
      <point x="287.974" y="426.918"/>
      <point x="348" y="466.781"/>
      <point x="348" y="511" type="curve" smooth="yes"/>
      <point x="348" y="556.678"/>
      <point x="308.907" y="619"/>
      <point x="244.272" y="619" type="curve" smooth="yes"/>
      <point x="159.307" y="619"/>
      <point x="144" y="557.396"/>
    </contour>
    <contour>
      <point x="413" y="513.779" type="curve" smooth="yes"/>
      <point x="413" y="449.196"/>
      <point x="334.373" y="402.048"/>
      <point x="288.516" y="366.468" type="curve"/>
      <point x="372.285" y="306.949"/>
      <point x="445" y="247.122"/>
      <point x="445" y="146.674" type="curve" smooth="yes"/>
      <point x="445" y="76.2744"/>
      <point x="362.197" y="-8"/>
      <point x="243.182" y="-8" type="curve" smooth="yes"/>
      <point x="143.981" y="-8"/>
      <point x="37" y="51.0088"/>
      <point x="37" y="149.61" type="curve" smooth="yes"/>
      <point x="37" y="228.72"/>
      <point x="101.25" y="280.471"/>
      <point x="179.244" y="340.187" type="curve"/>
      <point x="121.35" y="385.062"/>
      <point x="69" y="427.857"/>
      <point x="69" y="517.737" type="curve" smooth="yes"/>
      <point x="69" y="564.459"/>
      <point x="107.382" y="643"/>
      <point x="244.272" y="643" type="curve" smooth="yes"/>
      <point x="333.469" y="643"/>
      <point x="413" y="587.563"/>
    </contour>
  </outline>
</glyph>
<glyph name="nine" format="1">
  <advance width="480"/>
  <unicode hex="0039"/>
  <outline>
    <contour>
      <point x="97.9082" y="6.59473" type="curve" smooth="yes"/>
      <point x="97.9082" y="13.9043"/>
      <point x="102.551" y="21.1904"/>
      <point x="111.905" y="23.8799" type="curve" smooth="yes"/>
      <point x="143.407" y="34.1465"/>
      <point x="188.186" y="58.21"/>
      <point x="238.622" y="94.1387" type="curve"/>
      <point x="334.039" y="159.376"/>
      <point x="379" y="256.771"/>
      <point x="379" y="387.179" type="curve" smooth="yes"/>
      <point x="379" y="520.062"/>
      <point x="333.506" y="612"/>
      <point x="225.954" y="612" type="curve" smooth="yes"/>
      <point x="154.375" y="612"/>
      <point x="101" y="556.327"/>
      <point x="101" y="457.396" type="curve" smooth="yes"/>
      <point x="101" y="364.255"/>
      <point x="152.274" y="291.267"/>
      <point x="210.114" y="291.267" type="curve" smooth="yes"/>
      <point x="266.262" y="291.267"/>
      <point x="306.917" y="322.31"/>
      <point x="326.005" y="343.511" type="curve" smooth="yes"/>
      <point x="326.128" y="343.648" type="line"/>
      <point x="326.26" y="343.778" type="line" smooth="yes"/>
      <point x="330.427" y="348.007"/>
      <point x="334.831" y="350.932"/>
      <point x="339.964" y="350.932" type="curve" smooth="yes"/>
      <point x="345.728" y="350.932"/>
      <point x="351.647" y="346.146"/>
      <point x="351.647" y="339.382" type="curve" smooth="yes"/>
      <point x="351.647" y="333.793"/>
      <point x="349.333" y="328.688"/>
      <point x="346.347" y="324.207" type="curve"/>
      <point x="324.825" y="293.192"/>
      <point x="284.434" y="246"/>
      <point x="195.701" y="246" type="curve" smooth="yes"/>
      <point x="125.994" y="246"/>
      <point x="31" y="299.489"/>
      <point x="31" y="445.465" type="curve" smooth="yes"/>
      <point x="31" y="559.444"/>
      <point x="124.249" y="641"/>
      <point x="227.034" y="641" type="curve" smooth="yes"/>
      <point x="370.303" y="641"/>
      <point x="449" y="553.359"/>
      <point x="449" y="379.581" type="curve" smooth="yes"/>
      <point x="449" y="200.604"/>
      <point x="362.676" y="125.78"/>
      <point x="294.453" y="73.666" type="curve"/>
      <point x="239.365" y="33.7295"/>
      <point x="157.151" y="3.33496"/>
      <point x="108.767" y="-8.77344" type="curve" smooth="yes"/>
      <point x="103.316" y="-10.1953" type="line"/>
      <point x="100.629" y="-4.91406"/>
      <point x="97.9082" y="-0.146484"/>
    </contour>
  </outline>
</glyph>
<glyph name="colon" format="1">
  <advance width="228"/>
  <unicode hex="003A"/>
  <outline>
    <contour>
      <point x="54" y="40" type="curve" smooth="yes"/>
      <point x="54" y="72"/>
      <point x="80" y="98"/>
      <point x="113" y="98" type="curve" smooth="yes"/>
      <point x="145" y="98"/>
      <point x="171" y="72"/>
      <point x="171" y="40" type="curve" smooth="yes"/>
      <point x="171" y="8"/>
      <point x="145" y="-18"/>
      <point x="113" y="-18" type="curve" smooth="yes"/>
      <point x="80" y="-18"/>
      <point x="54" y="8"/>
    </contour>
    <contour>
      <point x="54" y="406" type="curve" smooth="yes"/>
      <point x="54" y="438"/>
      <point x="80" y="464"/>
      <point x="113" y="464" type="curve" smooth="yes"/>
      <point x="145" y="464"/>
      <point x="171" y="438"/>
      <point x="171" y="406" type="curve" smooth="yes"/>
      <point x="171" y="373"/>
      <point x="145" y="348"/>
      <point x="113" y="348" type="curve" smooth="yes"/>
      <point x="80" y="348"/>
      <point x="54" y="373"/>
    </contour>
  </outline>
</glyph>
<glyph name="semicolon" format="1">
  <advance width="238"/>
  <unicode hex="003B"/>
  <outline>
    <contour>
      <point x="61" y="406" type="curve" smooth="yes"/>
      <point x="61" y="437.943"/>
      <point x="87.2241" y="464"/>
      <point x="120" y="464" type="curve" smooth="yes"/>
      <point x="151.881" y="464"/>
      <point x="178" y="437.881"/>
      <point x="178" y="406" type="curve" smooth="yes"/>
      <point x="178" y="373.095"/>
      <point x="151.759" y="348"/>
      <point x="120" y="348" type="curve" smooth="yes"/>
      <point x="87.3457" y="348"/>
      <point x="61" y="373.033"/>
    </contour>
    <contour>
      <point x="61" y="38" type="curve" smooth="yes"/>
      <point x="61" y="70.3835"/>
      <point x="91.3653" y="98"/>
      <point x="124" y="98" type="curve" smooth="yes"/>
      <point x="157.976" y="98"/>
      <point x="183" y="69.884"/>
      <point x="183" y="41" type="curve" smooth="yes"/>
      <point x="183" y="40" type="line" smooth="yes"/>
      <point x="183" y="-53.4511"/>
      <point x="138.495" y="-84"/>
      <point x="59.0367" y="-84" type="curve"/>
      <point x="44.6367" y="-60" type="line"/>
      <point x="65.7375" y="-60"/>
      <point x="102" y="-52.3073"/>
      <point x="102" y="-27" type="curve" smooth="yes"/>
      <point x="102" y="-23.5962"/>
      <point x="100.398" y="-20.2979"/>
      <point x="96.1209" y="-16.0204" type="curve"/>
      <point x="80.0253" y="-0.818976"/>
      <point x="61" y="6.41484"/>
    </contour>
  </outline>
</glyph>
<glyph name="less" format="1">
  <advance width="490"/>
  <unicode hex="003C"/>
  <outline>
    <contour>
      <point x="440" y="86" type="line"/>
      <point x="440" y="170" type="line"/>
      <point x="133" y="346" type="line"/>
      <point x="133" y="301" type="line"/>
      <point x="440" y="479" type="line"/>
      <point x="440" y="559" type="line"/>
      <point x="50" y="337" type="line"/>
      <point x="50" y="307" type="line"/>
    </contour>
  </outline>
</glyph>
<glyph name="equal" format="1">
  <advance width="401"/>
  <unicode hex="003D"/>
  <outline>
    <contour>
      <point x="81" y="319" type="line"/>
      <point x="69" y="323"/>
      <point x="67" y="339"/>
      <point x="67" y="350" type="curve" smooth="yes"/>
      <point x="67" y="360"/>
      <point x="69" y="377"/>
      <point x="83" y="377" type="curve"/>
      <point x="320" y="377" type="line"/>
      <point x="335" y="377"/>
      <point x="335" y="355"/>
      <point x="335" y="347" type="curve" smooth="yes"/>
      <point x="335" y="340"/>
      <point x="334" y="319"/>
      <point x="320" y="319" type="curve"/>
    </contour>
    <contour>
      <point x="81" y="219" type="line"/>
      <point x="69" y="223"/>
      <point x="67" y="239"/>
      <point x="67" y="250" type="curve" smooth="yes"/>
      <point x="67" y="260"/>
      <point x="69" y="277"/>
      <point x="83" y="277" type="curve"/>
      <point x="320" y="277" type="line"/>
      <point x="335" y="277"/>
      <point x="335" y="255"/>
      <point x="335" y="247" type="curve" smooth="yes"/>
      <point x="335" y="240"/>
      <point x="334" y="219"/>
      <point x="320" y="219" type="curve"/>
    </contour>
  </outline>
</glyph>
<glyph name="greater" format="1">
  <advance width="484"/>
  <unicode hex="003E"/>
  <outline>
    <contour>
      <point x="317.792" y="324" type="line"/>
      <point x="44" y="481.957" type="line"/>
      <point x="44" y="562.016" type="line"/>
      <point x="446" y="334.078" type="line"/>
      <point x="446" y="309.922" type="line"/>
      <point x="44" y="81.984" type="line"/>
      <point x="44" y="166.043" type="line"/>
    </contour>
  </outline>
</glyph>
<glyph name="question" format="1">
  <advance width="462"/>
  <unicode hex="003F"/>
  <outline>
    <contour>
      <point x="197" y="198" type="curve"/>
      <point x="257" y="198" type="line"/>
      <point x="257" y="217"/>
      <point x="258" y="301"/>
      <point x="261" y="344" type="curve" smooth="yes"/>
      <point x="262" y="355"/>
      <point x="296" y="395"/>
      <point x="332" y="420" type="curve" smooth="yes"/>
      <point x="391" y="460"/>
      <point x="425" y="484"/>
      <point x="425" y="563" type="curve" smooth="yes"/>
      <point x="425" y="677"/>
      <point x="325" y="736"/>
      <point x="237" y="736" type="curve" smooth="yes"/>
      <point x="160" y="736"/>
      <point x="56" y="688"/>
      <point x="56" y="629" type="curve" smooth="yes"/>
      <point x="56" y="606"/>
      <point x="69" y="588"/>
      <point x="91" y="588" type="curve" smooth="yes"/>
      <point x="111" y="588"/>
      <point x="130" y="604"/>
      <point x="135" y="630" type="curve" smooth="yes"/>
      <point x="139" y="649"/>
      <point x="173" y="699"/>
      <point x="233" y="699" type="curve" smooth="yes"/>
      <point x="304" y="699"/>
      <point x="364" y="649"/>
      <point x="364" y="587" type="curve" smooth="yes"/>
      <point x="364" y="537"/>
      <point x="334" y="513"/>
      <point x="290" y="478" type="curve" smooth="yes"/>
      <point x="284" y="473"/>
      <point x="278" y="468"/>
      <point x="271" y="463" type="curve" smooth="yes"/>
      <point x="250" y="446"/>
      <point x="223" y="423"/>
      <point x="206" y="402" type="curve" smooth="yes"/>
      <point x="190" y="383"/>
      <point x="180" y="359"/>
      <point x="180" y="336" type="curve" smooth="yes"/>
      <point x="180" y="306"/>
      <point x="186" y="261"/>
    </contour>
    <contour>
      <point x="230" y="-11" type="curve" smooth="yes"/>
      <point x="262" y="-11"/>
      <point x="288" y="15"/>
      <point x="288" y="47" type="curve" smooth="yes"/>
      <point x="288" y="79"/>
      <point x="262" y="105"/>
      <point x="230" y="105" type="curve" smooth="yes"/>
      <point x="198" y="105"/>
      <point x="171" y="79"/>
      <point x="171" y="47" type="curve" smooth="yes"/>
      <point x="171" y="15"/>
      <point x="198" y="-11"/>
    </contour>
  </outline>
</glyph>
<glyph name="at" format="1">
  <advance width="766"/>
  <unicode hex="0040"/>
  <outline>
    <contour>
      <point x="396" y="-67" type="curve" smooth="yes"/>
      <point x="538" y="-67"/>
      <point x="609" y="-10"/>
      <point x="643" y="24" type="curve" smooth="yes"/>
      <point x="646" y="27"/>
      <point x="648" y="29"/>
      <point x="648" y="33" type="curve" smooth="yes"/>
      <point x="648" y="40"/>
      <point x="641" y="47"/>
      <point x="636" y="47" type="curve" smooth="yes"/>
      <point x="633" y="47" type="line"/>
      <point x="631" y="45" type="line" smooth="yes"/>
      <point x="599" y="16"/>
      <point x="509" y="-27"/>
      <point x="396" y="-27" type="curve" smooth="yes"/>
      <point x="286" y="-27"/>
      <point x="152" y="38"/>
      <point x="152" y="211" type="curve" smooth="yes"/>
      <point x="152" y="374"/>
      <point x="267" y="474"/>
      <point x="410" y="474" type="curve" smooth="yes"/>
      <point x="556" y="474"/>
      <point x="653" y="386"/>
      <point x="653" y="253" type="curve" smooth="yes"/>
      <point x="653" y="181"/>
      <point x="610" y="105"/>
      <point x="564" y="105" type="curve" smooth="yes"/>
      <point x="537" y="105"/>
      <point x="521" y="118"/>
      <point x="519" y="131" type="curve"/>
      <point x="550" y="294" type="line"/>
      <point x="556" y="327"/>
      <point x="561" y="352"/>
      <point x="568" y="370" type="curve" smooth="yes"/>
      <point x="570" y="375" type="line"/>
      <point x="567" y="378" type="line" smooth="yes"/>
      <point x="560" y="385"/>
      <point x="551" y="391"/>
      <point x="537" y="391" type="curve" smooth="yes"/>
      <point x="534" y="391" type="line"/>
      <point x="532" y="389" type="line" smooth="yes"/>
      <point x="529" y="385"/>
      <point x="521" y="379"/>
      <point x="514" y="379" type="curve" smooth="yes"/>
      <point x="512" y="379"/>
      <point x="506" y="380"/>
      <point x="498" y="382" type="curve" smooth="yes"/>
      <point x="483" y="385"/>
      <point x="457" y="390"/>
      <point x="437" y="390" type="curve" smooth="yes"/>
      <point x="347" y="390"/>
      <point x="222" y="325"/>
      <point x="222" y="180" type="curve" smooth="yes"/>
      <point x="222" y="107"/>
      <point x="280" y="56"/>
      <point x="359" y="56" type="curve" smooth="yes"/>
      <point x="400" y="56"/>
      <point x="431" y="75"/>
      <point x="446" y="85" type="curve" smooth="yes"/>
      <point x="451" y="88"/>
      <point x="455" y="90"/>
      <point x="458" y="91" type="curve"/>
      <point x="461" y="86"/>
      <point x="493" y="60"/>
      <point x="524" y="60" type="curve" smooth="yes"/>
      <point x="652" y="60"/>
      <point x="724" y="144"/>
      <point x="724" y="256" type="curve" smooth="yes"/>
      <point x="724" y="419"/>
      <point x="572" y="510"/>
      <point x="427" y="510" type="curve" smooth="yes"/>
      <point x="211" y="510"/>
      <point x="69" y="382"/>
      <point x="69" y="211" type="curve" smooth="yes"/>
      <point x="69" y="1"/>
      <point x="270" y="-67"/>
    </contour>
    <contour>
      <point x="386" y="100" type="curve" smooth="yes"/>
      <point x="326" y="100"/>
      <point x="297" y="163"/>
      <point x="297" y="199" type="curve" smooth="yes"/>
      <point x="297" y="287"/>
      <point x="360" y="354"/>
      <point x="428" y="354" type="curve" smooth="yes"/>
      <point x="461" y="354"/>
      <point x="494" y="333"/>
      <point x="494" y="299" type="curve"/>
      <point x="462" y="159" type="line"/>
      <point x="456" y="135"/>
      <point x="442" y="100"/>
    </contour>
  </outline>
</glyph>
<glyph name="A" format="1">
  <advance width="805"/>
  <unicode hex="0041"/>
  <outline>
    <contour>
      <point x="50" y="0" type="line"/>
      <point x="213" y="0" type="line"/>
      <point x="213" y="20" type="line"/>
      <point x="206" y="20" type="line"/>
      <point x="186" y="20"/>
      <point x="163" y="30"/>
      <point x="163" y="49" type="curve" smooth="yes"/>
      <point x="163" y="56"/>
      <point x="166" y="64"/>
      <point x="171" y="77" type="curve"/>
      <point x="261" y="296" type="line"/>
      <point x="264" y="302"/>
      <point x="266" y="305"/>
      <point x="274" y="305" type="curve"/>
      <point x="492" y="305" type="line"/>
      <point x="497" y="305"/>
      <point x="500" y="302"/>
      <point x="501" y="299" type="curve"/>
      <point x="596" y="70" type="line"/>
      <point x="599" y="63"/>
      <point x="600" y="57"/>
      <point x="600" y="52" type="curve" smooth="yes"/>
      <point x="600" y="34"/>
      <point x="581" y="20"/>
      <point x="547" y="20" type="curve"/>
      <point x="547" y="0" type="line"/>
      <point x="752" y="0" type="line"/>
      <point x="752" y="20" type="line"/>
      <point x="729" y="20"/>
      <point x="715" y="26"/>
      <point x="707" y="46" type="curve"/>
      <point x="424" y="733" type="line"/>
      <point x="416" y="725"/>
      <point x="407" y="721"/>
      <point x="400" y="719" type="curve"/>
      <point x="393" y="717"/>
      <point x="384" y="712"/>
      <point x="378" y="707" type="curve"/>
      <point x="106" y="66" type="line"/>
      <point x="94" y="37"/>
      <point x="80" y="20"/>
      <point x="50" y="20" type="curve"/>
    </contour>
    <contour>
      <point x="291" y="347" type="line"/>
      <point x="287" y="347"/>
      <point x="284" y="348"/>
      <point x="284" y="351" type="curve" smooth="yes"/>
      <point x="284" y="353"/>
      <point x="286" y="357"/>
      <point x="287" y="359" type="curve"/>
      <point x="399" y="627" type="line"/>
      <point x="365" y="627" type="line"/>
      <point x="476" y="357" type="line"/>
      <point x="477" y="355"/>
      <point x="478" y="353"/>
      <point x="478" y="352" type="curve" smooth="yes"/>
      <point x="478" y="349"/>
      <point x="476" y="347"/>
      <point x="471" y="347" type="curve"/>
    </contour>
    <contour>
      <point x="385" y="-12" type="move" name="bottom"/>
    </contour>
    <contour>
      <point x="399" y="733" type="move" name="top"/>
    </contour>
  </outline>
</glyph>
<glyph name="B" format="1">
  <advance width="629"/>
  <unicode hex="0042"/>
  <outline>
    <contour>
      <point x="350" y="-2" type="curve" smooth="yes"/>
      <point x="472" y="-2"/>
      <point x="580" y="49"/>
      <point x="580" y="189" type="curve" smooth="yes"/>
      <point x="580" y="308"/>
      <point x="484" y="374"/>
      <point x="396" y="391" type="curve"/>
      <point x="477" y="416"/>
      <point x="539" y="472"/>
      <point x="539" y="550" type="curve" smooth="yes"/>
      <point x="539" y="658"/>
      <point x="436" y="734"/>
      <point x="284" y="734" type="curve" smooth="yes"/>
      <point x="250" y="734"/>
      <point x="217" y="734"/>
      <point x="183" y="732" type="curve" smooth="yes"/>
      <point x="151" y="730"/>
      <point x="119" y="730"/>
      <point x="87" y="730" type="curve" smooth="yes"/>
      <point x="76" y="730"/>
      <point x="65" y="730"/>
      <point x="54" y="730" type="curve"/>
      <point x="54" y="710" type="line"/>
      <point x="87" y="710"/>
      <point x="105" y="694"/>
      <point x="106" y="670" type="curve" smooth="yes"/>
      <point x="110" y="584"/>
      <point x="110" y="489"/>
      <point x="110" y="402" type="curve"/>
      <point x="110" y="287"/>
      <point x="112" y="178"/>
      <point x="106" y="56" type="curve" smooth="yes"/>
      <point x="105" y="34"/>
      <point x="80" y="21"/>
      <point x="54" y="20" type="curve"/>
      <point x="54" y="0" type="line"/>
      <point x="141" y="0" type="line"/>
      <point x="177" y="0"/>
      <point x="210" y="0"/>
      <point x="246" y="-1" type="curve" smooth="yes"/>
      <point x="279" y="-2"/>
      <point x="313" y="-2"/>
    </contour>
    <contour>
      <point x="270" y="28" type="curve"/>
      <point x="253" y="28"/>
      <point x="236" y="28"/>
      <point x="223" y="29" type="curve"/>
      <point x="211" y="29"/>
      <point x="203" y="39"/>
      <point x="203" y="57" type="curve" smooth="yes"/>
      <point x="200" y="168"/>
      <point x="200" y="278"/>
      <point x="200" y="389" type="curve"/>
      <point x="200" y="678" type="line"/>
      <point x="200" y="686"/>
      <point x="201" y="696"/>
      <point x="211" y="698" type="curve" smooth="yes"/>
      <point x="216" y="699"/>
      <point x="257" y="700"/>
      <point x="273" y="700" type="curve"/>
      <point x="392" y="700"/>
      <point x="449" y="638"/>
      <point x="449" y="549" type="curve" smooth="yes"/>
      <point x="449" y="462"/>
      <point x="361" y="397"/>
      <point x="240" y="397" type="curve"/>
      <point x="224" y="397"/>
      <point x="210" y="397"/>
      <point x="191" y="398" type="curve"/>
      <point x="184" y="355" type="line"/>
      <point x="205" y="357"/>
      <point x="245" y="358"/>
      <point x="274" y="358" type="curve"/>
      <point x="400" y="357"/>
      <point x="482" y="308"/>
      <point x="482" y="198" type="curve" smooth="yes"/>
      <point x="482" y="106"/>
      <point x="442" y="28"/>
    </contour>
  </outline>
</glyph>
<glyph name="C" format="1">
  <advance width="789"/>
  <unicode hex="0043"/>
  <outline>
    <contour>
      <point x="414" y="-10" type="curve" smooth="yes"/>
      <point x="654" y="-10"/>
      <point x="723" y="178"/>
      <point x="723" y="183" type="curve"/>
      <point x="694" y="190" type="line"/>
      <point x="688" y="175"/>
      <point x="597" y="36"/>
      <point x="422" y="36" type="curve" smooth="yes"/>
      <point x="349" y="36"/>
      <point x="158" y="63"/>
      <point x="158" y="385" type="curve" smooth="yes"/>
      <point x="158" y="520"/>
      <point x="230" y="701"/>
      <point x="419" y="701" type="curve" smooth="yes"/>
      <point x="588" y="701"/>
      <point x="670" y="562"/>
      <point x="695" y="463" type="curve" smooth="yes"/>
      <point x="697" y="455"/>
      <point x="701" y="453"/>
      <point x="706" y="453" type="curve" smooth="yes"/>
      <point x="712" y="453"/>
      <point x="716" y="460"/>
      <point x="717" y="465" type="curve"/>
      <point x="710" y="665" type="line" smooth="yes"/>
      <point x="710" y="677"/>
      <point x="704" y="683"/>
      <point x="698" y="683" type="curve" smooth="yes"/>
      <point x="690" y="683"/>
      <point x="687" y="677"/>
      <point x="684" y="671" type="curve" smooth="yes"/>
      <point x="680" y="664"/>
      <point x="675" y="657"/>
      <point x="666" y="657" type="curve" smooth="yes"/>
      <point x="657" y="657"/>
      <point x="644" y="664"/>
      <point x="621" y="681" type="curve" smooth="yes"/>
      <point x="584" y="709"/>
      <point x="525" y="742"/>
      <point x="433" y="742" type="curve" smooth="yes"/>
      <point x="163" y="742"/>
      <point x="55" y="552"/>
      <point x="55" y="352" type="curve" smooth="yes"/>
      <point x="55" y="54"/>
      <point x="295" y="-10"/>
    </contour>
    <contour>
      <point x="410" y="730" type="move" name="top"/>
    </contour>
  </outline>
</glyph>
<glyph name="D" format="1">
  <advance width="804"/>
  <unicode hex="0044"/>
  <outline>
    <contour>
      <point x="106.064" y="676.517" type="curve"/>
      <point x="106.064" y="684.807"/>
      <point x="99.9346" y="705.555"/>
      <point x="83.8057" y="708.757" type="curve" smooth="yes"/>
      <point x="74.1553" y="710.674"/>
      <point x="64.6826" y="710.971"/>
      <point x="53.8232" y="711.112" type="curve"/>
      <point x="53.8232" y="730.335" type="line"/>
      <point x="102.39" y="730.335"/>
      <point x="146.264" y="730.178"/>
      <point x="197.867" y="730.178" type="curve" smooth="yes"/>
      <point x="254.219" y="730.547"/>
      <point x="303.883" y="731.01"/>
      <point x="357.812" y="731.01" type="curve" smooth="yes"/>
      <point x="559.204" y="731.01"/>
      <point x="737" y="606.153"/>
      <point x="737" y="362.813" type="curve" smooth="yes"/>
      <point x="737" y="123.631"/>
      <point x="578.927" y="-2.53027"/>
      <point x="344.913" y="-2.53027" type="curve" smooth="yes"/>
      <point x="301.483" y="-2.53027"/>
      <point x="239.504" y="0"/>
      <point x="182.915" y="0" type="curve" smooth="yes"/>
      <point x="53.8213" y="0" type="line"/>
      <point x="53.8213" y="19.292" type="line"/>
      <point x="60.7275" y="19.3838" type="line" smooth="yes"/>
      <point x="68.6738" y="19.4883"/>
      <point x="76.3545" y="20.1689"/>
      <point x="83.8018" y="21.6494" type="curve" smooth="yes"/>
      <point x="99.9971" y="24.8691"/>
      <point x="106.062" y="45.3447"/>
      <point x="106.062" y="53.7695" type="curve"/>
      <point x="107.736" y="171.308"/>
      <point x="108.938" y="285.309"/>
      <point x="108.938" y="401.307" type="curve" smooth="yes"/>
      <point x="108.938" y="493.317"/>
      <point x="108.13" y="583.538"/>
    </contour>
    <contour>
      <point x="203.567" y="685.107" type="curve" smooth="yes"/>
      <point x="203.568" y="672.106" type="line" smooth="yes"/>
      <point x="203.568" y="466.962"/>
      <point x="202.535" y="56.7109"/>
      <point x="202.535" y="56.708" type="curve"/>
      <point x="202.535" y="56.708"/>
      <point x="205.129" y="34.1738"/>
      <point x="213.082" y="33.4834" type="curve" smooth="yes"/>
      <point x="250.281" y="33.5703"/>
      <point x="283.741" y="34.1582"/>
      <point x="320.89" y="34.1582" type="curve" smooth="yes"/>
      <point x="556.525" y="34.1582"/>
      <point x="635.35" y="192.461"/>
      <point x="635.35" y="352.928" type="curve" smooth="yes"/>
      <point x="635.35" y="612.836"/>
      <point x="487.2" y="691.54"/>
      <point x="317.236" y="691.54" type="curve" smooth="yes"/>
      <point x="306.964" y="691.54"/>
      <point x="264.831" y="692.018"/>
      <point x="245.257" y="692.018" type="curve" smooth="yes"/>
      <point x="235.04" y="692.018"/>
      <point x="209.054" y="691.571"/>
      <point x="208.814" y="691.57" type="curve"/>
      <point x="204.531" y="691.51"/>
      <point x="203.567" y="687.698"/>
    </contour>
  </outline>
</glyph>
<glyph name="E" format="1">
  <advance width="604"/>
  <unicode hex="0045"/>
  <outline>
    <contour>
      <point x="402.475" y="371.61" type="curve"/>
      <point x="370.276" y="374.612"/>
      <point x="340.795" y="378"/>
      <point x="305.814" y="378" type="curve" smooth="yes"/>
      <point x="274.181" y="378"/>
      <point x="233.108" y="375.332"/>
      <point x="204.216" y="373.044" type="curve"/>
      <point x="207.663" y="61.0156" type="line"/>
      <point x="207.663" y="50.832"/>
      <point x="214.134" y="30.0996"/>
      <point x="230.52" y="28.2764" type="curve" smooth="yes"/>
      <point x="250.484" y="26.0557"/>
      <point x="260.761" y="24.9922"/>
      <point x="279.483" y="24.9922" type="curve" smooth="yes"/>
      <point x="344.774" y="24.9922"/>
      <point x="396.924" y="25.8242"/>
      <point x="440.993" y="35.999" type="curve" smooth="yes"/>
      <point x="502.794" y="50.9385"/>
      <point x="525.479" y="91.1159"/>
      <point x="538.23" y="152.671" type="curve"/>
      <point x="557.963" y="154.504" type="line"/>
      <point x="539.201" y="0" type="line"/>
      <point x="57" y="0" type="line"/>
      <point x="57" y="19.3105" type="line"/>
      <point x="69.7588" y="19.4453"/>
      <point x="73.8809" y="19.4404"/>
      <point x="84.9805" y="21.6484" type="curve" smooth="yes"/>
      <point x="101.174" y="24.8682"/>
      <point x="109.138" y="44.7256"/>
      <point x="109.241" y="54.5469" type="curve" smooth="yes"/>
      <point x="109.244" y="54.8262" type="line"/>
      <point x="109.271" y="55.1055" type="line" smooth="yes"/>
      <point x="110.834" y="71.748"/>
      <point x="111.292" y="249.174"/>
      <point x="111.292" y="410.138" type="curve" smooth="yes"/>
      <point x="111.292" y="534.968"/>
      <point x="110.405" y="651.074"/>
      <point x="109.283" y="675.344" type="curve" smooth="yes"/>
      <point x="109.262" y="675.593" type="line"/>
      <point x="109.259" y="675.843" type="line" smooth="yes"/>
      <point x="109.134" y="685.346"/>
      <point x="102.102" y="705.556"/>
      <point x="85.9854" y="708.756" type="curve" smooth="yes"/>
      <point x="76.335" y="710.673"/>
      <point x="67.8623" y="710.969"/>
      <point x="57.0029" y="711.11" type="curve"/>
      <point x="57.0029" y="730.333" type="line"/>
      <point x="126.607" y="730.333"/>
      <point x="188.903" y="730"/>
      <point x="266.9" y="730" type="curve" smooth="yes"/>
      <point x="504.71" y="730" type="line"/>
      <point x="523.472" y="575.496" type="line"/>
      <point x="503.739" y="577.329" type="line"/>
      <point x="490.974" y="638.95"/>
      <point x="467.57" y="674.998"/>
      <point x="404.204" y="694.123" type="curve" smooth="yes"/>
      <point x="370.816" y="704.053"/>
      <point x="332.323" y="705"/>
      <point x="282.126" y="705" type="curve" smooth="yes"/>
      <point x="261.311" y="705"/>
      <point x="251.005" y="704.063"/>
      <point x="230.002" y="701.736" type="curve" smooth="yes"/>
      <point x="215.042" y="700.079"/>
      <point x="207.763" y="681.36"/>
      <point x="207.666" y="674.455" type="curve" smooth="yes"/>
      <point x="204.131" y="415.444" type="line"/>
      <point x="235.579" y="413.256"/>
      <point x="274.816" y="411"/>
      <point x="305.814" y="411" type="curve" smooth="yes"/>
      <point x="344.229" y="411"/>
      <point x="374.908" y="413.881"/>
      <point x="405.755" y="416.588" type="curve"/>
      <point x="425.515" y="421.294"/>
      <point x="431.674" y="445.917"/>
      <point x="434.066" y="469.521" type="curve"/>
      <point x="451.121" y="469.521" type="line"/>
      <point x="451.121" y="318.025" type="line"/>
      <point x="434.066" y="318.025" type="line"/>
      <point x="429.944" y="341.926"/>
      <point x="425.219" y="366.144"/>
    </contour>
  </outline>
</glyph>
<glyph name="F" format="1">
  <advance width="590"/>
  <unicode hex="0046"/>
  <outline>
    <contour>
      <point x="50" y="0" type="line"/>
      <point x="251" y="0" type="line"/>
      <point x="251" y="20" type="line"/>
      <point x="244" y="20" type="line"/>
      <point x="232" y="20"/>
      <point x="227" y="20"/>
      <point x="217" y="24" type="curve" smooth="yes"/>
      <point x="203" y="30"/>
      <point x="199" y="49"/>
      <point x="199" y="58" type="curve" smooth="yes"/>
      <point x="199" y="159"/>
      <point x="199" y="262"/>
      <point x="194" y="374" type="curve"/>
      <point x="199" y="679" type="line"/>
      <point x="199" y="690"/>
      <point x="205" y="699"/>
      <point x="222" y="702" type="curve" smooth="yes"/>
      <point x="242" y="705"/>
      <point x="253" y="705"/>
      <point x="274" y="705" type="curve"/>
      <point x="336" y="705"/>
      <point x="385" y="704"/>
      <point x="427" y="694" type="curve" smooth="yes"/>
      <point x="489" y="679"/>
      <point x="511" y="639"/>
      <point x="524" y="578" type="curve"/>
      <point x="544" y="576" type="line"/>
      <point x="525" y="730" type="line"/>
      <point x="50" y="730" type="line"/>
      <point x="50" y="710" type="line"/>
      <point x="63" y="710"/>
      <point x="67" y="710"/>
      <point x="78" y="707" type="curve" smooth="yes"/>
      <point x="94" y="703"/>
      <point x="102" y="685"/>
      <point x="102" y="675" type="curve" smooth="yes"/>
      <point x="103" y="646"/>
      <point x="103" y="491"/>
      <point x="103" y="395" type="curve" smooth="yes"/>
      <point x="103" y="239"/>
      <point x="102" y="63"/>
      <point x="101" y="55" type="curve" smooth="yes"/>
      <point x="100" y="45"/>
      <point x="94" y="28"/>
      <point x="78" y="23" type="curve" smooth="yes"/>
      <point x="71" y="21"/>
      <point x="65" y="20"/>
      <point x="57" y="20" type="curve"/>
      <point x="50" y="20" type="line"/>
    </contour>
    <contour>
      <point x="425" y="299" type="curve"/>
      <point x="442" y="299" type="line"/>
      <point x="442" y="451" type="line"/>
      <point x="425" y="451" type="line"/>
      <point x="424" y="427"/>
      <point x="416" y="400"/>
      <point x="397" y="398" type="curve" smooth="yes"/>
      <point x="366" y="394"/>
      <point x="335" y="392"/>
      <point x="297" y="392" type="curve" smooth="yes"/>
      <point x="263" y="392"/>
      <point x="217" y="394"/>
      <point x="185" y="397" type="curve"/>
      <point x="185" y="353" type="line"/>
      <point x="212" y="357"/>
      <point x="257" y="359"/>
      <point x="293" y="359" type="curve" smooth="yes"/>
      <point x="329" y="359"/>
      <point x="359" y="359"/>
      <point x="393" y="353" type="curve" smooth="yes"/>
      <point x="416" y="349"/>
      <point x="421" y="322"/>
    </contour>
    <contour>
      <point x="302" y="737" type="move" name="top"/>
    </contour>
  </outline>
</glyph>
<glyph name="G" format="1">
  <advance width="823"/>
  <unicode hex="0047"/>
  <outline>
    <contour>
      <point x="747.869" y="287.179" type="curve" smooth="yes"/>
      <point x="731.83" y="283.999"/>
      <point x="725.923" y="263.9"/>
      <point x="725.605" y="254.165" type="curve" smooth="yes"/>
      <point x="722" y="168.669" type="line"/>
      <point x="722" y="142.395"/>
      <point x="712.411" y="133.822"/>
      <point x="697.73" y="113.35" type="curve" smooth="yes"/>
      <point x="658.252" y="58.2988"/>
      <point x="567.242" y="-10.0078"/>
      <point x="425.256" y="-10.0078" type="curve" smooth="yes"/>
      <point x="299.398" y="-10.0078"/>
      <point x="55" y="52.6055"/>
      <point x="55" y="352.256" type="curve" smooth="yes"/>
      <point x="55" y="552.174"/>
      <point x="163.037" y="742.001"/>
      <point x="432.465" y="742.001" type="curve" smooth="yes"/>
      <point x="573.971" y="742.001"/>
      <point x="644.736" y="658.256"/>
      <point x="670" y="658.256" type="curve" smooth="yes"/>
      <point x="689.59" y="658.256"/>
      <point x="684.878" y="683.903"/>
      <point x="702" y="683.903" type="curve" smooth="yes"/>
      <point x="708.945" y="683.903"/>
      <point x="714.135" y="675.331"/>
      <point x="714.374" y="665.632" type="curve"/>
      <point x="717.182" y="466.459" type="line"/>
      <point x="716.725" y="459.562"/>
      <point x="712.7" y="453.991"/>
      <point x="706.049" y="453.991" type="curve" smooth="yes"/>
      <point x="701.217" y="453.991"/>
      <point x="696.576" y="455.227"/>
      <point x="694.579" y="463.323" type="curve" smooth="yes"/>
      <point x="670.114" y="562.456"/>
      <point x="590.153" y="700.77"/>
      <point x="418.047" y="700.77" type="curve" smooth="yes"/>
      <point x="229.339" y="700.77"/>
      <point x="158" y="519.981"/>
      <point x="158" y="384.646" type="curve" smooth="yes"/>
      <point x="158" y="62.7783"/>
      <point x="355.138" y="36"/>
      <point x="428.346" y="36" type="curve" smooth="yes"/>
      <point x="520.093" y="36"/>
      <point x="641.058" y="107.682"/>
      <point x="641.058" y="171.828" type="curve"/>
      <point x="638.488" y="254.505" type="line" smooth="yes"/>
      <point x="638.317" y="264.064"/>
      <point x="632.144" y="284.148"/>
      <point x="615.562" y="287.322" type="curve" smooth="yes"/>
      <point x="605.629" y="289.224"/>
      <point x="595.837" y="289.52"/>
      <point x="584.686" y="289.659" type="curve"/>
      <point x="584.685" y="308.669" type="line"/>
      <point x="777.851" y="308.669" type="line"/>
      <point x="777.851" y="289.525" type="line"/>
      <point x="766.995" y="289.386"/>
      <point x="757.517" y="289.091"/>
    </contour>
  </outline>
</glyph>
<glyph name="H" format="1">
  <advance width="817"/>
  <unicode hex="0048"/>
  <outline>
    <contour>
      <point x="398.822" y="378.446" type="curve" smooth="yes"/>
      <point x="334.983" y="378.446"/>
      <point x="258.958" y="377.771"/>
      <point x="209.189" y="377.211" type="curve" smooth="yes"/>
      <point x="206.693" y="377.047"/>
      <point x="202.849" y="376.74"/>
      <point x="202.811" y="375.342" type="curve" smooth="yes"/>
      <point x="202.539" y="340.003"/>
      <point x="202.449" y="299.555"/>
      <point x="202.449" y="264.051" type="curve" smooth="yes"/>
      <point x="202.449" y="193.863"/>
      <point x="202.804" y="123.09"/>
      <point x="202.807" y="53.0869" type="curve"/>
      <point x="203.595" y="43.292"/>
      <point x="212.659" y="24.7139"/>
      <point x="228.024" y="21.6631" type="curve" smooth="yes"/>
      <point x="237.674" y="19.7471"/>
      <point x="244.146" y="19.4473"/>
      <point x="255.006" y="19.3047" type="curve"/>
      <point x="255.006" y="0" type="line"/>
      <point x="54" y="0" type="line"/>
      <point x="54" y="19.292" type="line"/>
      <point x="64.8545" y="19.4346"/>
      <point x="72.335" y="19.7305"/>
      <point x="81.9805" y="21.6494" type="curve" smooth="yes"/>
      <point x="98.2178" y="24.877"/>
      <point x="106.24" y="44.7246"/>
      <point x="106.24" y="54.5225" type="curve"/>
      <point x="107.908" y="171.281"/>
      <point x="109.115" y="287.773"/>
      <point x="109.115" y="404.247" type="curve" smooth="yes"/>
      <point x="109.115" y="494.9"/>
      <point x="108.271" y="585.296"/>
      <point x="106.258" y="675.847" type="curve"/>
      <point x="106.247" y="685.356"/>
      <point x="98.1523" y="705.541"/>
      <point x="81.9844" y="708.751" type="curve" smooth="yes"/>
      <point x="72.334" y="710.668"/>
      <point x="64.8613" y="710.965"/>
      <point x="54.002" y="711.106" type="curve"/>
      <point x="54.002" y="730" type="line"/>
      <point x="255.054" y="730" type="line"/>
      <point x="255.054" y="711.351" type="line"/>
      <point x="244.2" y="711.211"/>
      <point x="237.722" y="710.915"/>
      <point x="228.075" y="709.005" type="curve" smooth="yes"/>
      <point x="211.777" y="705.777"/>
      <point x="202.815" y="686.241"/>
      <point x="202.815" y="676.264" type="curve" smooth="yes"/>
      <point x="202.815" y="621.204"/>
      <point x="202.659" y="563.139"/>
      <point x="202.659" y="508.099" type="curve" smooth="yes"/>
      <point x="202.659" y="480.516"/>
      <point x="202.696" y="448.692"/>
      <point x="202.812" y="423.391" type="curve" smooth="yes"/>
      <point x="202.825" y="422.176"/>
      <point x="206.257" y="421.777"/>
      <point x="208.54" y="421.592" type="curve" smooth="yes"/>
      <point x="257.721" y="421.038"/>
      <point x="334.282" y="420.358"/>
      <point x="398.822" y="420.358" type="curve" smooth="yes"/>
      <point x="466.63" y="420.358"/>
      <point x="553.234" y="421.104"/>
      <point x="607.216" y="421.675" type="curve"/>
      <point x="610" y="421.675"/>
      <point x="611.749" y="423.427"/>
      <point x="611.749" y="423.427" type="curve"/>
      <point x="611.749" y="676.554" type="line"/>
      <point x="611.637" y="686.531"/>
      <point x="603.654" y="705.646"/>
      <point x="587.374" y="708.867" type="curve" smooth="yes"/>
      <point x="577.725" y="710.776"/>
      <point x="570.247" y="711.072"/>
      <point x="559.392" y="711.214" type="curve"/>
      <point x="559.392" y="730" type="line"/>
      <point x="760.887" y="730" type="line"/>
      <point x="760.887" y="711.106" type="line"/>
      <point x="750.028" y="710.965"/>
      <point x="743.556" y="710.67"/>
      <point x="733.908" y="708.751" type="curve" smooth="yes"/>
      <point x="717.732" y="705.536"/>
      <point x="708.729" y="687.511"/>
      <point x="708.314" y="677.085" type="curve"/>
      <point x="706.284" y="585.074"/>
      <point x="705.447" y="492.667"/>
      <point x="705.447" y="400.322" type="curve" smooth="yes"/>
      <point x="705.447" y="284.806"/>
      <point x="706.655" y="169.887"/>
      <point x="708.315" y="54.3232" type="curve"/>
      <point x="708.733" y="44.8535"/>
      <point x="717.748" y="24.7852"/>
      <point x="733.547" y="21.6494" type="curve" smooth="yes"/>
      <point x="743.197" y="19.7344"/>
      <point x="750.668" y="19.4346"/>
      <point x="761.528" y="19.292" type="curve"/>
      <point x="761.528" y="0" type="line"/>
      <point x="559.392" y="0" type="line"/>
      <point x="559.392" y="19.3047" type="line"/>
      <point x="570.248" y="19.4473"/>
      <point x="577.728" y="19.7441"/>
      <point x="587.373" y="21.6631" type="curve" smooth="yes"/>
      <point x="603.286" y="24.8271"/>
      <point x="611.507" y="43.7686"/>
      <point x="611.749" y="52.8535" type="curve"/>
      <point x="611.749" y="375.38" type="line" smooth="yes"/>
      <point x="611.749" y="376.589"/>
      <point x="609.405" y="376.875"/>
      <point x="606.532" y="377.129" type="curve" smooth="yes"/>
      <point x="552.713" y="377.696"/>
      <point x="465.694" y="378.446"/>
    </contour>
  </outline>
</glyph>
<glyph name="I" format="1">
  <advance width="305"/>
  <unicode hex="0049"/>
  <outline>
    <contour>
      <point x="54" y="0" type="line"/>
      <point x="255" y="0" type="line"/>
      <point x="255" y="20" type="line"/>
      <point x="248" y="20" type="line" smooth="yes"/>
      <point x="224" y="20"/>
      <point x="204" y="38"/>
      <point x="203" y="56" type="curve" smooth="yes"/>
      <point x="199" y="169"/>
      <point x="199" y="281"/>
      <point x="199" y="393" type="curve" smooth="yes"/>
      <point x="199" y="488"/>
      <point x="199" y="582"/>
      <point x="203" y="676" type="curve" smooth="yes"/>
      <point x="204" y="693"/>
      <point x="225" y="710"/>
      <point x="248" y="710" type="curve" smooth="yes"/>
      <point x="255" y="710" type="line"/>
      <point x="255" y="730" type="line"/>
      <point x="54" y="730" type="line"/>
      <point x="54" y="710" type="line"/>
      <point x="61" y="710" type="line" smooth="yes"/>
      <point x="84" y="710"/>
      <point x="105" y="693"/>
      <point x="106" y="675" type="curve" smooth="yes"/>
      <point x="110" y="581"/>
      <point x="110" y="488"/>
      <point x="110" y="393" type="curve" smooth="yes"/>
      <point x="110" y="281"/>
      <point x="110" y="169"/>
      <point x="106" y="56" type="curve" smooth="yes"/>
      <point x="105" y="37"/>
      <point x="85" y="20"/>
      <point x="61" y="20" type="curve" smooth="yes"/>
      <point x="54" y="20" type="line"/>
    </contour>
    <contour>
      <point x="155" y="1" type="move" name="bottom"/>
    </contour>
    <contour>
      <point x="155" y="740" type="move" name="top"/>
    </contour>
  </outline>
</glyph>
<glyph name="J" format="1">
  <advance width="309"/>
  <unicode hex="004A"/>
  <outline>
    <contour>
      <point x="103.29" y="675.688" type="curve" smooth="yes"/>
      <point x="102.992" y="695.148"/>
      <point x="82.8838" y="710.709"/>
      <point x="58.5645" y="710.932" type="curve" smooth="yes"/>
      <point x="51.0029" y="711.001" type="line"/>
      <point x="51.0029" y="730" type="line"/>
      <point x="252.047" y="730" type="line"/>
      <point x="252.047" y="710.994" type="line"/>
      <point x="245.132" y="710.911" type="line" smooth="yes"/>
      <point x="221.483" y="710.628"/>
      <point x="200.14" y="694.929"/>
      <point x="199.824" y="676.62" type="curve" smooth="yes"/>
      <point x="198.787" y="616.201"/>
      <point x="197.39" y="522.184"/>
      <point x="197.39" y="424.7" type="curve" smooth="yes"/>
      <point x="197.39" y="248.863"/>
      <point x="199.531" y="61.7354"/>
      <point x="200.196" y="39.5791" type="curve" smooth="yes"/>
      <point x="199.662" y="-103.026"/>
      <point x="98.5781" y="-174.785"/>
      <point x="-82" y="-180.214" type="curve"/>
      <point x="-82" y="-151.698" type="line"/>
      <point x="56.2393" y="-112.787"/>
      <point x="101.512" y="-81.3896"/>
      <point x="102.859" y="73.3213" type="curve" smooth="yes"/>
      <point x="103.099" y="100.799"/>
      <point x="104.29" y="296.102"/>
      <point x="104.29" y="466.247" type="curve" smooth="yes"/>
      <point x="104.29" y="545.038"/>
      <point x="104.133" y="620.59"/>
    </contour>
  </outline>
</glyph>
<glyph name="L" format="1">
  <advance width="602"/>
  <unicode hex="004C"/>
  <outline>
    <contour>
      <point x="51" y="0" type="line"/>
      <point x="533" y="0" type="line"/>
      <point x="552" y="155" type="line"/>
      <point x="532" y="153" type="line"/>
      <point x="531" y="147" type="line" smooth="yes"/>
      <point x="521" y="89"/>
      <point x="494" y="49"/>
      <point x="435" y="36" type="curve" smooth="yes"/>
      <point x="391" y="26"/>
      <point x="339" y="25"/>
      <point x="275" y="25" type="curve"/>
      <point x="254" y="25"/>
      <point x="244" y="25"/>
      <point x="223" y="28" type="curve" smooth="yes"/>
      <point x="206" y="30"/>
      <point x="200" y="49"/>
      <point x="200" y="59" type="curve" smooth="yes"/>
      <point x="196" y="173"/>
      <point x="196" y="287"/>
      <point x="196" y="401" type="curve" smooth="yes"/>
      <point x="196" y="493"/>
      <point x="197" y="584"/>
      <point x="200" y="676" type="curve" smooth="yes"/>
      <point x="201" y="697"/>
      <point x="228" y="711"/>
      <point x="245" y="711" type="curve" smooth="yes"/>
      <point x="252" y="711" type="line"/>
      <point x="252" y="730" type="line"/>
      <point x="51" y="730" type="line"/>
      <point x="51" y="711" type="line"/>
      <point x="58" y="711" type="line" smooth="yes"/>
      <point x="81" y="711"/>
      <point x="102" y="694"/>
      <point x="103" y="676" type="curve" smooth="yes"/>
      <point x="106" y="584"/>
      <point x="107" y="494"/>
      <point x="107" y="402" type="curve" smooth="yes"/>
      <point x="107" y="293"/>
      <point x="107" y="174"/>
      <point x="103" y="58" type="curve" smooth="yes"/>
      <point x="102" y="37"/>
      <point x="83" y="19"/>
      <point x="58" y="19" type="curve" smooth="yes"/>
      <point x="51" y="19" type="line"/>
    </contour>
  </outline>
</glyph>
<glyph name="M" format="1">
  <advance width="845"/>
  <unicode hex="004D"/>
  <outline>
    <contour>
      <point x="45" y="0" type="line"/>
      <point x="207" y="0" type="line"/>
      <point x="207" y="20" type="line"/>
      <point x="200" y="20" type="line" smooth="yes"/>
      <point x="182" y="20"/>
      <point x="166" y="29"/>
      <point x="159" y="42" type="curve" smooth="yes"/>
      <point x="156" y="46"/>
      <point x="155" y="51"/>
      <point x="155" y="56" type="curve" smooth="yes"/>
      <point x="173" y="618" type="line"/>
      <point x="150" y="612" type="line"/>
      <point x="194" y="525"/>
      <point x="317" y="286"/>
      <point x="399" y="131" type="curve" smooth="yes"/>
      <point x="403" y="124"/>
      <point x="408" y="118"/>
      <point x="415" y="118" type="curve" smooth="yes"/>
      <point x="425" y="118"/>
      <point x="435" y="133"/>
      <point x="438" y="139" type="curve"/>
      <point x="672" y="630" type="line"/>
      <point x="651" y="638" type="line"/>
      <point x="681" y="56" type="line"/>
      <point x="681" y="37"/>
      <point x="661" y="19"/>
      <point x="637" y="19" type="curve" smooth="yes"/>
      <point x="629" y="19" type="line"/>
      <point x="629" y="0" type="line"/>
      <point x="830" y="0" type="line"/>
      <point x="830" y="19" type="line"/>
      <point x="823" y="19" type="line" smooth="yes"/>
      <point x="800" y="19"/>
      <point x="779" y="36"/>
      <point x="778" y="55" type="curve" smooth="yes"/>
      <point x="765" y="288"/>
      <point x="748" y="619"/>
      <point x="748" y="677" type="curve" smooth="yes"/>
      <point x="748" y="695"/>
      <point x="770" y="711"/>
      <point x="793" y="711" type="curve" smooth="yes"/>
      <point x="800" y="711" type="line"/>
      <point x="800" y="730" type="line"/>
      <point x="667" y="730" type="line"/>
      <point x="452" y="272" type="line"/>
      <point x="219" y="730" type="line"/>
      <point x="65" y="730" type="line"/>
      <point x="65" y="711" type="line"/>
      <point x="72" y="711" type="line" smooth="yes"/>
      <point x="96" y="711"/>
      <point x="118" y="692"/>
      <point x="118" y="674" type="curve" smooth="yes"/>
      <point x="118" y="466"/>
      <point x="108" y="261"/>
      <point x="98" y="57" type="curve" smooth="yes"/>
      <point x="97" y="36"/>
      <point x="77" y="19"/>
      <point x="52" y="19" type="curve" smooth="yes"/>
      <point x="45" y="19" type="line"/>
    </contour>
  </outline>
</glyph>
<glyph name="N" format="1">
  <advance width="852"/>
  <unicode hex="004E"/>
  <outline>
    <contour>
      <point x="54" y="0" type="line"/>
      <point x="217" y="0" type="line"/>
      <point x="217" y="20" type="line"/>
      <point x="210" y="20" type="line"/>
      <point x="186" y="20"/>
      <point x="166" y="38"/>
      <point x="165" y="56" type="curve" smooth="yes"/>
      <point x="163" y="91"/>
      <point x="162" y="291"/>
      <point x="162" y="462" type="curve" smooth="yes"/>
      <point x="162" y="511"/>
      <point x="162" y="557"/>
      <point x="164" y="607" type="curve"/>
      <point x="252" y="511"/>
      <point x="337" y="416"/>
      <point x="420" y="321" type="curve" smooth="yes"/>
      <point x="514" y="213"/>
      <point x="607" y="108"/>
      <point x="711" y="4" type="curve" smooth="yes"/>
      <point x="722" y="-7"/>
      <point x="729" y="-9"/>
      <point x="734" y="-9" type="curve" smooth="yes"/>
      <point x="742" y="-9"/>
      <point x="750" y="-3"/>
      <point x="750" y="7" type="curve" smooth="yes"/>
      <point x="745" y="138"/>
      <point x="743" y="269"/>
      <point x="743" y="400" type="curve" smooth="yes"/>
      <point x="743" y="493"/>
      <point x="744" y="584"/>
      <point x="749" y="676" type="curve" smooth="yes"/>
      <point x="750" y="693"/>
      <point x="772" y="710"/>
      <point x="795" y="710" type="curve"/>
      <point x="802" y="710" type="line"/>
      <point x="802" y="730" type="line"/>
      <point x="640" y="730" type="line"/>
      <point x="640" y="710" type="line"/>
      <point x="647" y="710" type="line"/>
      <point x="671" y="708"/>
      <point x="693" y="693"/>
      <point x="693" y="674" type="curve" smooth="yes"/>
      <point x="693" y="492"/>
      <point x="693" y="322"/>
      <point x="693" y="141" type="curve"/>
      <point x="723" y="138" type="line"/>
      <point x="179" y="730" type="line"/>
      <point x="55" y="730" type="line"/>
      <point x="55" y="710" type="line"/>
      <point x="62" y="710" type="line" smooth="yes"/>
      <point x="87" y="710"/>
      <point x="106" y="693"/>
      <point x="107" y="673" type="curve" smooth="yes"/>
      <point x="110" y="582"/>
      <point x="110" y="491"/>
      <point x="110" y="400" type="curve" smooth="yes"/>
      <point x="110" y="285"/>
      <point x="110" y="171"/>
      <point x="106" y="57" type="curve" smooth="yes"/>
      <point x="105" y="37"/>
      <point x="86" y="20"/>
      <point x="61" y="20" type="curve"/>
      <point x="54" y="20" type="line"/>
    </contour>
    <contour>
      <point x="413" y="1" type="move" name="bottom"/>
    </contour>
    <contour>
      <point x="423" y="730" type="move" name="top"/>
    </contour>
  </outline>
</glyph>
<glyph name="O" format="1">
  <advance width="828"/>
  <unicode hex="004F"/>
  <outline>
    <contour>
      <point x="411.301" y="733.809" type="curve" smooth="yes"/>
      <point x="609.64" y="733.809"/>
      <point x="773.572" y="607.613"/>
      <point x="773.572" y="360.783" type="curve" smooth="yes"/>
      <point x="773.572" y="123.736"/>
      <point x="577.115" y="-10"/>
      <point x="413.245" y="-10" type="curve" smooth="yes"/>
      <point x="294.432" y="-10"/>
      <point x="55" y="53.6592"/>
      <point x="55" y="351.949" type="curve" smooth="yes"/>
      <point x="55" y="599.623"/>
      <point x="217.102" y="733.809"/>
    </contour>
    <contour>
      <point x="403.976" y="694.77" type="curve" smooth="yes"/>
      <point x="186.148" y="694.77"/>
      <point x="158.326" y="462.104"/>
      <point x="158.326" y="384.293" type="curve" smooth="yes"/>
      <point x="158.326" y="57.9648"/>
      <point x="347.994" y="30.667"/>
      <point x="421.187" y="30.667" type="curve" smooth="yes"/>
      <point x="549.844" y="30.667"/>
      <point x="672.246" y="104.952"/>
      <point x="672.246" y="376.696" type="curve" smooth="yes"/>
      <point x="672.246" y="539.615"/>
      <point x="603.346" y="694.77"/>
    </contour>
  </outline>
</glyph>
<glyph name="P" format="1">
  <advance width="568"/>
  <unicode hex="0050"/>
  <outline>
    <contour>
      <point x="17" y="0" type="line"/>
      <point x="218" y="0" type="line"/>
      <point x="218" y="19" type="line"/>
      <point x="210" y="19" type="line" smooth="yes"/>
      <point x="189" y="19"/>
      <point x="168" y="36"/>
      <point x="167" y="53" type="curve" smooth="yes"/>
      <point x="163" y="168"/>
      <point x="163" y="282"/>
      <point x="163" y="396" type="curve" smooth="yes"/>
      <point x="163" y="494"/>
      <point x="163" y="601"/>
      <point x="167" y="700" type="curve"/>
      <point x="211" y="700" type="line" smooth="yes"/>
      <point x="362" y="700"/>
      <point x="440" y="652"/>
      <point x="440" y="515" type="curve" smooth="yes"/>
      <point x="440" y="368"/>
      <point x="336" y="318"/>
      <point x="212" y="318" type="curve" smooth="yes"/>
      <point x="198" y="318"/>
      <point x="189" y="308"/>
      <point x="189" y="297" type="curve" smooth="yes"/>
      <point x="189" y="286"/>
      <point x="198" y="279"/>
      <point x="212" y="277" type="curve" smooth="yes"/>
      <point x="225" y="275"/>
      <point x="237" y="275"/>
      <point x="250" y="275" type="curve" smooth="yes"/>
      <point x="381" y="275"/>
      <point x="532" y="347"/>
      <point x="532" y="503" type="curve" smooth="yes"/>
      <point x="532" y="668"/>
      <point x="411" y="733"/>
      <point x="256" y="733" type="curve" smooth="yes"/>
      <point x="223" y="733"/>
      <point x="176" y="733"/>
      <point x="158" y="732" type="curve" smooth="yes"/>
      <point x="124" y="730"/>
      <point x="75" y="730"/>
      <point x="46" y="730" type="curve" smooth="yes"/>
      <point x="33" y="730"/>
      <point x="30" y="730"/>
      <point x="17" y="730" type="curve"/>
      <point x="17" y="711" type="line"/>
      <point x="25" y="711" type="line" smooth="yes"/>
      <point x="46" y="711"/>
      <point x="68" y="698"/>
      <point x="69" y="669" type="curve" smooth="yes"/>
      <point x="72" y="582"/>
      <point x="73" y="487"/>
      <point x="73" y="400" type="curve" smooth="yes"/>
      <point x="73" y="285"/>
      <point x="73" y="171"/>
      <point x="69" y="54" type="curve" smooth="yes"/>
      <point x="68" y="37"/>
      <point x="47" y="19"/>
      <point x="24" y="19" type="curve" smooth="yes"/>
      <point x="17" y="19" type="line"/>
    </contour>
  </outline>
</glyph>
<glyph name="Q" format="1">
  <advance width="838"/>
  <unicode hex="0051"/>
  <outline>
    <contour>
      <point x="408.982" y="693.77" type="curve" smooth="yes"/>
      <point x="186.664" y="693.77"/>
      <point x="158.326" y="458.814"/>
      <point x="158.326" y="380.297" type="curve" smooth="yes"/>
      <point x="158.326" y="51.1904"/>
      <point x="351.543" y="23.667"/>
      <point x="426.182" y="23.667" type="curve" smooth="yes"/>
      <point x="557.46" y="23.667"/>
      <point x="682.246" y="98.6104"/>
      <point x="682.246" y="372.699" type="curve" smooth="yes"/>
      <point x="682.246" y="537.134"/>
      <point x="612.104" y="693.77"/>
    </contour>
    <contour>
      <point x="416.303" y="732.809" type="curve" smooth="yes"/>
      <point x="617.238" y="732.809"/>
      <point x="783.572" y="605.609"/>
      <point x="783.572" y="356.808" type="curve" smooth="yes"/>
      <point x="783.572" y="136.992"/>
      <point x="615.598" y="5.99902"/>
      <point x="459.734" y="-14.2607" type="curve"/>
      <point x="468.951" y="-64.3271"/>
      <point x="512.965" y="-101.618"/>
      <point x="621.803" y="-101.618" type="curve" smooth="yes"/>
      <point x="629.592" y="-101.618"/>
      <point x="637.706" y="-101.416"/>
      <point x="646.154" y="-101.009" type="curve" smooth="yes"/>
      <point x="652.195" y="-100.718" type="line"/>
      <point x="661.969" y="-142.42" type="line"/>
      <point x="653.76" y="-143.139" type="line" smooth="yes"/>
      <point x="625.898" y="-145.578"/>
      <point x="599.797" y="-146.864"/>
      <point x="575.476" y="-146.864" type="curve" smooth="yes"/>
      <point x="435.457" y="-146.864"/>
      <point x="352.689" y="-105.265"/>
      <point x="341.656" y="-9.45996" type="curve"/>
      <point x="215.992" y="14.2891"/>
      <point x="55" y="102.646"/>
      <point x="55" y="348.02" type="curve" smooth="yes"/>
      <point x="55" y="597.639"/>
      <point x="219.486" y="732.809"/>
    </contour>
  </outline>
</glyph>
<glyph name="R" format="1">
  <advance width="703"/>
  <unicode hex="0052"/>
  <outline>
    <contour>
      <point x="200" y="357" type="curve" smooth="yes"/>
      <point x="200" y="341" type="line" smooth="yes"/>
      <point x="200" y="246"/>
      <point x="200" y="147"/>
      <point x="205" y="55" type="curve" smooth="yes"/>
      <point x="206" y="37"/>
      <point x="227" y="20"/>
      <point x="250" y="20" type="curve"/>
      <point x="257" y="20" type="line"/>
      <point x="257" y="0" type="line"/>
      <point x="54" y="0" type="line"/>
      <point x="54" y="20" type="line"/>
      <point x="61" y="20" type="line"/>
      <point x="85" y="20"/>
      <point x="105" y="37"/>
      <point x="106" y="56" type="curve" smooth="yes"/>
      <point x="110" y="172"/>
      <point x="110" y="307"/>
      <point x="110" y="404" type="curve" smooth="yes"/>
      <point x="110" y="490"/>
      <point x="109" y="582"/>
      <point x="106" y="667" type="curve" smooth="yes"/>
      <point x="105" y="693"/>
      <point x="91" y="710"/>
      <point x="62" y="710" type="curve"/>
      <point x="54" y="710" type="line"/>
      <point x="54" y="730" type="line"/>
      <point x="61" y="730" type="line" smooth="yes"/>
      <point x="70" y="730"/>
      <point x="78" y="730"/>
      <point x="87" y="730" type="curve" smooth="yes"/>
      <point x="151" y="730"/>
      <point x="215" y="734"/>
      <point x="280" y="734" type="curve" smooth="yes"/>
      <point x="437" y="734"/>
      <point x="551" y="676"/>
      <point x="551" y="535" type="curve" smooth="yes"/>
      <point x="551" y="420"/>
      <point x="457" y="351"/>
      <point x="356" y="336" type="curve"/>
      <point x="364" y="373" type="line"/>
      <point x="458" y="239"/>
      <point x="550" y="110"/>
      <point x="593" y="51" type="curve" smooth="yes"/>
      <point x="607" y="32"/>
      <point x="616" y="21"/>
      <point x="644" y="21" type="curve"/>
      <point x="651" y="21" type="line"/>
      <point x="651" y="1" type="line"/>
      <point x="534" y="1" type="line" smooth="yes"/>
      <point x="491" y="1"/>
      <point x="448" y="60"/>
      <point x="439" y="74" type="curve" smooth="yes"/>
      <point x="373" y="176"/>
      <point x="283" y="311"/>
      <point x="274" y="324" type="curve"/>
      <point x="248" y="324"/>
      <point x="220" y="325"/>
      <point x="193" y="328" type="curve"/>
      <point x="193" y="361" type="line"/>
      <point x="203" y="361"/>
      <point x="218" y="361"/>
      <point x="229" y="361" type="curve" smooth="yes"/>
      <point x="354" y="361"/>
      <point x="455" y="424"/>
      <point x="455" y="531" type="curve" smooth="yes"/>
      <point x="455" y="655"/>
      <point x="388" y="700"/>
      <point x="244" y="700" type="curve" smooth="yes"/>
      <point x="203" y="700" type="line"/>
      <point x="200" y="607"/>
      <point x="200" y="494"/>
      <point x="200" y="396" type="curve" smooth="yes"/>
      <point x="200" y="385"/>
      <point x="200" y="363"/>
    </contour>
    <contour>
      <point x="316" y="1" type="move" name="bottom"/>
    </contour>
    <contour>
      <point x="276" y="746" type="move" name="top"/>
    </contour>
  </outline>
</glyph>
<glyph name="S" format="1">
  <advance width="583"/>
  <unicode hex="0053"/>
  <outline>
    <contour>
      <point x="293" y="-10" type="curve" smooth="yes"/>
      <point x="345" y="-10"/>
      <point x="405" y="7"/>
      <point x="443" y="38" type="curve" smooth="yes"/>
      <point x="493" y="78"/>
      <point x="531" y="131"/>
      <point x="531" y="215" type="curve" smooth="yes"/>
      <point x="531" y="305"/>
      <point x="447" y="368"/>
      <point x="342" y="427" type="curve" smooth="yes"/>
      <point x="255" y="476"/>
      <point x="185" y="516"/>
      <point x="185" y="584" type="curve" smooth="yes"/>
      <point x="185" y="634"/>
      <point x="211" y="706"/>
      <point x="312" y="706" type="curve" smooth="yes"/>
      <point x="390" y="706"/>
      <point x="424" y="657"/>
      <point x="446" y="625" type="curve" smooth="yes"/>
      <point x="450" y="619"/>
      <point x="453" y="615"/>
      <point x="457" y="610" type="curve" smooth="yes"/>
      <point x="462" y="603"/>
      <point x="468" y="598"/>
      <point x="474" y="598" type="curve" smooth="yes"/>
      <point x="494" y="598"/>
      <point x="515" y="673"/>
      <point x="515" y="686" type="curve" smooth="yes"/>
      <point x="515" y="714"/>
      <point x="419" y="742"/>
      <point x="329" y="742" type="curve" smooth="yes"/>
      <point x="170" y="742"/>
      <point x="96" y="650"/>
      <point x="96" y="559" type="curve" smooth="yes"/>
      <point x="96" y="476"/>
      <point x="201" y="400"/>
      <point x="294" y="346" type="curve" smooth="yes"/>
      <point x="382" y="295"/>
      <point x="441" y="241"/>
      <point x="441" y="174" type="curve" smooth="yes"/>
      <point x="441" y="102"/>
      <point x="390" y="40"/>
      <point x="295" y="40" type="curve" smooth="yes"/>
      <point x="174" y="40"/>
      <point x="131" y="146"/>
      <point x="125" y="195" type="curve"/>
      <point x="124" y="204"/>
      <point x="115" y="206"/>
      <point x="112" y="206" type="curve" smooth="yes"/>
      <point x="88" y="206"/>
      <point x="50" y="147"/>
      <point x="50" y="123" type="curve" smooth="yes"/>
      <point x="50" y="76"/>
      <point x="141" y="-10"/>
    </contour>
    <contour>
      <point x="566" y="579" type="move"/>
    </contour>
    <contour>
      <point x="300" y="757" type="move" name="top"/>
    </contour>
  </outline>
</glyph>
<glyph name="T" format="1">
  <advance width="709"/>
  <unicode hex="0054"/>
  <outline>
    <contour>
      <point x="278.636" y="695.114" type="curve" smooth="yes"/>
      <point x="243.809" y="695.114"/>
      <point x="180.43" y="692.118"/>
      <point x="151.299" y="687.104" type="curve" smooth="yes"/>
      <point x="109.049" y="679.722"/>
      <point x="91.3259" y="650.478"/>
      <point x="81.9531" y="600.315" type="curve"/>
      <point x="58" y="600.339" type="line"/>
      <point x="77.2842" y="727.471" type="line"/>
      <point x="77.3984" y="727.881" type="line" smooth="yes"/>
      <point x="79.1357" y="734.109"/>
      <point x="85.2607" y="735.953"/>
      <point x="89.1406" y="735.953" type="curve" smooth="yes"/>
      <point x="97.0664" y="735.953"/>
      <point x="106.723" y="732.861"/>
      <point x="113.2" y="732.764" type="curve" smooth="yes"/>
      <point x="150.035" y="732.207"/>
      <point x="242.834" y="730"/>
      <point x="369.19" y="730" type="curve"/>
      <point x="480.101" y="730.999"/>
      <point x="550.114" y="732.755"/>
      <point x="639.89" y="734.753" type="curve" smooth="yes"/>
      <point x="643.141" y="734.825"/>
      <point x="657.814" y="737.774"/>
      <point x="664.512" y="737.774" type="curve" smooth="yes"/>
      <point x="669.469" y="737.774"/>
      <point x="673.141" y="737.121"/>
      <point x="673.141" y="725.884" type="curve"/>
      <point x="668.899" y="599.981" type="line"/>
      <point x="648.169" y="599.765" type="line"/>
      <point x="648.016" y="635.199"/>
      <point x="640.038" y="681.898"/>
      <point x="609.676" y="689.146" type="curve" smooth="yes"/>
      <point x="587.245" y="694.5"/>
      <point x="558.197" y="694.759"/>
      <point x="496.921" y="694.759" type="curve" smooth="yes"/>
      <point x="479.086" y="694.759"/>
      <point x="463.495" y="694.334"/>
      <point x="444.612" y="693.956" type="curve" smooth="yes"/>
      <point x="429.529" y="693.654"/>
      <point x="422.941" y="682.018"/>
      <point x="422.821" y="671.188" type="curve" smooth="yes"/>
      <point x="421.095" y="556.837"/>
      <point x="420.026" y="442.542"/>
      <point x="420.026" y="328.383" type="curve" smooth="yes"/>
      <point x="420.026" y="236.971"/>
      <point x="420.855" y="145.718"/>
      <point x="422.882" y="54.4688" type="curve"/>
      <point x="423.007" y="44.918"/>
      <point x="431.037" y="29.7441"/>
      <point x="447.155" y="23.5469" type="curve" smooth="yes"/>
      <point x="454.245" y="20.821"/>
      <point x="460.286" y="19.3867"/>
      <point x="468.23" y="19.2842" type="curve" smooth="yes"/>
      <point x="475.138" y="19.1953" type="line"/>
      <point x="475.138" y="0" type="line"/>
      <point x="274.094" y="0" type="line"/>
      <point x="274.094" y="19.1982" type="line"/>
      <point x="281.005" y="19.2842" type="line" smooth="yes"/>
      <point x="293.364" y="19.4395"/>
      <point x="298.037" y="20.3625"/>
      <point x="307.262" y="25.3145" type="curve" smooth="yes"/>
      <point x="321.428" y="32.9189"/>
      <point x="325.024" y="45.0488"/>
      <point x="325.143" y="54.0576" type="curve" smooth="yes"/>
      <point x="326.539" y="118.843"/>
      <point x="328.023" y="264.542"/>
      <point x="328.023" y="329.221" type="curve" smooth="yes"/>
      <point x="328.023" y="467.991"/>
      <point x="326.791" y="525.669"/>
      <point x="326.534" y="664.898" type="curve" smooth="yes"/>
      <point x="326.534" y="680.685"/>
      <point x="320.636" y="692.237"/>
      <point x="309.637" y="693.815" type="curve" smooth="yes"/>
      <point x="303.879" y="694.642"/>
      <point x="292.482" y="695.114"/>
    </contour>
  </outline>
</glyph>
<glyph name="U" format="1">
  <advance width="765"/>
  <unicode hex="0055"/>
  <outline>
    <contour>
      <point x="84.6006" y="673.946" type="line" smooth="yes"/>
      <point x="84.6006" y="694.73"/>
      <point x="60.9775" y="710.218"/>
      <point x="38.7666" y="710.534" type="curve" smooth="yes"/>
      <point x="31.8682" y="710.633" type="line"/>
      <point x="31.8682" y="729.854" type="line"/>
      <point x="232.92" y="730.005" type="line"/>
      <point x="232.92" y="710.806" type="line"/>
      <point x="226.013" y="710.717" type="line" smooth="yes"/>
      <point x="201.46" y="710.399"/>
      <point x="181.075" y="695.649"/>
      <point x="180.717" y="674.113" type="curve" smooth="yes"/>
      <point x="179.47" y="599.143"/>
      <point x="178.065" y="324.372"/>
      <point x="178.065" y="318.538" type="curve" smooth="yes"/>
      <point x="178.065" y="107.192"/>
      <point x="251.248" y="26.002"/>
      <point x="388.458" y="26.002" type="curve" smooth="yes"/>
      <point x="513.227" y="26.002"/>
      <point x="618.919" y="109.044"/>
      <point x="618.919" y="304.53" type="curve" smooth="yes"/>
      <point x="618.919" y="334.884"/>
      <point x="618.604" y="646.014"/>
      <point x="618.604" y="676.043" type="curve" smooth="yes"/>
      <point x="618.604" y="693.49"/>
      <point x="595.914" y="710.632"/>
      <point x="573.151" y="710.929" type="curve" smooth="yes"/>
      <point x="566.244" y="711.019" type="line"/>
      <point x="566.244" y="730.335" type="line"/>
      <point x="730.739" y="730.335" type="line"/>
      <point x="730.739" y="710.977" type="line"/>
      <point x="723.832" y="710.887" type="line" smooth="yes"/>
      <point x="701.169" y="710.592"/>
      <point x="678.278" y="693.535"/>
      <point x="678.219" y="675.168" type="curve" smooth="yes"/>
      <point x="678.195" y="667.831"/>
      <point x="678.186" y="655.747"/>
      <point x="678.186" y="655.747" type="curve"/>
      <point x="678.186" y="655.747"/>
      <point x="678.932" y="518.929"/>
      <point x="678.932" y="456.461" type="curve" smooth="yes"/>
      <point x="678.932" y="374.996"/>
      <point x="678.562" y="312.678"/>
      <point x="677.851" y="278.515" type="curve" smooth="yes"/>
      <point x="672.902" y="40.9238"/>
      <point x="498.086" y="-10.665"/>
      <point x="385.688" y="-10.665" type="curve" smooth="yes"/>
      <point x="271.335" y="-10.665"/>
      <point x="86.4824" y="41.8203"/>
      <point x="85.7393" y="291.442" type="curve" smooth="yes"/>
    </contour>
  </outline>
</glyph>
<glyph name="V" format="1">
  <advance width="783"/>
  <unicode hex="0056"/>
  <outline>
    <contour>
      <point x="397" y="-8" type="curve" smooth="yes"/>
      <point x="406" y="-8"/>
      <point x="410" y="1"/>
      <point x="412" y="6" type="curve" smooth="yes"/>
      <point x="413" y="8"/>
      <point x="416" y="14"/>
      <point x="694" y="668" type="curve"/>
      <point x="706" y="695"/>
      <point x="713" y="710"/>
      <point x="742" y="710" type="curve" smooth="yes"/>
      <point x="749" y="710" type="line"/>
      <point x="749" y="730" type="line"/>
      <point x="593" y="730" type="line"/>
      <point x="593" y="710" type="line"/>
      <point x="600" y="710" type="line" smooth="yes"/>
      <point x="621" y="710"/>
      <point x="644" y="695"/>
      <point x="644" y="678" type="curve" smooth="yes"/>
      <point x="644" y="672"/>
      <point x="642" y="667"/>
      <point x="636" y="654" type="curve"/>
      <point x="400" y="104" type="line"/>
      <point x="435" y="104" type="line"/>
      <point x="203" y="661" type="line"/>
      <point x="200" y="668"/>
      <point x="199" y="675"/>
      <point x="199" y="679" type="curve" smooth="yes"/>
      <point x="199" y="693"/>
      <point x="222" y="710"/>
      <point x="244" y="710" type="curve" smooth="yes"/>
      <point x="252" y="710" type="line"/>
      <point x="252" y="730" type="line"/>
      <point x="50" y="730" type="line"/>
      <point x="50" y="710" type="line"/>
      <point x="57" y="710" type="line" smooth="yes"/>
      <point x="83" y="710"/>
      <point x="89" y="699"/>
      <point x="100" y="675" type="curve" smooth="yes"/>
      <point x="199" y="459"/>
      <point x="297" y="232"/>
      <point x="381" y="7" type="curve" smooth="yes"/>
      <point x="384" y="-1"/>
      <point x="387" y="-8"/>
    </contour>
    <contour>
      <point x="397" y="-24" type="move" name="bottom"/>
    </contour>
    <contour>
      <point x="404" y="732" type="move" name="top"/>
    </contour>
  </outline>
</glyph>
<glyph name="W" format="1">
  <advance width="1034"/>
  <unicode hex="0057"/>
  <outline>
    <contour>
      <point x="694" y="-8" type="curve" smooth="yes"/>
      <point x="702" y="-8"/>
      <point x="708" y="1"/>
      <point x="711" y="7" type="curve" smooth="yes"/>
      <point x="748" y="95"/>
      <point x="899" y="483"/>
      <point x="969" y="665" type="curve" smooth="yes"/>
      <point x="980" y="693"/>
      <point x="988" y="709"/>
      <point x="1019" y="711" type="curve"/>
      <point x="1026" y="711" type="line"/>
      <point x="1026" y="730" type="line"/>
      <point x="873" y="730" type="line"/>
      <point x="873" y="710" type="line"/>
      <point x="880" y="710" type="line"/>
      <point x="900" y="710"/>
      <point x="923" y="695"/>
      <point x="923" y="677" type="curve" smooth="yes"/>
      <point x="923" y="670"/>
      <point x="922" y="662"/>
      <point x="919" y="653" type="curve"/>
      <point x="852" y="482"/>
      <point x="782" y="308"/>
      <point x="713" y="139" type="curve"/>
      <point x="591" y="456" type="line"/>
      <point x="572" y="481" type="line"/>
      <point x="496" y="658" type="line"/>
      <point x="492" y="667"/>
      <point x="491" y="672"/>
      <point x="491" y="677" type="curve" smooth="yes"/>
      <point x="491" y="695"/>
      <point x="512" y="710"/>
      <point x="533" y="710" type="curve"/>
      <point x="540" y="710" type="line"/>
      <point x="540" y="730" type="line"/>
      <point x="357" y="730" type="line"/>
      <point x="357" y="710" type="line"/>
      <point x="364" y="710" type="line"/>
      <point x="381" y="710"/>
      <point x="397" y="698"/>
      <point x="407" y="674" type="curve" smooth="yes"/>
      <point x="532" y="383" type="line" smooth="yes"/>
      <point x="609" y="203"/>
      <point x="670" y="33"/>
      <point x="679" y="7" type="curve" smooth="yes"/>
      <point x="681" y="0"/>
      <point x="685" y="-8"/>
    </contour>
    <contour>
      <point x="390" y="-8" type="curve" smooth="yes"/>
      <point x="398" y="-8"/>
      <point x="404" y="-1"/>
      <point x="407" y="7" type="curve" smooth="yes"/>
      <point x="426" y="54"/>
      <point x="520" y="276"/>
      <point x="554" y="355" type="curve"/>
      <point x="530" y="413" type="line"/>
      <point x="414" y="145" type="line"/>
      <point x="202" y="658" type="line"/>
      <point x="200" y="665"/>
      <point x="199" y="669"/>
      <point x="199" y="674" type="curve" smooth="yes"/>
      <point x="199" y="695"/>
      <point x="223" y="710"/>
      <point x="245" y="710" type="curve"/>
      <point x="251" y="710" type="line"/>
      <point x="251" y="730" type="line"/>
      <point x="50" y="730" type="line"/>
      <point x="50" y="710" type="line"/>
      <point x="57" y="710" type="line"/>
      <point x="85" y="706"/>
      <point x="89" y="699"/>
      <point x="101" y="672" type="curve" smooth="yes"/>
      <point x="108" y="656" type="line" smooth="yes"/>
      <point x="182" y="486"/>
      <point x="370" y="20"/>
      <point x="375" y="7" type="curve" smooth="yes"/>
      <point x="378" y="0"/>
      <point x="382" y="-8"/>
    </contour>
    <contour>
      <point x="591" y="427" type="line"/>
      <point x="697" y="671" type="line" smooth="yes"/>
      <point x="706" y="692"/>
      <point x="714" y="710"/>
      <point x="742" y="710" type="curve"/>
      <point x="749" y="710" type="line"/>
      <point x="749" y="730" type="line"/>
      <point x="595" y="730" type="line"/>
      <point x="595" y="710" type="line"/>
      <point x="602" y="710" type="line"/>
      <point x="621" y="710"/>
      <point x="643" y="696"/>
      <point x="643" y="678" type="curve" smooth="yes"/>
      <point x="643" y="665"/>
      <point x="589" y="545"/>
      <point x="560" y="481" type="curve"/>
    </contour>
    <contour>
      <point x="564" y="747" type="move" name="top"/>
    </contour>
  </outline>
</glyph>
<glyph name="X" format="1">
  <advance width="794"/>
  <unicode hex="0058"/>
  <unicode hex="03A7"/>
  <outline>
    <contour>
      <point x="51" y="0" type="line"/>
      <point x="218" y="0" type="line"/>
      <point x="218" y="19" type="line"/>
      <point x="211" y="19" type="line" smooth="yes"/>
      <point x="203" y="19"/>
      <point x="195" y="21"/>
      <point x="189" y="23" type="curve" smooth="yes"/>
      <point x="178" y="27"/>
      <point x="174" y="38"/>
      <point x="174" y="43" type="curve" smooth="yes"/>
      <point x="174" y="48"/>
      <point x="178" y="57"/>
      <point x="193" y="77" type="curve" smooth="yes"/>
      <point x="257" y="165"/>
      <point x="327" y="259"/>
      <point x="393" y="346" type="curve"/>
      <point x="358" y="390" type="line"/>
      <point x="117" y="61" type="line" smooth="yes"/>
      <point x="105" y="45"/>
      <point x="92" y="28"/>
      <point x="82" y="24" type="curve" smooth="yes"/>
      <point x="74" y="21"/>
      <point x="66" y="19"/>
      <point x="58" y="19" type="curve" smooth="yes"/>
      <point x="51" y="19" type="line"/>
    </contour>
    <contour>
      <point x="525" y="0" type="line"/>
      <point x="749" y="0" type="line"/>
      <point x="749" y="19" type="line"/>
      <point x="742" y="19" type="line" smooth="yes"/>
      <point x="734" y="19"/>
      <point x="721" y="22"/>
      <point x="713" y="24" type="curve" smooth="yes"/>
      <point x="705" y="26"/>
      <point x="698" y="33"/>
      <point x="688" y="45" type="curve" smooth="yes"/>
      <point x="664" y="74"/>
      <point x="624" y="136"/>
      <point x="583" y="201" type="curve" smooth="yes"/>
      <point x="571" y="220"/>
      <point x="558" y="240"/>
      <point x="545" y="260" type="curve" smooth="yes"/>
      <point x="524" y="294"/>
      <point x="465" y="382"/>
      <point x="437" y="421" type="curve"/>
      <point x="416" y="437" type="line"/>
      <point x="265" y="655" type="line" smooth="yes"/>
      <point x="255" y="669"/>
      <point x="254" y="678"/>
      <point x="254" y="683" type="curve" smooth="yes"/>
      <point x="254" y="690"/>
      <point x="259" y="705"/>
      <point x="271" y="708" type="curve" smooth="yes"/>
      <point x="278" y="710"/>
      <point x="285" y="711"/>
      <point x="293" y="711" type="curve" smooth="yes"/>
      <point x="300" y="711" type="line"/>
      <point x="300" y="730" type="line"/>
      <point x="85" y="730" type="line"/>
      <point x="85" y="711" type="line"/>
      <point x="98" y="711"/>
      <point x="109" y="709"/>
      <point x="115" y="707" type="curve" smooth="yes"/>
      <point x="122" y="704"/>
      <point x="131" y="692"/>
      <point x="139" y="681" type="curve" smooth="yes"/>
      <point x="182" y="622"/>
      <point x="267" y="499"/>
      <point x="360" y="364" type="curve"/>
      <point x="377" y="347" type="line"/>
      <point x="555" y="73" type="line"/>
      <point x="564" y="60"/>
      <point x="570" y="51"/>
      <point x="570" y="46" type="curve" smooth="yes"/>
      <point x="570" y="38"/>
      <point x="564" y="25"/>
      <point x="553" y="22" type="curve" smooth="yes"/>
      <point x="546" y="20"/>
      <point x="540" y="19"/>
      <point x="532" y="19" type="curve" smooth="yes"/>
      <point x="525" y="19" type="line"/>
    </contour>
    <contour>
      <point x="436" y="400" type="line"/>
      <point x="643" y="670" type="line" smooth="yes"/>
      <point x="655" y="686"/>
      <point x="668" y="702"/>
      <point x="680" y="707" type="curve" smooth="yes"/>
      <point x="687" y="710"/>
      <point x="696" y="711"/>
      <point x="704" y="711" type="curve" smooth="yes"/>
      <point x="711" y="711" type="line"/>
      <point x="711" y="730" type="line"/>
      <point x="545" y="730" type="line"/>
      <point x="545" y="711" type="line"/>
      <point x="552" y="711" type="line" smooth="yes"/>
      <point x="572" y="711"/>
      <point x="590" y="697"/>
      <point x="590" y="685" type="curve" smooth="yes"/>
      <point x="590" y="678"/>
      <point x="582" y="667"/>
      <point x="571" y="653" type="curve"/>
      <point x="401" y="438" type="line"/>
    </contour>
  </outline>
</glyph>
<glyph name="Y" format="1">
  <advance width="700"/>
  <unicode hex="0059"/>
  <outline>
    <contour>
      <point x="257" y="0" type="line"/>
      <point x="458" y="0" type="line"/>
      <point x="458" y="19" type="line"/>
      <point x="453" y="19" type="line" smooth="yes"/>
      <point x="428" y="19"/>
      <point x="407" y="35"/>
      <point x="406" y="56" type="curve" smooth="yes"/>
      <point x="403" y="123"/>
      <point x="403" y="191"/>
      <point x="403" y="258" type="curve" smooth="yes"/>
      <point x="403" y="304"/>
      <point x="403" y="347"/>
      <point x="403" y="393" type="curve"/>
      <point x="618" y="682" type="line"/>
      <point x="625" y="692"/>
      <point x="642" y="711"/>
      <point x="666" y="711" type="curve" smooth="yes"/>
      <point x="672" y="711" type="line"/>
      <point x="672" y="730" type="line"/>
      <point x="517" y="730" type="line"/>
      <point x="517" y="711" type="line"/>
      <point x="524" y="711" type="line" smooth="yes"/>
      <point x="538" y="711"/>
      <point x="561" y="698"/>
      <point x="561" y="688" type="curve" smooth="yes"/>
      <point x="561" y="682"/>
      <point x="557" y="672"/>
      <point x="543" y="653" type="curve" smooth="yes"/>
      <point x="354" y="403" type="line"/>
      <point x="397" y="403" type="line"/>
      <point x="218" y="659" type="line" smooth="yes"/>
      <point x="208" y="673"/>
      <point x="207" y="679"/>
      <point x="207" y="685" type="curve" smooth="yes"/>
      <point x="207" y="697"/>
      <point x="232" y="711"/>
      <point x="248" y="711" type="curve" smooth="yes"/>
      <point x="254" y="711" type="line"/>
      <point x="254" y="730" type="line"/>
      <point x="49" y="730" type="line"/>
      <point x="49" y="712" type="line"/>
      <point x="56" y="711" type="line" smooth="yes"/>
      <point x="72" y="709"/>
      <point x="90" y="699"/>
      <point x="103" y="681" type="curve" smooth="yes"/>
      <point x="142" y="627"/>
      <point x="226" y="507"/>
      <point x="311" y="383" type="curve"/>
      <point x="313" y="344"/>
      <point x="313" y="300"/>
      <point x="313" y="259" type="curve" smooth="yes"/>
      <point x="313" y="191"/>
      <point x="312" y="123"/>
      <point x="309" y="55" type="curve" smooth="yes"/>
      <point x="308" y="36"/>
      <point x="288" y="19"/>
      <point x="264" y="19" type="curve" smooth="yes"/>
      <point x="257" y="19" type="line"/>
    </contour>
  </outline>
</glyph>
<glyph name="Z" format="1">
  <advance width="658"/>
  <unicode hex="005A"/>
  <outline>
    <contour>
      <point x="604" y="701" type="curve" smooth="yes"/>
      <point x="604" y="692"/>
      <point x="600" y="681"/>
      <point x="594" y="672" type="curve" smooth="yes"/>
      <point x="160" y="42" type="line"/>
      <point x="196" y="38"/>
      <point x="237" y="36"/>
      <point x="278" y="36" type="curve" smooth="yes"/>
      <point x="324" y="36"/>
      <point x="394" y="36"/>
      <point x="446" y="43" type="curve" smooth="yes"/>
      <point x="532" y="55"/>
      <point x="560" y="136"/>
      <point x="571" y="167" type="curve"/>
      <point x="594" y="168" type="line"/>
      <point x="544" y="0" type="line"/>
      <point x="87" y="0" type="line" smooth="yes"/>
      <point x="79" y="0"/>
      <point x="54" y="3"/>
      <point x="54" y="25" type="curve" smooth="yes"/>
      <point x="54" y="32"/>
      <point x="57" y="40"/>
      <point x="61" y="46" type="curve"/>
      <point x="513" y="694" type="line"/>
      <point x="484" y="695"/>
      <point x="422" y="697"/>
      <point x="376" y="697" type="curve"/>
      <point x="315" y="697"/>
      <point x="267" y="696"/>
      <point x="225" y="687" type="curve" smooth="yes"/>
      <point x="158" y="673"/>
      <point x="127" y="641"/>
      <point x="115" y="583" type="curve" smooth="yes"/>
      <point x="114" y="578" type="line"/>
      <point x="93" y="576" type="line"/>
      <point x="126" y="725" type="line" smooth="yes"/>
      <point x="128" y="734"/>
      <point x="137" y="735"/>
      <point x="142" y="735" type="curve" smooth="yes"/>
      <point x="147" y="735"/>
      <point x="153" y="734"/>
      <point x="156" y="733" type="curve" smooth="yes"/>
      <point x="163" y="731"/>
      <point x="168" y="730"/>
      <point x="173" y="730" type="curve" smooth="yes"/>
      <point x="599" y="730" type="line"/>
      <point x="601" y="726"/>
      <point x="604" y="712"/>
    </contour>
  </outline>
</glyph>
<glyph name="bracketleft" format="1">
  <advance width="311"/>
  <unicode hex="005B"/>
  <outline>
    <contour>
      <point x="93" y="-88" type="curve" smooth="yes"/>
      <point x="258" y="-88" type="line" smooth="yes"/>
      <point x="272" y="-88"/>
      <point x="274" y="-75"/>
      <point x="274" y="-66" type="curve" smooth="yes"/>
      <point x="274" y="-57"/>
      <point x="272" y="-44"/>
      <point x="258" y="-44" type="curve" smooth="yes"/>
      <point x="135" y="-44" type="line"/>
      <point x="135" y="745" type="line"/>
      <point x="258" y="745" type="line" smooth="yes"/>
      <point x="272" y="745"/>
      <point x="274" y="758"/>
      <point x="274" y="767" type="curve" smooth="yes"/>
      <point x="274" y="776"/>
      <point x="272" y="789"/>
      <point x="258" y="789" type="curve" smooth="yes"/>
      <point x="97" y="789" type="line" smooth="yes"/>
      <point x="79" y="789"/>
      <point x="67" y="779"/>
      <point x="67" y="761" type="curve" smooth="yes"/>
      <point x="67" y="-61" type="line" smooth="yes"/>
      <point x="67" y="-78"/>
      <point x="77" y="-88"/>
    </contour>
  </outline>
</glyph>
<glyph name="backslash" format="1">
  <advance width="398"/>
  <unicode hex="005C"/>
  <outline>
    <contour>
      <point x="316" y="-110" type="curve" smooth="yes"/>
      <point x="327" y="-110"/>
      <point x="339" y="-107"/>
      <point x="348" y="-102" type="curve" smooth="yes"/>
      <point x="354" y="-99" type="line"/>
      <point x="352" y="-94" type="line" smooth="yes"/>
      <point x="251" y="185"/>
      <point x="178" y="421"/>
      <point x="106" y="678" type="curve" smooth="yes"/>
      <point x="103" y="682" type="line" smooth="yes"/>
      <point x="85" y="696"/>
      <point x="79" y="700"/>
      <point x="64" y="700" type="curve" smooth="yes"/>
      <point x="48" y="700"/>
      <point x="36" y="693"/>
      <point x="36" y="676" type="curve"/>
      <point x="38" y="671"/>
      <point x="84" y="533"/>
      <point x="143" y="353" type="curve" smooth="yes"/>
      <point x="186" y="223"/>
      <point x="235" y="74"/>
      <point x="275" y="-59" type="curve" smooth="yes"/>
      <point x="281" y="-80"/>
      <point x="292" y="-110"/>
    </contour>
  </outline>
</glyph>
<glyph name="bracketright" format="1">
  <advance width="311"/>
  <unicode hex="005D"/>
  <outline>
    <contour>
      <point x="52" y="-88" type="curve" smooth="yes"/>
      <point x="217" y="-88" type="line" smooth="yes"/>
      <point x="233" y="-88"/>
      <point x="243" y="-78"/>
      <point x="243" y="-61" type="curve" smooth="yes"/>
      <point x="243" y="761" type="line" smooth="yes"/>
      <point x="243" y="779"/>
      <point x="231" y="789"/>
      <point x="213" y="789" type="curve" smooth="yes"/>
      <point x="52" y="789" type="line" smooth="yes"/>
      <point x="38" y="789"/>
      <point x="36" y="776"/>
      <point x="36" y="767" type="curve" smooth="yes"/>
      <point x="36" y="758"/>
      <point x="38" y="745"/>
      <point x="52" y="745" type="curve" smooth="yes"/>
      <point x="175" y="745" type="line"/>
      <point x="175" y="-44" type="line"/>
      <point x="52" y="-44" type="line" smooth="yes"/>
      <point x="38" y="-44"/>
      <point x="36" y="-57"/>
      <point x="36" y="-66" type="curve" smooth="yes"/>
      <point x="36" y="-75"/>
      <point x="38" y="-88"/>
    </contour>
  </outline>
</glyph>
<glyph name="asciicircum" format="1">
  <advance width="507"/>
  <unicode hex="005E"/>
  <outline>
    <contour>
      <point x="99" y="551" type="line"/>
      <point x="255" y="661" type="line"/>
      <point x="411" y="551" type="line"/>
      <point x="414" y="552" type="line" smooth="yes"/>
      <point x="425" y="556"/>
      <point x="434" y="564"/>
      <point x="438" y="576" type="curve" smooth="yes"/>
      <point x="440" y="581" type="line"/>
      <point x="255" y="765" type="line"/>
      <point x="70" y="581" type="line"/>
      <point x="71" y="577" type="line" smooth="yes"/>
      <point x="75" y="565"/>
      <point x="84" y="556"/>
      <point x="96" y="552" type="curve" smooth="yes"/>
    </contour>
  </outline>
</glyph>
<glyph name="underscore" format="1">
  <advance width="429"/>
  <unicode hex="005F"/>
  <outline>
    <contour>
      <point x="70" y="-8" type="curve" smooth="yes"/>
      <point x="358" y="-8" type="line" smooth="yes"/>
      <point x="373" y="-8"/>
      <point x="374" y="11"/>
      <point x="374" y="20" type="curve" smooth="yes"/>
      <point x="374" y="29"/>
      <point x="372" y="46"/>
      <point x="358" y="46" type="curve" smooth="yes"/>
      <point x="70" y="46" type="line" smooth="yes"/>
      <point x="55" y="46"/>
      <point x="53" y="28"/>
      <point x="53" y="19" type="curve" smooth="yes"/>
      <point x="53" y="10"/>
      <point x="55" y="-8"/>
    </contour>
  </outline>
</glyph>
<glyph name="grave" format="1">
  <advance width="270"/>
  <unicode hex="0060"/>
  <outline>
    <contour>
      <point x="198" y="616" type="curve"/>
      <point x="221" y="617" type="line"/>
      <point x="200" y="647"/>
      <point x="177" y="681"/>
      <point x="155" y="714" type="curve" smooth="yes"/>
      <point x="134" y="746"/>
      <point x="116" y="773"/>
      <point x="109" y="781" type="curve" smooth="yes"/>
      <point x="99" y="793"/>
      <point x="86" y="797"/>
      <point x="73" y="797" type="curve" smooth="yes"/>
      <point x="51" y="797"/>
      <point x="28" y="784"/>
      <point x="28" y="763" type="curve"/>
      <point x="28" y="742"/>
      <point x="48" y="722"/>
      <point x="61" y="709" type="curve" smooth="yes"/>
      <point x="74" y="696"/>
      <point x="152" y="645"/>
    </contour>
    <contour>
      <point x="147" y="507" type="move" name="_top"/>
    </contour>
  </outline>
</glyph>
<glyph name="a" format="1">
  <advance width="553"/>
  <unicode hex="0061"/>
  <outline>
    <contour>
      <point x="208" y="-10" type="curve" smooth="yes"/>
      <point x="270" y="-10"/>
      <point x="324" y="3"/>
      <point x="379" y="33" type="curve"/>
      <point x="379" y="23"/>
      <point x="383" y="-7"/>
      <point x="412" y="-7" type="curve" smooth="yes"/>
      <point x="442" y="-7"/>
      <point x="472" y="6"/>
      <point x="503" y="21" type="curve"/>
      <point x="500" y="48" type="line"/>
      <point x="480" y="42"/>
      <point x="464" y="39"/>
      <point x="448" y="38" type="curve"/>
      <point x="463" y="24" type="line"/>
      <point x="463" y="364" type="line" smooth="yes"/>
      <point x="463" y="417"/>
      <point x="418" y="512"/>
      <point x="268" y="512" type="curve" smooth="yes"/>
      <point x="210" y="512"/>
      <point x="138" y="503"/>
      <point x="87" y="434" type="curve" smooth="yes"/>
      <point x="84" y="430"/>
      <point x="81" y="426"/>
      <point x="81" y="420" type="curve" smooth="yes"/>
      <point x="81" y="397"/>
      <point x="106" y="390"/>
      <point x="125" y="390" type="curve" smooth="yes"/>
      <point x="161" y="390"/>
      <point x="181" y="417"/>
      <point x="194" y="435" type="curve" smooth="yes"/>
      <point x="211" y="459"/>
      <point x="228" y="481"/>
      <point x="265" y="481" type="curve" smooth="yes"/>
      <point x="330" y="481"/>
      <point x="367" y="445"/>
      <point x="384" y="390" type="curve" smooth="yes"/>
      <point x="388" y="377"/>
      <point x="389" y="341"/>
      <point x="389" y="317" type="curve"/>
      <point x="258" y="279"/>
      <point x="51" y="210"/>
      <point x="51" y="110" type="curve" smooth="yes"/>
      <point x="51" y="21"/>
      <point x="127" y="-10"/>
    </contour>
    <contour>
      <point x="253" y="31" type="curve" smooth="yes"/>
      <point x="190" y="31"/>
      <point x="146" y="64"/>
      <point x="146" y="121" type="curve" smooth="yes"/>
      <point x="146" y="191"/>
      <point x="262" y="236"/>
      <point x="379" y="273" type="curve"/>
      <point x="379" y="71" type="line"/>
      <point x="347" y="46"/>
      <point x="306" y="31"/>
    </contour>
  </outline>
</glyph>
<glyph name="b" format="1">
  <advance width="579"/>
  <unicode hex="0062"/>
  <outline>
    <contour>
      <point x="171.049" y="723.269" type="curve" smooth="yes"/>
      <point x="171.014" y="478.947" type="line"/>
      <point x="204.855" y="499.85"/>
      <point x="241.894" y="512.002"/>
      <point x="291.047" y="512.002" type="curve" smooth="yes"/>
      <point x="429.334" y="512.002"/>
      <point x="537.173" y="430.873"/>
      <point x="537.173" y="244.945" type="curve" smooth="yes"/>
      <point x="537.173" y="57.8145"/>
      <point x="445.45" y="-10.1562"/>
      <point x="289.685" y="-10.1562" type="curve" smooth="yes"/>
      <point x="249.075" y="-10.1562"/>
      <point x="202.141" y="-2.52051"/>
      <point x="160.078" y="21.0859" type="curve"/>
      <point x="138.944" y="1.98047"/>
      <point x="114.238" y="-3.78906"/>
      <point x="58" y="-3.78906" type="curve" smooth="yes"/>
      <point x="51" y="-3.78906" type="line"/>
      <point x="51" y="15.0752" type="line"/>
      <point x="57.9072" y="15.165" type="line" smooth="yes"/>
      <point x="73.5947" y="15.3682"/>
      <point x="85.0244" y="28.8721"/>
      <point x="87.2266" y="40.2656" type="curve"/>
      <point x="87.2266" y="673.993" type="line" smooth="yes"/>
      <point x="87.2266" y="695.348"/>
      <point x="77.3926" y="705.34"/>
      <point x="60.4092" y="705.34" type="curve" smooth="yes"/>
      <point x="53.4092" y="705.34" type="line"/>
      <point x="53.4092" y="721.301" type="line"/>
      <point x="153.308" y="746.886" type="line" smooth="yes"/>
      <point x="155.012" y="747.34"/>
      <point x="156.621" y="747.506"/>
      <point x="158" y="747.506" type="curve" smooth="yes"/>
      <point x="170.768" y="747.506"/>
      <point x="171.012" y="733.086"/>
    </contour>
    <contour>
      <point x="171.008" y="443.318" type="curve"/>
      <point x="170.962" y="115.935" type="line"/>
      <point x="186.589" y="57.5938"/>
      <point x="223.684" y="20.9277"/>
      <point x="301.14" y="20.9277" type="curve" smooth="yes"/>
      <point x="396.453" y="20.9277"/>
      <point x="447.152" y="107.102"/>
      <point x="447.152" y="228.655" type="curve" smooth="yes"/>
      <point x="447.152" y="380.974"/>
      <point x="403.569" y="478.08"/>
      <point x="273.757" y="478.08" type="curve" smooth="yes"/>
      <point x="243.067" y="478.08"/>
      <point x="206.501" y="465.39"/>
    </contour>
  </outline>
</glyph>
<glyph name="c" format="1">
  <advance width="527"/>
  <unicode hex="0063"/>
  <outline>
    <contour>
      <point x="292" y="-10" type="curve" smooth="yes"/>
      <point x="392" y="-10"/>
      <point x="434" y="19"/>
      <point x="493" y="77" type="curve"/>
      <point x="480" y="94" type="line"/>
      <point x="425" y="49"/>
      <point x="382" y="30"/>
      <point x="318" y="30" type="curve" smooth="yes"/>
      <point x="189" y="30"/>
      <point x="138" y="177"/>
      <point x="138" y="279" type="curve" smooth="yes"/>
      <point x="138" y="404"/>
      <point x="202" y="493"/>
      <point x="286" y="493" type="curve" smooth="yes"/>
      <point x="332" y="493"/>
      <point x="349" y="463"/>
      <point x="365" y="434" type="curve" smooth="yes"/>
      <point x="380" y="407"/>
      <point x="395" y="382"/>
      <point x="432" y="382" type="curve" smooth="yes"/>
      <point x="451" y="382"/>
      <point x="485" y="392"/>
      <point x="485" y="415" type="curve" smooth="yes"/>
      <point x="485" y="421"/>
      <point x="482" y="426"/>
      <point x="478" y="430" type="curve" smooth="yes"/>
      <point x="416" y="492"/>
      <point x="357" y="513"/>
      <point x="297" y="513" type="curve" smooth="yes"/>
      <point x="74" y="513"/>
      <point x="46" y="360"/>
      <point x="46" y="266" type="curve" smooth="yes"/>
      <point x="46" y="62"/>
      <point x="164" y="-10"/>
    </contour>
    <contour>
      <point x="274" y="-4" type="move" name="bottom"/>
    </contour>
    <contour>
      <point x="281" y="519" type="move" name="top"/>
    </contour>
  </outline>
</glyph>
<glyph name="d" format="1">
  <advance width="578"/>
  <unicode hex="0064"/>
  <outline>
    <contour>
      <point x="412" y="65" type="curve"/>
      <point x="412" y="28" type="line"/>
      <point x="375" y="4"/>
      <point x="335" y="-10"/>
      <point x="281" y="-10" type="curve" smooth="yes"/>
      <point x="150" y="-10"/>
      <point x="37" y="64"/>
      <point x="37" y="264" type="curve" smooth="yes"/>
      <point x="37" y="428"/>
      <point x="119" y="513"/>
      <point x="278" y="513" type="curve" smooth="yes"/>
      <point x="322" y="513"/>
      <point x="364" y="499"/>
      <point x="403" y="478" type="curve"/>
      <point x="403" y="674" type="line" smooth="yes"/>
      <point x="403" y="696"/>
      <point x="393" y="705"/>
      <point x="375" y="705" type="curve" smooth="yes"/>
      <point x="368" y="705" type="line"/>
      <point x="368" y="721" type="line"/>
      <point x="470" y="747" type="line" smooth="yes"/>
      <point x="473" y="748"/>
      <point x="475" y="748"/>
      <point x="477" y="748" type="curve" smooth="yes"/>
      <point x="479" y="748"/>
      <point x="481" y="748"/>
      <point x="483" y="745" type="curve" smooth="yes"/>
      <point x="487" y="740"/>
      <point x="487" y="732"/>
      <point x="487" y="723" type="curve"/>
      <point x="487" y="27" type="line"/>
      <point x="476" y="38" type="line"/>
      <point x="489" y="39"/>
      <point x="507" y="43"/>
      <point x="524" y="48" type="curve"/>
      <point x="528" y="21" type="line"/>
      <point x="501" y="8"/>
      <point x="468" y="-7"/>
      <point x="438" y="-7" type="curve" smooth="yes"/>
      <point x="412" y="-7"/>
      <point x="403" y="18"/>
      <point x="403" y="31" type="curve" smooth="yes"/>
      <point x="403" y="389" type="line"/>
      <point x="390" y="450"/>
      <point x="348" y="492"/>
      <point x="279" y="492" type="curve" smooth="yes"/>
      <point x="177" y="492"/>
      <point x="127" y="396"/>
      <point x="127" y="275" type="curve" smooth="yes"/>
      <point x="127" y="122"/>
      <point x="169" y="24"/>
      <point x="299" y="24" type="curve" smooth="yes"/>
      <point x="334" y="24"/>
      <point x="373" y="37"/>
    </contour>
    <contour>
      <point x="279" y="-18" type="move" name="bottom"/>
    </contour>
    <contour>
      <point x="428" y="736" type="move" name="top"/>
    </contour>
  </outline>
</glyph>
<glyph name="e" format="1">
  <advance width="546"/>
  <unicode hex="0065"/>
  <outline>
    <contour>
      <point x="501.562" y="311.553" type="curve"/>
      <point x="146.734" y="312.634" type="line"/>
      <point x="142.742" y="295.723"/>
      <point x="139.668" y="273.354"/>
      <point x="139.668" y="250.796" type="curve" smooth="yes"/>
      <point x="139.668" y="161.792"/>
      <point x="176.747" y="29.4512"/>
      <point x="317.585" y="29.4512" type="curve" smooth="yes"/>
      <point x="364.437" y="29.4512"/>
      <point x="433.596" y="50.7529"/>
      <point x="483.428" y="95.3057" type="curve"/>
      <point x="495.692" y="75.9365" type="line"/>
      <point x="442.309" y="15.8301"/>
      <point x="390.025" y="-10.7041"/>
      <point x="305.417" y="-10.7041" type="curve" smooth="yes"/>
      <point x="163.187" y="-10.7041"/>
      <point x="50.9697" y="63.8994"/>
      <point x="50.9697" y="249.025" type="curve" smooth="yes"/>
      <point x="50.9697" y="430.751"/>
      <point x="146.016" y="511.682"/>
      <point x="298.468" y="511.682" type="curve" smooth="yes"/>
      <point x="419.501" y="511.682"/>
      <point x="502.478" y="425.132"/>
      <point x="502.478" y="328.472" type="curve" smooth="yes"/>
      <point x="502.478" y="321.512"/>
      <point x="502.017" y="318.262"/>
    </contour>
    <contour>
      <point x="292.681" y="489.908" type="curve" smooth="yes"/>
      <point x="214.544" y="489.908"/>
      <point x="152.935" y="419.554"/>
      <point x="146.829" y="356.622" type="curve"/>
      <point x="181.407" y="352.982"/>
      <point x="222.39" y="349.541"/>
      <point x="283.875" y="349.541" type="curve" smooth="yes"/>
      <point x="316.442" y="349.541"/>
      <point x="380.196" y="350.75"/>
      <point x="408.795" y="352.711" type="curve"/>
      <point x="404.148" y="431.439"/>
      <point x="362.89" y="489.908"/>
    </contour>
  </outline>
</glyph>
<glyph name="f" format="1">
  <advance width="508"/>
  <unicode hex="0066"/>
  <outline>
    <contour>
      <point x="183" y="495" type="line"/>
      <point x="188" y="476" type="line"/>
      <point x="188" y="43" type="line"/>
      <point x="188" y="32"/>
      <point x="202" y="19"/>
      <point x="217" y="19" type="curve" smooth="yes"/>
      <point x="224" y="19" type="line"/>
      <point x="224" y="0" type="line"/>
      <point x="68" y="0" type="line"/>
      <point x="68" y="19" type="line"/>
      <point x="75" y="19" type="line" smooth="yes"/>
      <point x="90" y="19"/>
      <point x="104" y="32"/>
      <point x="104" y="44" type="curve"/>
      <point x="104" y="497" type="line" smooth="yes"/>
      <point x="104" y="503"/>
      <point x="104" y="541"/>
      <point x="104" y="556" type="curve" smooth="yes"/>
      <point x="104" y="704"/>
      <point x="187" y="766"/>
      <point x="331" y="766" type="curve" smooth="yes"/>
      <point x="375" y="766"/>
      <point x="432" y="757"/>
      <point x="470" y="707" type="curve" smooth="yes"/>
      <point x="473" y="703"/>
      <point x="476" y="698"/>
      <point x="476" y="693" type="curve" smooth="yes"/>
      <point x="476" y="672"/>
      <point x="445" y="665"/>
      <point x="430" y="665" type="curve" smooth="yes"/>
      <point x="395" y="665"/>
      <point x="378" y="695"/>
      <point x="370" y="709" type="curve" smooth="yes"/>
      <point x="360" y="727"/>
      <point x="345" y="741"/>
      <point x="313" y="741" type="curve" smooth="yes"/>
      <point x="239" y="741"/>
      <point x="183" y="696"/>
      <point x="183" y="585" type="curve"/>
    </contour>
    <contour>
      <point x="113" y="501" type="line"/>
      <point x="113" y="466" type="line"/>
      <point x="93" y="467"/>
      <point x="61" y="464"/>
      <point x="49" y="461" type="curve"/>
      <point x="57" y="501" type="line"/>
    </contour>
    <contour>
      <point x="180" y="466" type="curve"/>
      <point x="173" y="505" type="line"/>
      <point x="302" y="505" type="line" smooth="yes"/>
      <point x="324" y="505"/>
      <point x="339" y="500"/>
      <point x="339" y="486" type="curve" smooth="yes"/>
      <point x="339" y="479"/>
      <point x="333" y="467"/>
      <point x="330" y="462" type="curve"/>
      <point x="318" y="463"/>
      <point x="220" y="466"/>
    </contour>
  </outline>
</glyph>
<glyph name="g" format="1">
  <advance width="516"/>
  <unicode hex="0067"/>
  <outline>
    <contour>
      <point x="236" y="-212" type="curve" smooth="yes"/>
      <point x="334" y="-212"/>
      <point x="434" y="-158"/>
      <point x="434" y="-97" type="curve" smooth="yes"/>
      <point x="434" y="-26"/>
      <point x="355" y="-19"/>
      <point x="263" y="-11" type="curve"/>
      <point x="253" y="-10"/>
      <point x="233" y="-9"/>
      <point x="229" y="-9" type="curve"/>
      <point x="134" y="-41"/>
      <point x="101" y="-57"/>
      <point x="101" y="-118" type="curve" smooth="yes"/>
      <point x="101" y="-173"/>
      <point x="160" y="-212"/>
    </contour>
    <contour>
      <point x="129" y="327" type="curve" smooth="yes"/>
      <point x="129" y="209"/>
      <point x="168" y="142"/>
      <point x="254" y="142" type="curve" smooth="yes"/>
      <point x="337" y="142"/>
      <point x="359" y="222"/>
      <point x="359" y="305" type="curve" smooth="yes"/>
      <point x="359" y="411"/>
      <point x="320" y="477"/>
      <point x="231" y="477" type="curve" smooth="yes"/>
      <point x="161" y="477"/>
      <point x="129" y="393"/>
    </contour>
    <contour>
      <point x="433" y="293" type="curve" smooth="yes"/>
      <point x="433" y="123"/>
      <point x="316" y="96"/>
      <point x="200" y="77" type="curve" smooth="yes"/>
      <point x="188" y="75"/>
      <point x="183" y="74"/>
      <point x="175" y="72" type="curve" smooth="yes"/>
      <point x="170" y="71"/>
      <point x="164" y="66"/>
      <point x="164" y="61" type="curve" smooth="yes"/>
      <point x="164" y="55"/>
      <point x="175" y="51"/>
      <point x="180" y="50" type="curve" smooth="yes"/>
      <point x="193" y="47"/>
      <point x="207" y="45"/>
      <point x="217" y="44" type="curve"/>
      <point x="318" y="36" type="line" smooth="yes"/>
      <point x="417" y="28"/>
      <point x="490" y="19"/>
      <point x="490" y="-68" type="curve" smooth="yes"/>
      <point x="490" y="-181"/>
      <point x="361" y="-238"/>
      <point x="235" y="-238" type="curve" smooth="yes"/>
      <point x="130" y="-238"/>
      <point x="20" y="-219"/>
      <point x="20" y="-130" type="curve" smooth="yes"/>
      <point x="20" y="-55"/>
      <point x="113" y="-23"/>
      <point x="182" y="-3" type="curve"/>
      <point x="158" y="-1"/>
      <point x="140" y="2"/>
      <point x="125" y="5" type="curve" smooth="yes"/>
      <point x="96" y="11"/>
      <point x="60" y="20"/>
      <point x="60" y="46" type="curve" smooth="yes"/>
      <point x="60" y="85"/>
      <point x="142" y="106"/>
      <point x="188" y="118" type="curve"/>
      <point x="114" y="134"/>
      <point x="51" y="190"/>
      <point x="51" y="317" type="curve" smooth="yes"/>
      <point x="51" y="434"/>
      <point x="113" y="490"/>
      <point x="200" y="503" type="curve" smooth="yes"/>
      <point x="213" y="505"/>
      <point x="227" y="505"/>
      <point x="241" y="505" type="curve" smooth="yes"/>
      <point x="282" y="505"/>
      <point x="323" y="495"/>
      <point x="357" y="471" type="curve"/>
      <point x="389" y="491"/>
      <point x="415" y="500"/>
      <point x="454" y="500" type="curve" smooth="yes"/>
      <point x="468" y="500"/>
      <point x="476" y="492"/>
      <point x="476" y="479" type="curve" smooth="yes"/>
      <point x="476" y="448"/>
      <point x="440" y="433"/>
      <point x="407" y="433" type="curve" smooth="yes"/>
      <point x="404" y="433"/>
      <point x="398" y="433"/>
      <point x="397" y="433" type="curve"/>
      <point x="420" y="395"/>
      <point x="433" y="349"/>
    </contour>
    <contour>
      <point x="238" y="512" type="move" name="top"/>
    </contour>
  </outline>
</glyph>
<glyph name="h" format="1">
  <advance width="584"/>
  <unicode hex="0068"/>
  <outline>
    <contour>
      <point x="171.04" y="44.0869" type="line"/>
      <point x="173.244" y="31.7871"/>
      <point x="184.632" y="18.9014"/>
      <point x="200.435" y="18.6963" type="curve" smooth="yes"/>
      <point x="207.342" y="18.6084" type="line"/>
      <point x="207.342" y="0" type="line"/>
      <point x="51" y="0" type="line"/>
      <point x="51" y="18.8584" type="line"/>
      <point x="57.9072" y="18.9482" type="line" smooth="yes"/>
      <point x="73.8857" y="19.1523"/>
      <point x="85.2461" y="32.7148"/>
      <point x="87.3184" y="44.5586" type="curve"/>
      <point x="87.3184" y="672.213" type="line" smooth="yes"/>
      <point x="87.3184" y="693.565"/>
      <point x="77.4824" y="703.56"/>
      <point x="60.498" y="703.56" type="curve" smooth="yes"/>
      <point x="53.498" y="703.56" type="line"/>
      <point x="53.498" y="719.521" type="line"/>
      <point x="153.397" y="745.105" type="line" smooth="yes"/>
      <point x="154.999" y="745.532"/>
      <point x="156.554" y="745.729"/>
      <point x="158" y="745.729" type="curve" smooth="yes"/>
      <point x="170.749" y="745.729"/>
      <point x="171.101" y="731.454"/>
      <point x="171.139" y="721.488" type="curve" smooth="yes"/>
      <point x="171.104" y="478.479" type="line"/>
      <point x="209.669" y="502.579"/>
      <point x="245.791" y="511.935"/>
      <point x="306.164" y="511.935" type="curve" smooth="yes"/>
      <point x="393.801" y="511.935"/>
      <point x="506.926" y="458.677"/>
      <point x="506.926" y="348.729" type="curve" smooth="yes"/>
      <point x="506.858" y="43.3477" type="line"/>
      <point x="509.281" y="31.8037"/>
      <point x="520.748" y="18.9668"/>
      <point x="536.094" y="18.7705" type="curve" smooth="yes"/>
      <point x="543.001" y="18.6816" type="line"/>
      <point x="543.001" y="0" type="line"/>
      <point x="386.862" y="0" type="line"/>
      <point x="386.862" y="18.6084" type="line"/>
      <point x="393.77" y="18.6963" type="line" smooth="yes"/>
      <point x="409.533" y="18.9004"/>
      <point x="420.989" y="32.375"/>
      <point x="423.131" y="43.8926" type="curve"/>
      <point x="423.131" y="357.898" type="line" smooth="yes"/>
      <point x="423.131" y="423.997"/>
      <point x="353.488" y="477.364"/>
      <point x="286.289" y="477.364" type="curve" smooth="yes"/>
      <point x="247.399" y="477.364"/>
      <point x="215.073" y="469.375"/>
      <point x="171.097" y="442.14" type="curve"/>
    </contour>
  </outline>
</glyph>
<glyph name="i" format="1">
  <advance width="265"/>
  <unicode hex="0069"/>
  <outline>
    <contour>
      <point x="122.197" y="609.573" type="curve" smooth="yes"/>
      <point x="92.6807" y="609.573"/>
      <point x="68.75" y="633.503"/>
      <point x="68.75" y="663.02" type="curve" smooth="yes"/>
      <point x="68.75" y="692.536"/>
      <point x="92.6797" y="716.467"/>
      <point x="122.197" y="716.467" type="curve" smooth="yes"/>
      <point x="151.714" y="716.467"/>
      <point x="175.644" y="692.536"/>
      <point x="175.644" y="663.02" type="curve" smooth="yes"/>
      <point x="175.644" y="633.503"/>
      <point x="151.714" y="609.573"/>
    </contour>
    <contour>
      <point x="176.933" y="43.4766" type="line"/>
      <point x="179.324" y="31.8066"/>
      <point x="190.776" y="18.9668"/>
      <point x="206.193" y="18.7695" type="curve" smooth="yes"/>
      <point x="213.101" y="18.6807" type="line"/>
      <point x="213.101" y="0" type="line"/>
      <point x="57" y="0" type="line"/>
      <point x="57" y="18.6797" type="line"/>
      <point x="63.9072" y="18.7686" type="line" smooth="yes"/>
      <point x="79.5615" y="18.9688"/>
      <point x="91.0342" y="32.4365"/>
      <point x="93.2285" y="43.7812" type="curve"/>
      <point x="93.2285" y="437.724" type="line" smooth="yes"/>
      <point x="93.2285" y="457.844"/>
      <point x="82.9854" y="466.613"/>
      <point x="66.4092" y="466.613" type="curve" smooth="yes"/>
      <point x="59.4092" y="466.613" type="line"/>
      <point x="59.4092" y="482.801" type="line"/>
      <point x="159.188" y="508.675" type="line" smooth="yes"/>
      <point x="160.912" y="509.162"/>
      <point x="162.56" y="509.353"/>
      <point x="164" y="509.353" type="curve" smooth="yes"/>
      <point x="176.768" y="509.353"/>
      <point x="176.989" y="495.244"/>
      <point x="177.027" y="485.733" type="curve" smooth="yes"/>
    </contour>
  </outline>
</glyph>
<glyph name="j" format="1">
  <advance width="262"/>
  <unicode hex="006A"/>
  <outline>
    <contour>
      <point x="129.554" y="606.942" type="curve" smooth="yes"/>
      <point x="100.038" y="606.942"/>
      <point x="76.1074" y="630.871"/>
      <point x="76.1074" y="660.388" type="curve" smooth="yes"/>
      <point x="76.1074" y="689.904"/>
      <point x="100.037" y="713.834"/>
      <point x="129.554" y="713.834" type="curve" smooth="yes"/>
      <point x="159.07" y="713.834"/>
      <point x="183" y="689.904"/>
      <point x="183" y="660.388" type="curve" smooth="yes"/>
      <point x="183" y="630.871"/>
      <point x="159.069" y="606.942"/>
    </contour>
    <contour>
      <point x="172" y="505.725" type="curve" smooth="yes"/>
      <point x="185.689" y="505.725"/>
      <point x="186.345" y="493.102"/>
      <point x="186.383" y="483.03" type="curve" smooth="yes"/>
      <point x="186.283" y="93.2793" type="line" smooth="yes"/>
      <point x="186.236" y="78.7939"/>
      <point x="186.161" y="64.3193"/>
      <point x="186.161" y="49.8691" type="curve" smooth="yes"/>
      <point x="186.161" y="-3.1582"/>
      <point x="172.4" y="-39.4658"/>
      <point x="129.597" y="-81.707" type="curve" smooth="yes"/>
      <point x="101.598" y="-109.996"/>
      <point x="37.7715" y="-153.523"/>
      <point x="-42" y="-153.523" type="curve" smooth="yes"/>
      <point x="-64.4502" y="-153.523"/>
      <point x="-87.2627" y="-149.948"/>
      <point x="-111.976" y="-141.635" type="curve" smooth="yes"/>
      <point x="-122.601" y="-138.061"/>
      <point x="-128.956" y="-129.888"/>
      <point x="-128.956" y="-121" type="curve" smooth="yes"/>
      <point x="-128.956" y="-92.0107"/>
      <point x="-90.5977" y="-79.2393"/>
      <point x="-62" y="-79.2393" type="curve" smooth="yes"/>
      <point x="-26.8047" y="-79.2393"/>
      <point x="-3.90332" y="-103.614"/>
      <point x="23" y="-103.614" type="curve" smooth="yes"/>
      <point x="31.0928" y="-103.614"/>
      <point x="39.6826" y="-101.824"/>
      <point x="49.5889" y="-96.708" type="curve" smooth="yes"/>
      <point x="101.295" y="-70.6201"/>
      <point x="102.586" y="-44.2803"/>
      <point x="102.586" y="22.6406" type="curve" smooth="yes"/>
      <point x="102.586" y="432.813" type="line" smooth="yes"/>
      <point x="102.586" y="452.999"/>
      <point x="92.3682" y="463.783"/>
      <point x="75.7646" y="463.783" type="curve" smooth="yes"/>
      <point x="68.7646" y="463.783" type="line"/>
      <point x="68.7646" y="480.067" type="line"/>
      <point x="167.544" y="505.043" type="line" smooth="yes"/>
      <point x="168.859" y="505.414"/>
      <point x="170.301" y="505.725"/>
    </contour>
  </outline>
</glyph>
<glyph name="k" format="1">
  <advance width="600"/>
  <unicode hex="006B"/>
  <outline>
    <contour>
      <point x="78" y="0" type="line"/>
      <point x="234" y="0" type="line"/>
      <point x="234" y="20" type="line"/>
      <point x="227" y="20" type="line"/>
      <point x="211" y="20"/>
      <point x="198" y="33"/>
      <point x="198" y="44" type="curve"/>
      <point x="198" y="288" type="line"/>
      <point x="200" y="289"/>
      <point x="203" y="290"/>
      <point x="207" y="290" type="curve" smooth="yes"/>
      <point x="239" y="290"/>
      <point x="429" y="69"/>
      <point x="429" y="40" type="curve" smooth="yes"/>
      <point x="429" y="29"/>
      <point x="422" y="20"/>
      <point x="414" y="20" type="curve"/>
      <point x="407" y="20" type="line"/>
      <point x="407" y="0" type="line"/>
      <point x="561" y="0" type="line"/>
      <point x="561" y="20" type="line"/>
      <point x="554" y="20" type="line"/>
      <point x="534" y="20"/>
      <point x="520" y="36"/>
      <point x="508" y="57" type="curve" smooth="yes"/>
      <point x="497" y="76"/>
      <point x="460" y="135"/>
      <point x="396" y="209" type="curve" smooth="yes"/>
      <point x="330" y="285"/>
      <point x="308" y="320"/>
      <point x="303" y="333" type="curve"/>
      <point x="367" y="379"/>
      <point x="402" y="409"/>
      <point x="430" y="433" type="curve" smooth="yes"/>
      <point x="446" y="447"/>
      <point x="461" y="459"/>
      <point x="476" y="469" type="curve" smooth="yes"/>
      <point x="486" y="476"/>
      <point x="504" y="487"/>
      <point x="522" y="487" type="curve"/>
      <point x="529" y="487" type="line"/>
      <point x="529" y="507" type="line"/>
      <point x="379" y="507" type="line"/>
      <point x="379" y="487" type="line"/>
      <point x="384" y="487" type="line"/>
      <point x="394" y="487"/>
      <point x="403" y="482"/>
      <point x="403" y="472" type="curve" smooth="yes"/>
      <point x="403" y="461"/>
      <point x="378" y="441"/>
      <point x="322" y="402" type="curve" smooth="yes"/>
      <point x="243" y="347"/>
      <point x="225" y="335"/>
      <point x="217" y="335" type="curve" smooth="yes"/>
      <point x="207" y="335"/>
      <point x="198" y="336"/>
      <point x="198" y="352" type="curve" smooth="yes"/>
      <point x="198" y="722" type="line"/>
      <point x="198" y="735"/>
      <point x="197" y="746"/>
      <point x="185" y="746" type="curve" smooth="yes"/>
      <point x="180" y="746"/>
      <point x="172" y="745"/>
      <point x="167" y="743" type="curve"/>
      <point x="80" y="719" type="line"/>
      <point x="80" y="704" type="line"/>
      <point x="87" y="704" type="line"/>
      <point x="105" y="704"/>
      <point x="114" y="694"/>
      <point x="114" y="670" type="curve"/>
      <point x="114" y="45" type="line"/>
      <point x="114" y="34"/>
      <point x="102" y="20"/>
      <point x="85" y="20" type="curve"/>
      <point x="78" y="20" type="line"/>
    </contour>
    <contour>
      <point x="533" y="361" type="move"/>
    </contour>
    <contour>
      <point x="447" y="327" type="move"/>
    </contour>
    <contour>
      <point x="321" y="-5" type="move" name="bottom"/>
    </contour>
    <contour>
      <point x="151" y="740" type="move" name="top"/>
    </contour>
  </outline>
</glyph>
<glyph name="l" format="1">
  <advance width="259"/>
  <unicode hex="006C"/>
  <outline>
    <contour>
      <point x="52" y="0" type="line"/>
      <point x="208" y="0" type="line"/>
      <point x="208" y="19" type="line"/>
      <point x="201" y="19" type="line" smooth="yes"/>
      <point x="186" y="19"/>
      <point x="172" y="32"/>
      <point x="172" y="44" type="curve"/>
      <point x="172" y="745" type="line" smooth="yes"/>
      <point x="172" y="755"/>
      <point x="172" y="769"/>
      <point x="159" y="769" type="curve" smooth="yes"/>
      <point x="158" y="769"/>
      <point x="156" y="769"/>
      <point x="154" y="768" type="curve" smooth="yes"/>
      <point x="54" y="743" type="line"/>
      <point x="54" y="727" type="line"/>
      <point x="61" y="727" type="line" smooth="yes"/>
      <point x="78" y="727"/>
      <point x="88" y="717"/>
      <point x="88" y="696" type="curve" smooth="yes"/>
      <point x="88" y="44" type="line"/>
      <point x="88" y="33"/>
      <point x="75" y="19"/>
      <point x="59" y="19" type="curve" smooth="yes"/>
      <point x="52" y="19" type="line"/>
    </contour>
  </outline>
</glyph>
<glyph name="m" format="1">
  <advance width="921"/>
  <unicode hex="006D"/>
  <outline>
    <contour>
      <point x="383" y="0" type="line"/>
      <point x="535" y="0" type="line"/>
      <point x="535" y="19" type="line"/>
      <point x="529" y="19" type="line" smooth="yes"/>
      <point x="513" y="19"/>
      <point x="499" y="32"/>
      <point x="499" y="43" type="curve"/>
      <point x="499" y="390" type="line" smooth="yes"/>
      <point x="499" y="395"/>
      <point x="499" y="398"/>
      <point x="498" y="404" type="curve"/>
      <point x="539" y="465"/>
      <point x="595" y="477"/>
      <point x="634" y="477" type="curve" smooth="yes"/>
      <point x="706" y="477"/>
      <point x="746" y="428"/>
      <point x="746" y="351" type="curve" smooth="yes"/>
      <point x="746" y="44" type="line"/>
      <point x="746" y="32"/>
      <point x="733" y="19"/>
      <point x="717" y="19" type="curve" smooth="yes"/>
      <point x="710" y="19" type="line"/>
      <point x="710" y="0" type="line"/>
      <point x="865" y="0" type="line"/>
      <point x="865" y="19" type="line"/>
      <point x="858" y="19" type="line" smooth="yes"/>
      <point x="843" y="19"/>
      <point x="829" y="32"/>
      <point x="829" y="43" type="curve"/>
      <point x="829" y="346" type="line" smooth="yes"/>
      <point x="829" y="456"/>
      <point x="739" y="508"/>
      <point x="651" y="508" type="curve" smooth="yes"/>
      <point x="583" y="508"/>
      <point x="519" y="493"/>
      <point x="477" y="432" type="curve"/>
      <point x="444" y="487"/>
      <point x="384" y="511"/>
      <point x="321" y="511" type="curve" smooth="yes"/>
      <point x="257" y="511"/>
      <point x="213" y="481"/>
      <point x="172" y="449" type="curve"/>
      <point x="171" y="419" type="line"/>
      <point x="209" y="447"/>
      <point x="254" y="478"/>
      <point x="298" y="478" type="curve" smooth="yes"/>
      <point x="365" y="478"/>
      <point x="420" y="424"/>
      <point x="420" y="358" type="curve" smooth="yes"/>
      <point x="420" y="44" type="line"/>
      <point x="420" y="32"/>
      <point x="406" y="19"/>
      <point x="390" y="19" type="curve" smooth="yes"/>
      <point x="383" y="19" type="line"/>
    </contour>
    <contour>
      <point x="57" y="0" type="line"/>
      <point x="213" y="0" type="line"/>
      <point x="213" y="19" type="line"/>
      <point x="206" y="19" type="line" smooth="yes"/>
      <point x="191" y="19"/>
      <point x="177" y="32"/>
      <point x="177" y="43" type="curve"/>
      <point x="177" y="463" type="line" smooth="yes"/>
      <point x="177" y="468"/>
      <point x="177" y="481"/>
      <point x="177" y="490" type="curve" smooth="yes"/>
      <point x="177" y="499"/>
      <point x="177" y="513"/>
      <point x="164" y="513" type="curve" smooth="yes"/>
      <point x="163" y="513"/>
      <point x="161" y="513"/>
      <point x="159" y="512" type="curve" smooth="yes"/>
      <point x="59" y="488" type="line"/>
      <point x="59" y="472" type="line"/>
      <point x="64" y="472" type="line" smooth="yes"/>
      <point x="81" y="472"/>
      <point x="93" y="462"/>
      <point x="93" y="441" type="curve" smooth="yes"/>
      <point x="93" y="44" type="line"/>
      <point x="93" y="32"/>
      <point x="80" y="19"/>
      <point x="64" y="19" type="curve" smooth="yes"/>
      <point x="57" y="19" type="line"/>
    </contour>
  </outline>
</glyph>
<glyph name="n" format="1">
  <advance width="588"/>
  <unicode hex="006E"/>
  <outline>
    <contour>
      <point x="171.91" y="41.3643" type="line"/>
      <point x="174.304" y="29.7275"/>
      <point x="185.771" y="18.8984"/>
      <point x="201.171" y="18.6992" type="curve" smooth="yes"/>
      <point x="208.077" y="18.6094" type="line"/>
      <point x="208.077" y="0" type="line"/>
      <point x="52" y="0" type="line"/>
      <point x="52" y="18.5977" type="line"/>
      <point x="58.9062" y="18.6875" type="line" smooth="yes"/>
      <point x="74.5439" y="18.8906"/>
      <point x="86.0332" y="32.3418"/>
      <point x="88.2285" y="43.6621" type="curve"/>
      <point x="88.2285" y="441.092" type="line" smooth="yes"/>
      <point x="88.2285" y="461.943"/>
      <point x="78.2158" y="471.516"/>
      <point x="61.4092" y="471.516" type="curve" smooth="yes"/>
      <point x="54.4092" y="471.516" type="line"/>
      <point x="54.4092" y="487.535" type="line"/>
      <point x="153.331" y="513.081" type="line" smooth="yes"/>
      <point x="153.829" y="513.208"/>
      <point x="155.846" y="514"/>
      <point x="159" y="514" type="curve" smooth="yes"/>
      <point x="169.983" y="514"/>
      <point x="172.002" y="503.517"/>
      <point x="172.002" y="489.446" type="curve" smooth="yes"/>
      <point x="172.002" y="483.802"/>
      <point x="172" y="483.819"/>
      <point x="171.998" y="478.393" type="curve"/>
      <point x="211.577" y="504.037"/>
      <point x="249.527" y="512.336"/>
      <point x="307.74" y="512.336" type="curve" smooth="yes"/>
      <point x="395.374" y="512.336"/>
      <point x="507.499" y="459.078"/>
      <point x="507.499" y="349.129" type="curve" smooth="yes"/>
      <point x="507.432" y="42.75" type="line"/>
      <point x="509.993" y="31.7539"/>
      <point x="521.537" y="18.9629"/>
      <point x="536.535" y="18.7686" type="curve" smooth="yes"/>
      <point x="543.441" y="18.6787" type="line"/>
      <point x="543.441" y="0" type="line"/>
      <point x="388.32" y="0" type="line"/>
      <point x="388.32" y="18.6094" type="line"/>
      <point x="395.227" y="18.6992" type="line" smooth="yes"/>
      <point x="411.398" y="18.9092"/>
      <point x="422.646" y="32.3223"/>
      <point x="424.704" y="44.584" type="curve"/>
      <point x="424.704" y="358.346" type="line" smooth="yes"/>
      <point x="424.704" y="424.396"/>
      <point x="353.565" y="477.017"/>
      <point x="286.399" y="477.017" type="curve" smooth="yes"/>
      <point x="252.226" y="477.017"/>
      <point x="211.085" y="468.833"/>
      <point x="171.99" y="441.681" type="curve"/>
    </contour>
  </outline>
</glyph>
<glyph name="o" format="1">
  <advance width="566"/>
  <unicode hex="006F"/>
  <outline>
    <contour>
      <point x="284" y="-10" type="curve" smooth="yes"/>
      <point x="426" y="-10"/>
      <point x="515" y="58"/>
      <point x="515" y="254" type="curve" smooth="yes"/>
      <point x="515" y="439"/>
      <point x="401" y="512"/>
      <point x="274" y="512" type="curve" smooth="yes"/>
      <point x="138" y="512"/>
      <point x="44" y="439"/>
      <point x="44" y="254" type="curve" smooth="yes"/>
      <point x="44" y="63"/>
      <point x="147" y="-10"/>
    </contour>
    <contour>
      <point x="293" y="23" type="curve" smooth="yes"/>
      <point x="173" y="23"/>
      <point x="146" y="168"/>
      <point x="146" y="275" type="curve" smooth="yes"/>
      <point x="146" y="382"/>
      <point x="181" y="479"/>
      <point x="266" y="479" type="curve" smooth="yes"/>
      <point x="398" y="479"/>
      <point x="413" y="323"/>
      <point x="413" y="216" type="curve" smooth="yes"/>
      <point x="413" y="128"/>
      <point x="378" y="23"/>
    </contour>
    <contour>
      <point x="288" y="-17" type="move" name="bottom"/>
    </contour>
    <contour>
      <point x="273" y="516" type="move" name="top"/>
    </contour>
  </outline>
</glyph>
<glyph name="q" format="1">
  <advance width="587"/>
  <unicode hex="0071"/>
  <outline>
    <contour>
      <point x="385" y="-232" type="line"/>
      <point x="541" y="-232" type="line"/>
      <point x="541" y="-213" type="line"/>
      <point x="534" y="-212" type="line" smooth="yes"/>
      <point x="518" y="-210"/>
      <point x="505" y="-199"/>
      <point x="505" y="-187" type="curve"/>
      <point x="505" y="486" type="line" smooth="yes"/>
      <point x="505" y="495"/>
      <point x="505" y="510"/>
      <point x="492" y="510" type="curve" smooth="yes"/>
      <point x="490" y="510"/>
      <point x="487" y="510"/>
      <point x="483" y="508" type="curve" smooth="yes"/>
      <point x="409" y="474" type="line"/>
      <point x="421" y="437" type="line"/>
      <point x="421" y="58" type="line"/>
      <point x="389" y="36"/>
      <point x="348" y="23"/>
      <point x="320" y="23" type="curve" smooth="yes"/>
      <point x="180" y="23"/>
      <point x="146" y="153"/>
      <point x="146" y="274" type="curve" smooth="yes"/>
      <point x="146" y="432"/>
      <point x="206" y="490"/>
      <point x="296" y="490" type="curve" smooth="yes"/>
      <point x="363" y="490"/>
      <point x="398" y="450"/>
      <point x="429" y="413" type="curve"/>
      <point x="436" y="474" type="line"/>
      <point x="389" y="496"/>
      <point x="337" y="512"/>
      <point x="294" y="512" type="curve" smooth="yes"/>
      <point x="141" y="512"/>
      <point x="55" y="438"/>
      <point x="55" y="250" type="curve" smooth="yes"/>
      <point x="55" y="77"/>
      <point x="161" y="-13"/>
      <point x="300" y="-13" type="curve" smooth="yes"/>
      <point x="347" y="-13"/>
      <point x="384" y="4"/>
      <point x="421" y="21" type="curve"/>
      <point x="421" y="-187" type="line"/>
      <point x="421" y="-199"/>
      <point x="409" y="-210"/>
      <point x="392" y="-212" type="curve" smooth="yes"/>
      <point x="385" y="-213" type="line"/>
    </contour>
  </outline>
</glyph>
<glyph name="r" format="1">
  <advance width="405"/>
  <unicode hex="0072"/>
  <outline>
    <contour>
      <point x="304.62" y="501.383" type="curve" smooth="yes"/>
      <point x="322.584" y="501.383"/>
      <point x="378.862" y="495.355"/>
      <point x="378.862" y="466.882" type="curve" smooth="yes"/>
      <point x="378.862" y="434.757"/>
      <point x="344.214" y="421.288"/>
      <point x="319.485" y="421.288" type="curve" smooth="yes"/>
      <point x="293.132" y="421.288"/>
      <point x="267.346" y="444.11"/>
      <point x="247.16" y="444.11" type="curve" smooth="yes"/>
      <point x="213.142" y="444.11"/>
      <point x="183.48" y="412.542"/>
      <point x="174.004" y="392.146" type="curve"/>
      <point x="173.933" y="43.2783" type="line"/>
      <point x="176.409" y="32.2472"/>
      <point x="189.073" y="18.7783"/>
      <point x="201.783" y="18.6387" type="curve" smooth="yes"/>
      <point x="209.856" y="18.5498" type="line"/>
      <point x="209.856" y="0" type="line"/>
      <point x="54" y="0" type="line"/>
      <point x="54" y="18.6865" type="line"/>
      <point x="60.9072" y="18.7754" type="line" smooth="yes"/>
      <point x="76.5635" y="18.9756"/>
      <point x="88.0352" y="32.4434"/>
      <point x="90.2285" y="43.792" type="curve"/>
      <point x="90.2285" y="442.709" type="line" smooth="yes"/>
      <point x="90.2285" y="462.832"/>
      <point x="79.9873" y="470.604"/>
      <point x="63.4092" y="470.604" type="curve" smooth="yes"/>
      <point x="56.4092" y="470.604" type="line"/>
      <point x="56.4092" y="485.797" type="line"/>
      <point x="156.188" y="512.676" type="line" smooth="yes"/>
      <point x="157.909" y="513.162"/>
      <point x="159.556" y="513.354"/>
      <point x="161" y="513.354" type="curve" smooth="yes"/>
      <point x="173.768" y="513.354"/>
      <point x="174.027" y="498.857"/>
      <point x="174.027" y="489.085" type="curve" smooth="yes"/>
      <point x="174.019" y="446.984" type="line"/>
      <point x="208.837" y="477.385"/>
      <point x="254.902" y="501.383"/>
    </contour>
  </outline>
</glyph>
<glyph name="s" format="1">
  <advance width="449"/>
  <unicode hex="0073"/>
  <outline>
    <contour>
      <point x="109.877" y="128.183" type="curve" smooth="yes"/>
      <point x="113.624" y="94.0264"/>
      <point x="136.009" y="20.4434"/>
      <point x="225.234" y="20.4434" type="curve" smooth="yes"/>
      <point x="286.084" y="20.4434"/>
      <point x="324.924" y="63.7119"/>
      <point x="324.924" y="112.604" type="curve" smooth="yes"/>
      <point x="324.924" y="159.174"/>
      <point x="266.746" y="196.134"/>
      <point x="213.701" y="227.472" type="curve" smooth="yes"/>
      <point x="167.258" y="255.059"/>
      <point x="82.6777" y="301.299"/>
      <point x="82.6777" y="370.006" type="curve" smooth="yes"/>
      <point x="82.6777" y="439.795"/>
      <point x="140.826" y="505.729"/>
      <point x="246.946" y="505.729" type="curve" smooth="yes"/>
      <point x="307.384" y="505.729"/>
      <point x="372.122" y="487.637"/>
      <point x="372.122" y="464" type="curve" smooth="yes"/>
      <point x="372.122" y="453.447"/>
      <point x="359.079" y="402.337"/>
      <point x="343" y="402.337" type="curve" smooth="yes"/>
      <point x="321.242" y="402.337"/>
      <point x="319.823" y="479.515"/>
      <point x="249.385" y="479.515" type="curve" smooth="yes"/>
      <point x="184.304" y="479.515"/>
      <point x="159.161" y="432.018"/>
      <point x="159.161" y="399.093" type="curve" smooth="yes"/>
      <point x="159.161" y="352.292"/>
      <point x="242.63" y="311.199"/>
      <point x="285.734" y="284.751" type="curve" smooth="yes"/>
      <point x="338.958" y="248.188"/>
      <point x="398.715" y="204.924"/>
      <point x="398.715" y="143.518" type="curve" smooth="yes"/>
      <point x="398.715" y="58.832"/>
      <point x="324.263" y="-10"/>
      <point x="224.518" y="-10" type="curve" smooth="yes"/>
      <point x="104.217" y="-10"/>
      <point x="49.0039" y="49.1689"/>
      <point x="49.0039" y="83" type="curve" smooth="yes"/>
      <point x="49.0039" y="101.435"/>
      <point x="84.2588" y="137.543"/>
      <point x="100" y="137.543" type="curve" smooth="yes"/>
      <point x="105.675" y="137.543"/>
      <point x="109.398" y="132.552"/>
    </contour>
  </outline>
</glyph>
<glyph name="t" format="1">
  <advance width="359"/>
  <unicode hex="0074"/>
  <outline>
    <contour>
      <point x="244" y="-10" type="curve" smooth="yes"/>
      <point x="265" y="-10"/>
      <point x="278" y="-6"/>
      <point x="296" y="1" type="curve"/>
      <point x="288" y="30" type="line"/>
      <point x="279" y="28"/>
      <point x="265" y="28"/>
      <point x="257" y="28" type="curve" smooth="yes"/>
      <point x="230" y="28"/>
      <point x="209" y="43"/>
      <point x="203" y="75" type="curve" smooth="yes"/>
      <point x="200" y="91"/>
      <point x="198" y="129"/>
      <point x="198" y="154" type="curve" smooth="yes"/>
      <point x="198" y="296" type="line" smooth="yes"/>
      <point x="198" y="352"/>
      <point x="198" y="430"/>
      <point x="198" y="485" type="curve" smooth="yes"/>
      <point x="198" y="502" type="line" smooth="yes"/>
      <point x="198" y="523"/>
      <point x="198" y="543"/>
      <point x="198" y="564" type="curve" smooth="yes"/>
      <point x="198" y="579"/>
      <point x="192" y="588"/>
      <point x="181" y="588" type="curve" smooth="yes"/>
      <point x="173" y="588"/>
      <point x="164" y="582"/>
      <point x="161" y="577" type="curve" smooth="yes"/>
      <point x="158" y="573"/>
      <point x="140" y="554"/>
      <point x="114" y="534" type="curve" smooth="yes"/>
      <point x="98" y="522"/>
      <point x="80" y="511"/>
      <point x="66" y="504" type="curve" smooth="yes"/>
      <point x="52" y="497"/>
      <point x="42" y="491"/>
      <point x="42" y="485" type="curve" smooth="yes"/>
      <point x="42" y="479"/>
      <point x="45" y="477"/>
      <point x="51" y="475" type="curve" smooth="yes"/>
      <point x="54" y="474"/>
      <point x="65" y="474"/>
      <point x="76" y="474" type="curve" smooth="yes"/>
      <point x="87" y="474"/>
      <point x="98" y="474"/>
      <point x="100" y="473" type="curve" smooth="yes"/>
      <point x="109" y="471"/>
      <point x="114" y="467"/>
      <point x="114" y="451" type="curve" smooth="yes"/>
      <point x="114" y="356"/>
      <point x="114" y="266"/>
      <point x="114" y="169" type="curve"/>
      <point x="114" y="112"/>
      <point x="115" y="54"/>
      <point x="147" y="24" type="curve" smooth="yes"/>
      <point x="172" y="0"/>
      <point x="204" y="-10"/>
    </contour>
    <contour>
      <point x="190" y="469" type="line"/>
      <point x="195" y="472"/>
      <point x="208" y="472"/>
      <point x="218" y="472" type="curve" smooth="yes"/>
      <point x="258" y="472"/>
      <point x="295" y="472"/>
      <point x="313" y="471" type="curve"/>
      <point x="317" y="488" type="line" smooth="yes"/>
      <point x="318" y="493"/>
      <point x="318" y="496"/>
      <point x="318" y="499" type="curve" smooth="yes"/>
      <point x="318" y="507"/>
      <point x="314" y="511"/>
      <point x="295" y="511" type="curve" smooth="yes"/>
      <point x="282" y="511"/>
      <point x="222" y="511"/>
      <point x="186" y="511" type="curve"/>
    </contour>
    <contour>
      <point x="193" y="-6" type="move" name="bottom"/>
    </contour>
    <contour>
      <point x="178" y="591" type="move" name="top"/>
    </contour>
  </outline>
</glyph>
<glyph name="u" format="1">
  <advance width="601"/>
  <unicode hex="0075"/>
  <outline>
    <contour>
      <point x="288" y="-10" type="curve" smooth="yes"/>
      <point x="356" y="-10"/>
      <point x="401" y="14"/>
      <point x="439" y="47" type="curve"/>
      <point x="441" y="80" type="line"/>
      <point x="394" y="47"/>
      <point x="353" y="25"/>
      <point x="313" y="25" type="curve" smooth="yes"/>
      <point x="238" y="25"/>
      <point x="179" y="80"/>
      <point x="179" y="146" type="curve" smooth="yes"/>
      <point x="179" y="485" type="line" smooth="yes"/>
      <point x="179" y="496"/>
      <point x="178" y="509"/>
      <point x="165" y="509" type="curve" smooth="yes"/>
      <point x="163" y="509"/>
      <point x="159" y="508"/>
      <point x="156" y="507" type="curve" smooth="yes"/>
      <point x="61" y="482" type="line"/>
      <point x="61" y="467" type="line"/>
      <point x="68" y="467" type="line" smooth="yes"/>
      <point x="85" y="467"/>
      <point x="95" y="452"/>
      <point x="95" y="432" type="curve" smooth="yes"/>
      <point x="95" y="141" type="line" smooth="yes"/>
      <point x="95" y="30"/>
      <point x="202" y="-10"/>
    </contour>
    <contour>
      <point x="441" y="-8" type="curve" smooth="yes"/>
      <point x="471" y="-8"/>
      <point x="504" y="7"/>
      <point x="535" y="21" type="curve"/>
      <point x="528" y="49" type="line"/>
      <point x="517" y="46"/>
      <point x="503" y="43"/>
      <point x="492" y="41" type="curve"/>
      <point x="492" y="486" type="line" smooth="yes"/>
      <point x="492" y="497"/>
      <point x="492" y="510"/>
      <point x="482" y="510" type="curve" smooth="yes"/>
      <point x="478" y="510"/>
      <point x="473" y="509"/>
      <point x="470" y="508" type="curve" smooth="yes"/>
      <point x="375" y="488" type="line"/>
      <point x="375" y="472" type="line"/>
      <point x="382" y="472" type="line" smooth="yes"/>
      <point x="396" y="472"/>
      <point x="409" y="457"/>
      <point x="409" y="437" type="curve" smooth="yes"/>
      <point x="409" y="56" type="line"/>
      <point x="408" y="32" type="line"/>
      <point x="408" y="23"/>
      <point x="408" y="-8"/>
    </contour>
  </outline>
</glyph>
<glyph name="v" format="1">
  <advance width="564"/>
  <unicode hex="0076"/>
  <outline>
    <contour>
      <point x="413.694" y="506.628" type="line"/>
      <point x="522.851" y="506.628" type="line"/>
      <point x="522.851" y="492" type="line"/>
      <point x="515.967" y="492" type="line" smooth="yes"/>
      <point x="500.915" y="491.419"/>
      <point x="495.737" y="476.21"/>
      <point x="491" y="466" type="curve" smooth="yes"/>
      <point x="489.867" y="463.055"/>
      <point x="465.746" y="404.941"/>
      <point x="425.727" y="310.036" type="curve" smooth="yes"/>
      <point x="369.217" y="176.024"/>
      <point x="299.063" y="13.7539"/>
      <point x="293.638" y="3.80371" type="curve" smooth="yes"/>
      <point x="289.529" y="-3.7334"/>
      <point x="281.487" y="-9"/>
      <point x="272.199" y="-9" type="curve" smooth="yes"/>
      <point x="264.045" y="-9"/>
      <point x="255.603" y="-4.62988"/>
      <point x="251.562" y="4.24023" type="curve" smooth="yes"/>
      <point x="246.394" y="15.5996"/>
      <point x="240.402" y="29.9941"/>
      <point x="236.513" y="40.2949" type="curve"/>
      <point x="236.5" y="40.3291"/>
      <point x="186.625" y="171.685"/>
      <point x="142.88" y="291.984" type="curve" smooth="yes"/>
      <point x="107.172" y="390.183"/>
      <point x="80.1143" y="460.71"/>
      <point x="80" y="461" type="curve" smooth="yes"/>
      <point x="73.9629" y="475.644"/>
      <point x="69.7988" y="492.199"/>
      <point x="49" y="492.199" type="curve"/>
      <point x="49" y="506.855" type="line"/>
      <point x="190.057" y="506.855" type="line"/>
      <point x="190.057" y="492" type="line"/>
      <point x="182.723" y="492" type="line" smooth="yes"/>
      <point x="166.686" y="492"/>
      <point x="161.542" y="477.692"/>
      <point x="161.542" y="470.102" type="curve" smooth="yes"/>
      <point x="161.542" y="466.65"/>
      <point x="162.812" y="461.313"/>
      <point x="165" y="456" type="curve" smooth="yes"/>
      <point x="165.026" y="455.936"/>
      <point x="183.855" y="401.701"/>
      <point x="214.467" y="320.702" type="curve" smooth="yes"/>
      <point x="238.951" y="255.914"/>
      <point x="278.687" y="133.868"/>
      <point x="292.229" y="98.2568" type="curve"/>
      <point x="309.005" y="135.92"/>
      <point x="364.661" y="263.038"/>
      <point x="393.293" y="330.854" type="curve" smooth="yes"/>
      <point x="425.803" y="407.854"/>
      <point x="442.961" y="458.887"/>
      <point x="443" y="459" type="curve" smooth="yes"/>
      <point x="443.979" y="461.824"/>
      <point x="444.452" y="464.403"/>
      <point x="444.452" y="466.729" type="curve" smooth="yes"/>
      <point x="444.452" y="476.689"/>
      <point x="435.777" y="492"/>
      <point x="421.029" y="492" type="curve" smooth="yes"/>
      <point x="413.694" y="492" type="line"/>
    </contour>
  </outline>
</glyph>
<glyph name="w" format="1">
  <advance width="828"/>
  <unicode hex="0077"/>
  <outline>
    <contour>
      <point x="683.526" y="493.651" type="line"/>
      <point x="683.526" y="506.121" type="line"/>
      <point x="791.332" y="506.121" type="line"/>
      <point x="791.332" y="493.696" type="line"/>
      <point x="776" y="493.696"/>
      <point x="763.369" y="478.016"/>
      <point x="759" y="466" type="curve" smooth="yes"/>
      <point x="758.24" y="463.897"/>
      <point x="727.246" y="393.296"/>
      <point x="688.213" y="300.396" type="curve" smooth="yes"/>
      <point x="633.237" y="169.557"/>
      <point x="577.958" y="11.876"/>
      <point x="573.035" y="2.40527" type="curve" smooth="yes"/>
      <point x="569.152" y="-5.27344"/>
      <point x="564.93" y="-10.3701"/>
      <point x="558.82" y="-10.3701" type="curve" smooth="yes"/>
      <point x="551.938" y="-10.3701"/>
      <point x="545.573" y="-3.40723"/>
      <point x="542.636" y="4.36914" type="curve" smooth="yes"/>
      <point x="523.181" y="55.8652"/>
      <point x="501.898" y="126.907"/>
      <point x="440.826" y="290.049" type="curve" smooth="yes"/>
      <point x="434.889" y="305.907"/>
      <point x="426.73" y="325.206"/>
      <point x="421.151" y="339.888" type="curve"/>
      <point x="416.644" y="329.145"/>
      <point x="413.459" y="321.501"/>
      <point x="409.4" y="311.694" type="curve" smooth="yes"/>
      <point x="353.876" y="177.488"/>
      <point x="283.088" y="11.6289"/>
      <point x="279.749" y="3.02441" type="curve" smooth="yes"/>
      <point x="276.276" y="-5.92676"/>
      <point x="269.165" y="-11"/>
      <point x="262.698" y="-11" type="curve" smooth="yes"/>
      <point x="254.923" y="-11"/>
      <point x="250.442" y="-4.16602"/>
      <point x="247.197" y="2.94336" type="curve" smooth="yes"/>
      <point x="225.397" y="49.4102"/>
      <point x="203.496" y="125.673"/>
      <point x="144.88" y="282.266" type="curve" smooth="yes"/>
      <point x="109.142" y="377.74"/>
      <point x="77.2314" y="464.43"/>
      <point x="77" y="465" type="curve" smooth="yes"/>
      <point x="72.2373" y="476.184"/>
      <point x="69.2861" y="493.633"/>
      <point x="48" y="493.633" type="curve"/>
      <point x="48" y="506.352" type="line"/>
      <point x="183.002" y="506.352" type="line"/>
      <point x="183.002" y="493" type="line"/>
      <point x="175.904" y="493" type="line" smooth="yes"/>
      <point x="160.758" y="493"/>
      <point x="157.736" y="478.549"/>
      <point x="157.736" y="470.468" type="curve" smooth="yes"/>
      <point x="157.736" y="466.795"/>
      <point x="160.504" y="459.375"/>
      <point x="162" y="455" type="curve" smooth="yes"/>
      <point x="162.023" y="454.927"/>
      <point x="179.907" y="400.512"/>
      <point x="209.528" y="319.523" type="curve" smooth="yes"/>
      <point x="233.032" y="255.261"/>
      <point x="269.208" y="161.012"/>
      <point x="282" y="128" type="curve"/>
      <point x="298.254" y="164.488"/>
      <point x="335.971" y="252.416"/>
      <point x="363.455" y="319.675" type="curve" smooth="yes"/>
      <point x="376.113" y="350.653"/>
      <point x="388.499" y="382.688"/>
      <point x="397.187" y="405.707" type="curve"/>
      <point x="381.369" y="446.451"/>
      <point x="372.207" y="471.489"/>
      <point x="372" y="472" type="curve" smooth="yes"/>
      <point x="366.288" y="485.333"/>
      <point x="363.826" y="493.293"/>
      <point x="342.252" y="493.293" type="curve"/>
      <point x="342.252" y="506.352" type="line"/>
      <point x="477.563" y="506.352" type="line"/>
      <point x="477.563" y="493" type="line"/>
      <point x="471.465" y="493" type="line" smooth="yes"/>
      <point x="457.128" y="493"/>
      <point x="449.372" y="486.725"/>
      <point x="449.372" y="477.1" type="curve" smooth="yes"/>
      <point x="449.372" y="473.215"/>
      <point x="451.31" y="466.784"/>
      <point x="453" y="462" type="curve" smooth="yes"/>
      <point x="453.022" y="461.936"/>
      <point x="474.466" y="400.523"/>
      <point x="504.092" y="319.523" type="curve" smooth="yes"/>
      <point x="527.546" y="255.397"/>
      <point x="561.436" y="157.418"/>
      <point x="574" y="125" type="curve"/>
      <point x="589.208" y="160.805"/>
      <point x="626.6" y="250.548"/>
      <point x="653.934" y="317.675" type="curve" smooth="yes"/>
      <point x="685.292" y="394.687"/>
      <point x="706.963" y="456.875"/>
      <point x="707" y="457" type="curve" smooth="yes"/>
      <point x="708.549" y="462.161"/>
      <point x="711.294" y="469.858"/>
      <point x="711.294" y="475.099" type="curve" smooth="yes"/>
      <point x="711.294" y="486.619"/>
      <point x="702.867" y="493.35"/>
      <point x="686.618" y="493.56" type="curve" smooth="yes"/>
    </contour>
  </outline>
</glyph>
<glyph name="x" format="1">
  <advance width="579"/>
  <unicode hex="0078"/>
  <outline>
    <contour>
      <point x="367" y="0" type="line"/>
      <point x="523" y="0" type="line"/>
      <point x="523" y="20" type="line"/>
      <point x="515" y="20" type="line"/>
      <point x="505" y="20"/>
      <point x="495" y="31"/>
      <point x="490" y="37" type="curve" smooth="yes"/>
      <point x="470" y="61"/>
      <point x="436" y="109"/>
      <point x="402" y="161" type="curve" smooth="yes"/>
      <point x="373" y="206"/>
      <point x="341" y="253"/>
      <point x="313" y="292" type="curve"/>
      <point x="305" y="302" type="line"/>
      <point x="267" y="355"/>
      <point x="221" y="419"/>
      <point x="196" y="453" type="curve" smooth="yes"/>
      <point x="192" y="459"/>
      <point x="187" y="467"/>
      <point x="187" y="471" type="curve" smooth="yes"/>
      <point x="187" y="476"/>
      <point x="190" y="487"/>
      <point x="203" y="487" type="curve"/>
      <point x="211" y="487" type="line"/>
      <point x="211" y="507" type="line"/>
      <point x="70" y="507" type="line"/>
      <point x="70" y="488" type="line"/>
      <point x="77" y="488" type="line"/>
      <point x="89" y="488"/>
      <point x="98" y="476"/>
      <point x="104" y="468" type="curve" smooth="yes"/>
      <point x="106" y="465"/>
      <point x="208" y="322"/>
      <point x="264" y="246" type="curve"/>
      <point x="269" y="230" type="line"/>
      <point x="310" y="172"/>
      <point x="362" y="95"/>
      <point x="390" y="53" type="curve"/>
      <point x="391" y="52"/>
      <point x="397" y="42"/>
      <point x="397" y="35" type="curve" smooth="yes"/>
      <point x="397" y="27"/>
      <point x="387" y="20"/>
      <point x="374" y="20" type="curve"/>
      <point x="367" y="20" type="line"/>
    </contour>
    <contour>
      <point x="48" y="0" type="line"/>
      <point x="173" y="0" type="line"/>
      <point x="173" y="20" type="line"/>
      <point x="166" y="20" type="line"/>
      <point x="158" y="20"/>
      <point x="143" y="26"/>
      <point x="143" y="36" type="curve" smooth="yes"/>
      <point x="143" y="44"/>
      <point x="149" y="52"/>
      <point x="152" y="56" type="curve" smooth="yes"/>
      <point x="165" y="74"/>
      <point x="236" y="168"/>
      <point x="284" y="227" type="curve"/>
      <point x="265" y="264" type="line"/>
      <point x="190" y="180"/>
      <point x="90" y="45"/>
      <point x="84" y="36" type="curve" smooth="yes"/>
      <point x="81" y="31"/>
      <point x="66" y="20"/>
      <point x="55" y="20" type="curve"/>
      <point x="48" y="20" type="line"/>
    </contour>
    <contour>
      <point x="310" y="269" type="line"/>
      <point x="381" y="354"/>
      <point x="467" y="465"/>
      <point x="468" y="467" type="curve" smooth="yes"/>
      <point x="471" y="474"/>
      <point x="481" y="488"/>
      <point x="494" y="488" type="curve"/>
      <point x="500" y="488" type="line"/>
      <point x="500" y="507" type="line"/>
      <point x="377" y="507" type="line"/>
      <point x="377" y="487" type="line"/>
      <point x="384" y="487" type="line"/>
      <point x="399" y="487"/>
      <point x="408" y="478"/>
      <point x="408" y="471" type="curve" smooth="yes"/>
      <point x="408" y="467"/>
      <point x="406" y="460"/>
      <point x="402" y="454" type="curve" smooth="yes"/>
      <point x="401" y="452"/>
      <point x="357" y="388"/>
      <point x="284" y="300" type="curve"/>
    </contour>
    <contour>
      <point x="291" y="507" type="move" name="top"/>
    </contour>
  </outline>
</glyph>
<glyph name="z" format="1">
  <advance width="600"/>
  <unicode hex="007A"/>
  <outline>
    <contour>
      <point x="290" y="502" type="curve" smooth="yes"/>
      <point x="380" y="502"/>
      <point x="493" y="503"/>
      <point x="511" y="505" type="curve"/>
      <point x="514" y="499"/>
      <point x="515" y="492"/>
      <point x="515" y="486" type="curve" smooth="yes"/>
      <point x="515" y="481"/>
      <point x="511" y="475"/>
      <point x="508" y="471" type="curve" smooth="yes"/>
      <point x="502" y="462"/>
      <point x="415" y="350"/>
      <point x="334" y="250" type="curve" smooth="yes"/>
      <point x="264" y="164"/>
      <point x="194" y="77"/>
      <point x="180" y="56" type="curve"/>
      <point x="165" y="68" type="line"/>
      <point x="196" y="65"/>
      <point x="246" y="63"/>
      <point x="300" y="63" type="curve" smooth="yes"/>
      <point x="369" y="63"/>
      <point x="437" y="64"/>
      <point x="484" y="67" type="curve" smooth="yes"/>
      <point x="489" y="67"/>
      <point x="494" y="69"/>
      <point x="497" y="73" type="curve" smooth="yes"/>
      <point x="499" y="76"/>
      <point x="502" y="82"/>
      <point x="504" y="86" type="curve"/>
      <point x="522" y="79" type="line"/>
      <point x="497" y="0" type="line"/>
      <point x="89" y="0" type="line" smooth="yes"/>
      <point x="77" y="0"/>
      <point x="72" y="12"/>
      <point x="72" y="19" type="curve" smooth="yes"/>
      <point x="72" y="25"/>
      <point x="78" y="36"/>
      <point x="83" y="41" type="curve" smooth="yes"/>
      <point x="125" y="83"/>
      <point x="218" y="188"/>
      <point x="294" y="277" type="curve" smooth="yes"/>
      <point x="366" y="361"/>
      <point x="419" y="435"/>
      <point x="434" y="462" type="curve"/>
      <point x="459" y="450" type="line"/>
      <point x="429" y="451"/>
      <point x="409" y="451"/>
      <point x="381" y="451" type="curve" smooth="yes"/>
      <point x="283" y="451"/>
      <point x="165" y="450"/>
      <point x="145" y="449" type="curve" smooth="yes"/>
      <point x="131" y="448"/>
      <point x="126" y="439"/>
      <point x="123" y="433" type="curve"/>
      <point x="107" y="439" type="line"/>
      <point x="130" y="505" type="line"/>
      <point x="158" y="503"/>
      <point x="217" y="502"/>
    </contour>
  </outline>
</glyph>
<glyph name="braceleft" format="1">
  <advance width="272"/>
  <unicode hex="007B"/>
  <outline>
    <contour>
      <point x="225" y="-88" type="curve" smooth="yes"/>
      <point x="233" y="-88" type="line"/>
      <point x="233" y="-57" type="line"/>
      <point x="225" y="-57" type="line" smooth="yes"/>
      <point x="197" y="-57"/>
      <point x="161" y="-36"/>
      <point x="161" y="23" type="curve" smooth="yes"/>
      <point x="161" y="58"/>
      <point x="165" y="109"/>
      <point x="170" y="158" type="curve" smooth="yes"/>
      <point x="174" y="199"/>
      <point x="177" y="236"/>
      <point x="177" y="258" type="curve" smooth="yes"/>
      <point x="177" y="309"/>
      <point x="162" y="342"/>
      <point x="130" y="357" type="curve"/>
      <point x="161" y="371"/>
      <point x="177" y="404"/>
      <point x="177" y="456" type="curve" smooth="yes"/>
      <point x="177" y="478"/>
      <point x="174" y="514"/>
      <point x="169" y="558" type="curve" smooth="yes"/>
      <point x="164" y="605"/>
      <point x="161" y="656"/>
      <point x="161" y="690" type="curve" smooth="yes"/>
      <point x="161" y="750"/>
      <point x="197" y="770"/>
      <point x="225" y="770" type="curve" smooth="yes"/>
      <point x="233" y="770" type="line"/>
      <point x="233" y="801" type="line"/>
      <point x="225" y="801" type="line" smooth="yes"/>
      <point x="195" y="801"/>
      <point x="90" y="793"/>
      <point x="90" y="689" type="curve" smooth="yes"/>
      <point x="90" y="641"/>
      <point x="94" y="600"/>
      <point x="100" y="560" type="curve" smooth="yes"/>
      <point x="106" y="522"/>
      <point x="110" y="489"/>
      <point x="110" y="450" type="curve" smooth="yes"/>
      <point x="110" y="410"/>
      <point x="82" y="395"/>
      <point x="60" y="384" type="curve" smooth="yes"/>
      <point x="44" y="376"/>
      <point x="32" y="369"/>
      <point x="32" y="357" type="curve" smooth="yes"/>
      <point x="32" y="344"/>
      <point x="44" y="337"/>
      <point x="60" y="329" type="curve" smooth="yes"/>
      <point x="82" y="318"/>
      <point x="110" y="304"/>
      <point x="110" y="264" type="curve" smooth="yes"/>
      <point x="110" y="226"/>
      <point x="106" y="192"/>
      <point x="101" y="157" type="curve" smooth="yes"/>
      <point x="95" y="116"/>
      <point x="90" y="75"/>
      <point x="90" y="25" type="curve" smooth="yes"/>
      <point x="90" y="-79"/>
      <point x="195" y="-88"/>
    </contour>
  </outline>
</glyph>
<glyph name="bar" format="1">
  <advance width="200"/>
  <unicode hex="007C"/>
  <outline>
    <contour>
      <point x="100" y="-64" type="curve" smooth="yes"/>
      <point x="111" y="-64"/>
      <point x="134" y="-63"/>
      <point x="134" y="-47" type="curve" smooth="yes"/>
      <point x="134" y="736" type="line" smooth="yes"/>
      <point x="134" y="751"/>
      <point x="113" y="752"/>
      <point x="102" y="752" type="curve" smooth="yes"/>
      <point x="91" y="752"/>
      <point x="67" y="752"/>
      <point x="67" y="736" type="curve" smooth="yes"/>
      <point x="67" y="-47" type="line" smooth="yes"/>
      <point x="67" y="-63"/>
      <point x="89" y="-64"/>
    </contour>
  </outline>
</glyph>
